SplineFontDB: 3.0
FontName: Boon-300
FullName: Boon 300
FamilyName: Boon
Weight: 300
Copyright: Copyright (c) 2014-2015, Sungsit Sawaiwan (https://sungsit.com | gibbozer [at] gmail [dot] com). \n      \nThis Font Software is licensed under the SIL Open Font License, Version 1.1 (http://scripts.sil.org/OFL).
Version: 1.0
ItalicAngle: 0
UnderlinePosition: -120
UnderlineWidth: 60
Ascent: 960
Descent: 240
InvalidEm: 0
UFOAscent: 960
UFODescent: -240
LayerCount: 7
Layer: 0 0 "Back" 1
Layer: 1 0 "Fore" 0
Layer: 2 0 "300" 0
Layer: 3 0 "400" 0
Layer: 4 0 "500" 0
Layer: 5 0 "600" 0
Layer: 6 0 "700" 0
StyleMap: 0x0000
FSType: 0
OS2Version: 0
OS2_WeightWidthSlopeOnly: 0
OS2_UseTypoMetrics: 0
CreationTime: 1442757193
ModificationTime: 1444100752
PfmFamily: 33
TTFWeight: 300
TTFWidth: 5
LineGap: 90
VLineGap: 0
Panose: 2 0 2 3 0 0 0 0 0 0
OS2TypoAscent: 960
OS2TypoAOffset: 0
OS2TypoDescent: -240
OS2TypoDOffset: 0
OS2TypoLinegap: 90
OS2WinAscent: 1320
OS2WinAOffset: 0
OS2WinDescent: 480
OS2WinDOffset: 0
HheadAscent: 1320
HheadAOffset: 0
HheadDescent: -480
HheadDOffset: 0
OS2SubXSize: 780
OS2SubYSize: 840
OS2SubXOff: 0
OS2SubYOff: 180
OS2SupXSize: 780
OS2SupYSize: 840
OS2SupXOff: 0
OS2SupYOff: 600
OS2StrikeYSize: 60
OS2StrikeYPos: 300
OS2CapHeight: 780
OS2XHeight: 600
OS2Vendor: 'FUni'
OS2CodePages: 00010000.00000000
OS2UnicodeRanges: 81000003.1000200a.00000000.00000000
MarkAttachClasses: 1
DEI: 91125

StartChar: .notdef
Encoding: 1114112 -1 0
GlifName: _notdef
Width: 660
VWidth: 0
Flags: W
HStem: 0 52<173 487> 548 52<173 487>
VStem: 110 63<52 548> 487 63<52 548>
LayerCount: 7
Fore
SplineSet
80 0 m 1
 80 600 l 1
 330 600 l 1
 580 600 l 1
 580 0 l 1
 330 0 l 1
 80 0 l 1
330 120 m 1
 430 120 l 1
 430 480 l 1
 330 480 l 1
 230 480 l 1
 230 120 l 1
 330 120 l 1
EndSplineSet
PickledDataWithLists: "(dp0
Vcom.fontlab.hintData
p1
(dp2
Vhhints
p3
(lp4
(dp5
Vwidth
p6
L10L
sVposition
p7
L0L
sa(dp8
g6
L10L
sg7
L30L
sa(dp9
g6
L10L
sg7
L560L
sa(dp10
g6
L10L
sg7
L590L
sasVvhints
p11
(lp12
(dp13
g6
L10L
sg7
L160L
sa(dp14
g6
L10L
sg7
L190L
sa(dp15
g6
L10L
sg7
L520L
sa(dp16
g6
L10L
sg7
L550L
sass."
Layer: 2
SplineSet
110 0 m 1
 110 600 l 1
 330 600 l 1
 550 600 l 1
 550 0 l 1
 330 0 l 1
 110 0 l 1
330 52 m 1
 487 52 l 1
 487 548 l 1
 330 548 l 1
 173 548 l 1
 173 52 l 1
 330 52 l 1
EndSplineSet
Layer: 3
SplineSet
102 0 m 1
 102 600 l 1
 330 600 l 1
 558 600 l 1
 558 0 l 1
 330 0 l 1
 102 0 l 1
330 69 m 1
 473 69 l 1
 473 531 l 1
 330 531 l 1
 187 531 l 1
 187 69 l 1
 330 69 l 1
EndSplineSet
Layer: 4
SplineSet
95 0 m 1
 95 600 l 1
 330 600 l 1
 565 600 l 1
 565 0 l 1
 330 0 l 1
 95 0 l 1
330 86 m 1
 458 86 l 1
 458 514 l 1
 330 514 l 1
 202 514 l 1
 202 86 l 1
 330 86 l 1
EndSplineSet
Layer: 5
SplineSet
88 0 m 5
 88 600 l 5
 330 600 l 5
 572 600 l 5
 572 0 l 5
 330 0 l 5
 88 0 l 5
330 103 m 5
 444 103 l 5
 444 497 l 5
 330 497 l 5
 216 497 l 5
 216 103 l 5
 330 103 l 5
EndSplineSet
Layer: 6
SplineSet
80 0 m 1
 80 600 l 1
 330 600 l 1
 580 600 l 1
 580 0 l 1
 330 0 l 1
 80 0 l 1
330 120 m 1
 430 120 l 1
 430 480 l 1
 330 480 l 1
 230 480 l 1
 230 120 l 1
 330 120 l 1
EndSplineSet
EndChar

StartChar: exclam
Encoding: 33 33 5
GlifName: exclam
Width: 330
VWidth: 0
Flags: W
HStem: -2 122<110.811 219.189> 790 20G<123 207>
VStem: 100 130<9.14529 108.855> 123 84<558 810> 141 48<270 522>
LayerCount: 7
Fore
SplineSet
110 270 m 1xd0
 70 810 l 1
 260 810 l 1xe0
 220 270 l 1
 110 270 l 1xd0
EndSplineSet
Refer: 18 46 S 1 0 0 1 0 0 2
PickledDataWithLists: "(dp0
Vcom.fontlab.hintData
p1
(dp2
Vhhints
p3
(lp4
(dp5
Vwidth
p6
L10L
sVposition
p7
L-5L
sa(dp8
g6
L10L
sg7
L122L
sa(dp9
g6
L10L
sg7
L268L
sa(dp10
g6
L10L
sg7
L826L
sasVvhints
p11
(lp12
(dp13
g6
L10L
sg7
L81L
sa(dp14
g6
L10L
sg7
L101L
sa(dp15
g6
L10L
sg7
L125L
sa(dp16
g6
L10L
sg7
L195L
sa(dp17
g6
L10L
sg7
L210L
sa(dp18
g6
L10L
sg7
L239L
sass."
Layer: 2
SplineSet
123 810 m 1xd0
 207 810 l 1xd0
 189 270 l 1
 141 270 l 1xc8
 123 810 l 1xd0
EndSplineSet
Refer: 18 46 S 1 0 0 1 0 0 2
Layer: 3
SplineSet
110 810 m 1xd0
 220 810 l 1xd0
 196 270 l 1
 134 270 l 1xc8
 110 810 l 1xd0
EndSplineSet
Refer: 18 46 S 1 0 0 1 0 0 2
Layer: 4
SplineSet
96 810 m 1xd0
 234 810 l 1
 205 270 l 1
 125 270 l 1
 96 810 l 1xd0
EndSplineSet
Refer: 18 46 S 1 0 0 1 0 0 2
Layer: 5
SplineSet
83 810 m 1xd0
 247 810 l 1
 213 270 l 1
 117 270 l 1
 83 810 l 1xd0
EndSplineSet
Refer: 18 46 S 1 0 0 1 0 0 2
Layer: 6
SplineSet
110 270 m 1xd0
 70 810 l 1
 260 810 l 1xe0
 220 270 l 1
 110 270 l 1xd0
EndSplineSet
Refer: 18 46 S 1 0 0 1 0 0 2
EndChar

StartChar: numbersign
Encoding: 35 35 7
GlifName: numbersign
Width: 810
VWidth: 0
Flags: W
HStem: 0 21G<125 187.339 418 480.339> 221 48<70 184 254 478 547 680> 511 48<130 263 332 556 626 740> 760 20G<329.661 392 622.57 685>
LayerCount: 7
Back
SplineSet
105 535 m 29
 765 535 l 1053
45 245 m 29
 705 245 l 1053
675 780 m 25
 465 0 l 1049
345 780 m 25
 135 0 l 1049
EndSplineSet
Fore
SplineSet
30 190 m 1
 30 300 l 1
 176 300 l 1
 224 480 l 1
 90 480 l 1
 90 590 l 1
 254 590 l 1
 305 780 l 1
 435 780 l 1
 384 590 l 1
 534 590 l 1
 585 780 l 1
 715 780 l 1
 664 590 l 1
 780 590 l 1
 780 480 l 1
 634 480 l 1
 586 300 l 1
 720 300 l 1
 720 190 l 1
 556 190 l 1
 505 0 l 1
 375 0 l 1
 426 190 l 1
 276 190 l 1
 225 0 l 1
 95 0 l 1
 146 190 l 1
 30 190 l 1
354 480 m 1
 306 300 l 1
 456 300 l 1
 504 480 l 1
 354 480 l 1
EndSplineSet
PickledDataWithLists: "(dp0
Vcom.fontlab.hintData
p1
(dp2
Vhhints
p3
(lp4
(dp5
Vwidth
p6
L10L
sVposition
p7
L-29L
sa(dp8
g6
L10L
sg7
L-19L
sa(dp9
g6
L7L
sg7
L241L
sa(dp10
g6
L10L
sg7
L284L
sa(dp11
g6
L7L
sg7
L521L
sa(dp12
g6
L10L
sg7
L564L
sa(dp13
g6
L10L
sg7
L819L
sa(dp14
g6
L10L
sg7
L829L
sasVvhints
p15
(lp16
(dp17
g6
L10L
sg7
L111L
sa(dp18
g6
L10L
sg7
L329L
sa(dp19
g6
L10L
sg7
L381L
sa(dp20
g6
L10L
sg7
L599L
sa(dp21
g6
L10L
sg7
L649L
sa(dp22
g6
L10L
sg7
L689L
sass."
Layer: 2
SplineSet
70 221 m 1
 70 269 l 1
 197 269 l 1
 263 511 l 1
 130 511 l 1
 130 559 l 1
 276 559 l 1
 335 780 l 1
 392 780 l 1
 332 559 l 1
 568 559 l 1
 628 780 l 1
 685 780 l 1
 626 559 l 1
 740 559 l 1
 740 511 l 1
 613 511 l 1
 547 269 l 1
 680 269 l 1
 680 221 l 1
 534 221 l 1
 475 0 l 1
 418 0 l 1
 478 221 l 1
 241 221 l 1
 182 0 l 1
 125 0 l 1
 184 221 l 1
 70 221 l 1
320 511 m 1
 254 269 l 1
 490 269 l 1
 556 511 l 1
 320 511 l 1
EndSplineSet
Layer: 3
SplineSet
60 214 m 1
 60 276 l 1
 192 276 l 1
 254 504 l 1
 120 504 l 1
 120 566 l 1
 270 566 l 1
 328 780 l 1
 402 780 l 1
 344 566 l 1
 560 566 l 1
 618 780 l 1
 692 780 l 1
 634 566 l 1
 750 566 l 1
 750 504 l 1
 618 504 l 1
 556 276 l 1
 690 276 l 1
 690 214 l 1
 540 214 l 1
 482 0 l 1
 408 0 l 1
 466 214 l 1
 250 214 l 1
 192 0 l 1
 118 0 l 1
 176 214 l 1
 60 214 l 1
328 504 m 1
 266 276 l 1
 482 276 l 1
 544 504 l 1
 328 504 l 1
EndSplineSet
Layer: 4
SplineSet
50 206 m 1
 50 284 l 1
 186 284 l 1
 244 496 l 1
 110 496 l 1
 110 574 l 1
 265 574 l 1
 320 780 l 1
 413 780 l 1
 358 574 l 1
 552 574 l 1
 607 780 l 1
 700 780 l 1
 645 574 l 1
 760 574 l 1
 760 496 l 1
 624 496 l 1
 566 284 l 1
 700 284 l 1
 700 206 l 1
 545 206 l 1
 490 0 l 1
 397 0 l 1
 452 206 l 1
 258 206 l 1
 203 0 l 1
 110 0 l 1
 165 206 l 1
 50 206 l 1
337 496 m 1
 279 284 l 1
 473 284 l 1
 531 496 l 1
 337 496 l 1
EndSplineSet
Layer: 5
SplineSet
40 198 m 5
 40 292 l 5
 181 292 l 5
 233 488 l 5
 100 488 l 5
 100 582 l 5
 259 582 l 5
 312 780 l 5
 424 780 l 5
 371 582 l 5
 543 582 l 5
 596 780 l 5
 708 780 l 5
 655 582 l 5
 770 582 l 5
 770 488 l 5
 629 488 l 5
 577 292 l 5
 710 292 l 5
 710 198 l 5
 551 198 l 5
 498 0 l 5
 386 0 l 5
 439 198 l 5
 267 198 l 5
 214 0 l 5
 102 0 l 5
 155 198 l 5
 40 198 l 5
345 488 m 5
 293 292 l 5
 465 292 l 5
 517 488 l 5
 345 488 l 5
EndSplineSet
Layer: 6
SplineSet
30 190 m 1
 30 300 l 1
 176 300 l 1
 224 480 l 1
 90 480 l 1
 90 590 l 1
 254 590 l 1
 305 780 l 1
 435 780 l 1
 384 590 l 1
 534 590 l 1
 585 780 l 1
 715 780 l 1
 664 590 l 1
 780 590 l 1
 780 480 l 1
 634 480 l 1
 586 300 l 1
 720 300 l 1
 720 190 l 1
 556 190 l 1
 505 0 l 1
 375 0 l 1
 426 190 l 1
 276 190 l 1
 225 0 l 1
 95 0 l 1
 146 190 l 1
 30 190 l 1
354 480 m 1
 306 300 l 1
 456 300 l 1
 504 480 l 1
 354 480 l 1
EndSplineSet
EndChar

StartChar: dollar
Encoding: 36 36 8
GlifName: dollar
Width: 660
VWidth: 0
Flags: W
HStem: -11 50<231.598 309 361 441.391> 601 21G<494 568> 741 50<233.365 309 361 419.015> 880 20G<309 361>
VStem: 75 69<119.47 178.609> 94 68<513.722 675.398> 309 52<-120 -9.10197 788.611 900> 499 69<605.391 665.857> 516 69<105.953 283.035>
LayerCount: 7
Back
SplineSet
514 588 m 5
 504 654 445 741 331 741 c 4
 218 741 147 674 147 574 c 4
 147 491 207 449 257 428 c 4
 304 409 373 381 418 367 c 4
 468 350 530 304 530 210 c 4
 530 109 460 39 331 39 c 4
 202 39 140 129 130 196 c 1029
EndSplineSet
Fore
SplineSet
45 191 m 1
 210 201 l 1
 219 142 270 105 331 105 c 0
 401 105 450 132 450 210 c 0
 450 278 395 299 375 306 c 0
 324 322 255 351 207 370 c 0
 137 399 62 464 62 574 c 0
 62 675 133 772 275 792 c 1
 275 900 l 1
 395 900 l 1
 395 791 l 1
 537 766 589 656 599 594 c 1
 434 582 l 1
 425 643 385 675 331 675 c 0
 284 675 227 650 227 574 c 0
 227 518 276 499 307 486 c 0
 355 467 421 441 461 428 c 0
 544 401 615 336 615 210 c 0
 615 109 544 10 395 -12 c 1
 395 -120 l 1
 275 -120 l 1
 275 -12 l 1
 116 10 55 123 45 191 c 1
EndSplineSet
PickledDataWithLists: "(dp0
Vcom.fontlab.hintData
p1
(dp2
Vhhints
p3
(lp4
(dp5
Vwidth
p6
L10L
sVposition
p7
L-127L
sa(dp8
g6
L10L
sg7
L46L
sa(dp9
g6
L10L
sg7
L192L
sa(dp10
g6
L10L
sg7
L584L
sa(dp11
g6
L10L
sg7
L812L
sa(dp12
g6
L10L
sg7
L916L
sasVvhints
p13
(lp14
(dp15
g6
L10L
sg7
L70L
sa(dp16
g6
L10L
sg7
L78L
sa(dp17
g6
L10L
sg7
L169L
sa(dp18
g6
L10L
sg7
L319L
sa(dp19
g6
L10L
sg7
L323L
sa(dp20
g6
L10L
sg7
L382L
sa(dp21
g6
L10L
sg7
L392L
sa(dp22
g6
L10L
sg7
L504L
sa(dp23
g6
L10L
sg7
L565L
sa(dp24
g6
L10L
sg7
L604L
sa(dp25
g6
L10L
sg7
L664L
sass."
Layer: 2
SplineSet
75 178 m 1xfa80
 144 183 l 1
 154 115 217 39 331 39 c 0
 449 39 516 97 516 196 c 0xfa80
 516 287 453 325 410 339 c 0
 358 355 282 387 230 407 c 0
 167 433 94 488 94 589 c 0
 94 698 173 783 309 791 c 1
 309 900 l 1
 361 900 l 1
 361 791 l 1
 496 778 558 675 568 606 c 1
 499 601 l 1
 489 669 431 741 331 741 c 0
 233 741 162 686 162 589 c 0xf7
 162 512 223 474 270 455 c 0
 322 435 395 406 443 391 c 0
 511 369 585 310 585 196 c 0
 585 87 508 -1 361 -11 c 1
 361 -120 l 1
 309 -120 l 1
 309 -11 l 1
 154 -2 86 105 75 178 c 1xfa80
EndSplineSet
Layer: 3
SplineSet
67 182 m 1xf5
 160 188 l 1
 170 122 230 56 331 56 c 0
 437 56 499 106 499 200 c 0xf5
 499 285 438 319 401 331 c 0
 349 347 275 378 224 398 c 0
 159 425 85 481 85 585 c 0
 85 691 162 780 300 792 c 1
 300 900 l 1
 369 900 l 1
 369 791 l 1
 507 775 565 671 575 603 c 1
 482 596 l 1
 472 662 419 724 331 724 c 0
 245 724 178 677 178 585 c 0xee
 178 513 236 481 279 463 c 0
 330 443 401 414 447 400 c 0
 519 376 592 317 592 200 c 0
 592 93 518 2 369 -11 c 1
 369 -120 l 1
 300 -120 l 1
 300 -12 l 1
 144 1 77 111 67 182 c 1xf5
EndSplineSet
Layer: 4
SplineSet
60 185 m 1xf5
 177 192 l 1
 187 128 243 72 331 72 c 0
 425 72 483 115 483 203 c 0xf5
 483 282 424 312 393 323 c 0
 342 339 269 368 219 388 c 0
 152 416 78 475 78 581 c 0
 78 686 152 778 292 792 c 1
 292 900 l 1
 378 900 l 1
 378 791 l 1
 517 771 573 666 583 600 c 1
 466 591 l 1
 456 656 408 708 331 708 c 0
 258 708 195 668 195 581 c 0xee
 195 514 249 487 288 471 c 0
 338 451 408 423 452 409 c 0
 528 384 600 323 600 203 c 0
 600 98 527 4 378 -12 c 1
 378 -120 l 1
 292 -120 l 1
 292 -12 l 1
 135 4 70 115 60 185 c 1xf5
EndSplineSet
Layer: 5
SplineSet
52 188 m 5
 193 196 l 5
 202 135 256 88 330 88 c 4
 412 88 466 123 466 206 c 4
 466 280 409 305 383 314 c 4
 332 330 261 360 212 379 c 4
 144 407 70 470 70 578 c 4
 70 681 142 775 283 792 c 5
 283 900 l 5
 386 900 l 5
 386 791 l 5
 526 768 581 661 591 597 c 5
 450 587 l 5
 441 650 396 692 330 692 c 4
 270 692 210 659 210 578 c 4
 210 517 262 492 297 478 c 4
 346 459 414 433 456 419 c 4
 535 393 607 329 607 206 c 4
 607 103 534 7 386 -12 c 5
 386 -120 l 5
 283 -120 l 5
 283 -12 l 5
 125 7 62 119 52 188 c 5
EndSplineSet
Layer: 6
SplineSet
45 191 m 1
 210 201 l 1
 219 142 270 105 331 105 c 0
 401 105 450 132 450 210 c 0
 450 278 395 299 375 306 c 0
 324 322 255 351 207 370 c 0
 137 399 62 464 62 574 c 0
 62 675 133 772 275 792 c 1
 275 900 l 1
 395 900 l 1
 395 791 l 1
 537 766 589 656 599 594 c 1
 434 582 l 1
 425 643 385 675 331 675 c 0
 284 675 227 650 227 574 c 0
 227 518 276 499 307 486 c 0
 355 467 421 441 461 428 c 0
 544 401 615 336 615 210 c 0
 615 109 544 10 395 -12 c 1
 395 -120 l 1
 275 -120 l 1
 275 -12 l 1
 116 10 55 123 45 191 c 1
EndSplineSet
EndChar

StartChar: percent
Encoding: 37 37 9
GlifName: percent
Width: 810
VWidth: 0
Flags: W
HStem: -9 35<562.037 643.963> 0 21G<105 167.227> 364 35<562.037 643.963> 381 35<166.037 247.963> 754 35<166.037 247.963> 760 20G<642.773 705>
VStem: 75 47<459.904 710.096> 292 47<459.904 710.096> 471 47<69.9038 320.096> 688 47<69.9038 320.096>
LayerCount: 7
Back
SplineSet
680 780 m 25
 130 0 l 1049
99 960 m 4
 172 960 198 882 198 795 c 6
 198 775 l 6
 198 688 172 610 99 610 c 4
 26 610 0 688 0 775 c 6
 0 795 l 6
 0 882 26 960 99 960 c 4
EndSplineSet
Fore
SplineSet
75 0 m 1x47c0
 75 8 l 1
 635 780 l 1
 735 780 l 1
 735 772 l 1
 175 0 l 1
 75 0 l 1x47c0
618 -11 m 0xa3c0
 491 -11 471 108 471 185 c 2
 471 204 l 2
 471 281 491 401 618 401 c 0
 745 401 765 281 765 204 c 2
 765 185 l 2
 765 108 745 -11 618 -11 c 0xa3c0
618 66 m 0
 639 66 665 95 665 185 c 2
 665 204 l 2
 665 294 639 324 618 324 c 0
 597 324 571 294 571 204 c 2
 571 185 l 2
 571 95 597 66 618 66 c 0
192 456 m 0x1bc0
 213 456 239 486 239 576 c 2
 239 595 l 2
 239 685 213 714 192 714 c 0
 171 714 145 685 145 595 c 2
 145 576 l 2
 145 486 171 456 192 456 c 0x1bc0
192 791 m 0
 319 791 339 672 339 595 c 2
 339 576 l 2
 339 499 319 379 192 379 c 0
 65 379 45 499 45 576 c 2
 45 595 l 2
 45 672 65 791 192 791 c 0
EndSplineSet
PickledDataWithLists: "(dp0
Vcom.fontlab.hintData
p1
(dp2
Vhhints
p3
(lp4
(dp5
Vwidth
p6
L10L
sVposition
p7
L-14L
sa(dp8
g6
L10L
sg7
L6L
sa(dp9
g6
L10L
sg7
L34L
sa(dp10
g6
L10L
sg7
L369L
sa(dp11
g6
L10L
sg7
L374L
sa(dp12
g6
L10L
sg7
L416L
sa(dp13
g6
L10L
sg7
L422L
sa(dp14
g6
L10L
sg7
L757L
sa(dp15
g6
L10L
sg7
L784L
sa(dp16
g6
L10L
sg7
L804L
sasVvhints
p17
(lp18
(dp19
g6
L10L
sg7
L50L
sa(dp20
g6
L10L
sg7
L70L
sa(dp21
g6
L10L
sg7
L120L
sa(dp22
g6
L10L
sg7
L246L
sa(dp23
g6
L10L
sg7
L290L
sa(dp24
g6
L10L
sg7
L320L
sa(dp25
g6
L10L
sg7
L360L
sa(dp26
g6
L10L
sg7
L410L
sa(dp27
g6
L10L
sg7
L480L
sa(dp28
g6
L10L
sg7
L606L
sa(dp29
g6
L10L
sg7
L650L
sa(dp30
g6
L10L
sg7
L680L
sa(dp31
g6
L10L
sg7
L699L
sa(dp32
g6
L10L
sg7
L720L
sass."
Layer: 2
SplineSet
735 203 m 2xa3c0
 735 187 l 2
 735 97 709 -9 603 -9 c 0
 497 -9 471 97 471 187 c 2
 471 203 l 2
 471 293 497 399 603 399 c 0
 709 399 735 293 735 203 c 2xa3c0
75 577 m 2
 75 593 l 2
 75 683 101 789 207 789 c 0
 313 789 339 683 339 593 c 2
 339 577 l 2
 339 487 313 381 207 381 c 0x1bc0
 101 381 75 487 75 577 c 2
105 0 m 1x47c0
 105 4 l 1
 657 780 l 1
 705 780 l 1
 705 776 l 1
 153 0 l 1
 105 0 l 1x47c0
603 26 m 0xa3c0
 657 26 688 89 688 187 c 2
 688 203 l 2
 688 301 657 364 603 364 c 0
 549 364 518 301 518 203 c 2
 518 187 l 2
 518 89 549 26 603 26 c 0xa3c0
207 416 m 0x1bc0
 261 416 292 479 292 577 c 2
 292 593 l 2
 292 691 261 754 207 754 c 0
 153 754 122 691 122 593 c 2
 122 577 l 2
 122 479 153 416 207 416 c 0x1bc0
EndSplineSet
Layer: 3
SplineSet
742 204 m 2xa3c0
 742 187 l 2
 742 100 718 -9 607 -9 c 0
 496 -9 472 100 472 187 c 2
 472 204 l 2
 472 291 496 400 607 400 c 0
 718 400 742 291 742 204 c 2xa3c0
67 576 m 2
 67 593 l 2
 67 680 91 789 202 789 c 0
 313 789 337 680 337 593 c 2
 337 576 l 2
 337 489 313 380 202 380 c 0x1bc0
 91 380 67 489 67 576 c 2
97 0 m 1x47c0
 97 5 l 1
 651 780 l 1
 712 780 l 1
 712 775 l 1
 158 0 l 1
 97 0 l 1x47c0
607 35 m 0xa3c0
 653 35 683 91 683 187 c 2
 683 204 l 2
 683 300 653 357 607 357 c 0
 561 357 531 300 531 204 c 2
 531 187 l 2
 531 91 561 35 607 35 c 0xa3c0
202 423 m 0x1bc0
 248 423 278 480 278 576 c 2
 278 593 l 2
 278 689 248 745 202 745 c 0
 156 745 126 689 126 593 c 2
 126 576 l 2
 126 480 156 423 202 423 c 0x1bc0
EndSplineSet
Layer: 4
SplineSet
750 204 m 2xa3c0
 750 186 l 2
 750 102 727 -10 611 -10 c 0
 495 -10 472 102 472 186 c 2
 472 204 l 2
 472 288 495 400 611 400 c 0
 727 400 750 288 750 204 c 2xa3c0
60 576 m 2
 60 594 l 2
 60 678 83 790 199 790 c 0
 315 790 338 678 338 594 c 2
 338 576 l 2
 338 492 315 380 199 380 c 0x1bc0
 83 380 60 492 60 576 c 2
90 0 m 1x47c0
 90 6 l 1
 646 780 l 1
 720 780 l 1
 720 774 l 1
 164 0 l 1
 90 0 l 1x47c0
611 42 m 0xa3c0
 649 42 679 90 679 186 c 2
 679 204 l 2
 679 300 649 348 611 348 c 0
 573 348 543 300 543 204 c 2
 543 186 l 2
 543 90 573 42 611 42 c 0xa3c0
199 432 m 0x1bc0
 237 432 267 480 267 576 c 2
 267 594 l 2
 267 690 237 738 199 738 c 0
 161 738 131 690 131 594 c 2
 131 576 l 2
 131 480 161 432 199 432 c 0x1bc0
EndSplineSet
Layer: 5
SplineSet
758 206 m 6xa3c0
 758 186 l 6
 758 106 737 -10 615 -10 c 4
 493 -10 472 106 472 186 c 6
 472 206 l 6
 472 286 493 401 615 401 c 4
 737 401 758 286 758 206 c 6xa3c0
53 574 m 6
 53 594 l 6
 53 674 74 790 196 790 c 4
 318 790 339 674 339 594 c 6
 339 574 l 6
 339 494 318 379 196 379 c 4x1bc0
 74 379 53 494 53 574 c 6
83 0 m 5x47c0
 83 7 l 5
 641 780 l 5
 728 780 l 5
 728 773 l 5
 170 0 l 5
 83 0 l 5x47c0
615 51 m 4xa3c0
 645 51 675 92 675 186 c 6
 675 206 l 6
 675 300 645 340 615 340 c 4
 585 340 555 300 555 206 c 6
 555 186 l 6
 555 92 585 51 615 51 c 4xa3c0
196 440 m 4x1bc0
 226 440 256 480 256 574 c 6
 256 594 l 6
 256 688 226 729 196 729 c 4
 166 729 136 688 136 594 c 6
 136 574 l 6
 136 480 166 440 196 440 c 4x1bc0
EndSplineSet
Layer: 6
SplineSet
75 0 m 1x47c0
 75 8 l 1
 635 780 l 1
 735 780 l 1
 735 772 l 1
 175 0 l 1
 75 0 l 1x47c0
618 -11 m 0xa3c0
 491 -11 471 108 471 185 c 2
 471 204 l 2
 471 281 491 401 618 401 c 0
 745 401 765 281 765 204 c 2
 765 185 l 2
 765 108 745 -11 618 -11 c 0xa3c0
618 66 m 0
 639 66 665 95 665 185 c 2
 665 204 l 2
 665 294 639 324 618 324 c 0
 597 324 571 294 571 204 c 2
 571 185 l 2
 571 95 597 66 618 66 c 0
192 456 m 0x1bc0
 213 456 239 486 239 576 c 2
 239 595 l 2
 239 685 213 714 192 714 c 0
 171 714 145 685 145 595 c 2
 145 576 l 2
 145 486 171 456 192 456 c 0x1bc0
192 791 m 0
 319 791 339 672 339 595 c 2
 339 576 l 2
 339 499 319 379 192 379 c 0
 65 379 45 499 45 576 c 2
 45 595 l 2
 45 672 65 791 192 791 c 0
EndSplineSet
EndChar

StartChar: ampersand
Encoding: 38 38 10
GlifName: ampersand
Width: 810
VWidth: 0
Flags: W
HStem: -17 53<203.151 455.133> 0 21G<695 775> 750 47<302.264 433.656>
VStem: 80 68<87.5299 243.455> 203 62<532.583 714.207> 462 60<558.715 724.147> 673 60<283.696 392.26>
LayerCount: 7
Back
SplineSet
646 390 m 5
 623 225 539 40 315 40 c 4
 191 40 125 99 125 180 c 4
 125 274 241 348 355 436 c 4
 501 547 522 740 364 740 c 4
 209 740 223 529 328 408 c 4
 410 314 563 147 675 40 c 1029
EndSplineSet
Fore
SplineSet
805 8 m 2xae
 805 0 l 1
 620 0 l 1x6e
 620 0 596 26 561 64 c 1
 491 12 405 -21 310 -21 c 0
 131 -21 50 75 50 180 c 0xb6
 50 289 139 366 236 428 c 1
 196 484 160 552 160 615 c 0
 160 736 249 801 360 801 c 0
 496 801 555 715 555 638 c 0
 555 554 506 472 421 412 c 1
 458 373 512 315 568 256 c 1
 592 304 606 360 610 420 c 1
 750 400 l 1
 744 316 710 232 658 161 c 1
 739 77 805 8 805 8 c 2xae
310 338 m 1
 236 279 215 225 215 180 c 0
 215 123 254 101 310 101 c 0xb6
 380 101 436 119 480 151 c 1
 421 215 356 287 310 338 c 1
360 695 m 0
 319 695 305 655 305 611 c 0x2e
 305 577 321 538 346 501 c 1
 395 547 415 602 415 638 c 0
 415 679 389 695 360 695 c 0
EndSplineSet
PickledDataWithLists: "(dp0
Vcom.fontlab.hintData
p1
(dp2
Vhhints
p3
(lp4
(dp5
Vwidth
p6
L10L
sVposition
p7
L-25L
sa(dp8
g6
L10L
sg7
L39L
sa(dp9
g6
L10L
sg7
L389L
sa(dp10
g6
L10L
sg7
L734L
sa(dp11
g6
L10L
sg7
L796L
sasVvhints
p12
(lp13
(dp14
g6
L10L
sg7
L66L
sa(dp15
g6
L10L
sg7
L164L
sa(dp16
g6
L10L
sg7
L202L
sa(dp17
g6
L10L
sg7
L296L
sa(dp18
g6
L10L
sg7
L450L
sa(dp19
g6
L10L
sg7
L538L
sa(dp20
g6
L10L
sg7
L695L
sa(dp21
g6
L10L
sg7
L749L
sass."
Layer: 2
SplineSet
637 145 m 1xbe
 714 66 775 4 775 4 c 2
 775 0 l 1
 695 0 l 1x7e
 695 0 655 42 599 100 c 1
 531 30 437 -17 317 -17 c 0
 161 -17 80 62 80 161 c 0
 80 280 197 361 293 424 c 1
 244 484 203 560 203 628 c 0
 203 732 268 796 367 797 c 0
 474 797 522 727 522 656 c 0
 522 552 461 481 373 419 c 1
 431 358 520 266 599 184 c 1
 640 247 664 324 673 400 c 1
 733 391 l 1
 723 306 691 218 637 145 c 1xbe
563 137 m 1
 485 219 389 319 326 387 c 1
 231 322 148 250 148 161 c 0
 148 84 208 36 317 36 c 0xbe
 425 36 506 76 563 137 c 1
367 750 m 0
 295 750 265 693 265 627 c 0
 265 573 297 508 340 455 c 1
 415 510 462 574 462 656 c 0
 462 711 429 750 367 750 c 0
EndSplineSet
Layer: 3
SplineSet
642 149 m 1xbe
 720 68 782 5 782 5 c 2
 782 0 l 1
 676 0 l 1x7e
 676 0 641 37 590 90 c 1
 520 25 427 -18 314 -18 c 0
 152 -18 72 66 72 166 c 0
 72 282 181 362 278 425 c 1
 232 484 192 558 192 625 c 0
 192 733 262 798 364 798 c 0
 478 798 530 723 530 651 c 0
 530 552 472 479 384 418 c 1
 436 363 516 279 591 202 c 1
 628 261 649 333 657 405 c 1
 737 393 l 1
 728 308 696 221 642 149 c 1xbe
542 140 m 1
 468 218 379 312 321 376 c 1
 229 312 164 243 164 166 c 0
 164 94 218 52 314 52 c 0xbe
 413 52 488 86 542 140 c 1
364 736 m 0
 300 736 274 683 274 623 c 0
 274 575 303 517 341 467 c 1
 410 519 450 582 450 651 c 0
 450 703 418 736 364 736 c 0
EndSplineSet
Layer: 4
SplineSet
648 153 m 1xae
 727 71 790 6 790 6 c 2
 790 0 l 1
 657 0 l 1x6e
 657 0 626 33 581 81 c 1
 511 20 420 -19 313 -19 c 0
 145 -19 65 69 65 171 c 0xb6
 65 284 167 364 264 426 c 1
 220 484 182 556 182 622 c 0
 182 735 258 799 363 799 c 0
 484 799 538 721 538 647 c 0
 538 553 483 476 396 415 c 1
 443 365 515 291 584 219 c 1
 617 275 635 341 642 410 c 1
 742 396 l 1
 734 311 702 225 648 153 c 1xae
523 143 m 1
 454 217 372 304 318 364 c 1
 230 301 182 237 182 171 c 0
 182 104 230 68 313 68 c 0xb6
 402 68 471 97 523 143 c 1
363 722 m 0
 307 722 285 674 285 619 c 0x2e
 285 576 309 524 343 478 c 1
 406 528 438 589 438 647 c 0
 438 695 408 722 363 722 c 0
EndSplineSet
Layer: 5
SplineSet
653 157 m 5xae
 733 74 798 7 798 7 c 5
 798 0 l 5
 639 0 l 5x6e
 639 0 612 29 572 72 c 5
 502 15 413 -20 312 -20 c 4
 139 -20 58 71 58 175 c 4xb6
 58 286 154 365 251 427 c 5
 209 484 171 554 171 618 c 4
 171 735 254 800 362 800 c 4
 491 800 547 719 547 643 c 4
 547 554 495 474 409 413 c 5
 451 369 513 304 576 238 c 5
 604 290 621 351 626 415 c 5
 746 398 l 5
 739 314 706 228 653 157 c 5xae
502 147 m 5
 438 216 365 296 315 351 c 5
 233 290 199 230 199 175 c 4
 199 113 243 85 312 85 c 4xb6
 391 85 454 108 502 147 c 5
362 709 m 4
 313 709 296 665 296 615 c 4x2e
 296 576 316 531 345 489 c 5
 401 537 427 596 427 643 c 4
 427 687 399 709 362 709 c 4
EndSplineSet
Layer: 6
SplineSet
805 8 m 2xae
 805 0 l 1
 620 0 l 1x6e
 620 0 596 26 561 64 c 1
 491 12 405 -21 310 -21 c 0
 131 -21 50 75 50 180 c 0xb6
 50 289 139 366 236 428 c 1
 196 484 160 552 160 615 c 0
 160 736 249 801 360 801 c 0
 496 801 555 715 555 638 c 0
 555 554 506 472 421 412 c 1
 458 373 512 315 568 256 c 1
 592 304 606 360 610 420 c 1
 750 400 l 1
 744 316 710 232 658 161 c 1
 739 77 805 8 805 8 c 2xae
310 338 m 1
 236 279 215 225 215 180 c 0
 215 123 254 101 310 101 c 0xb6
 380 101 436 119 480 151 c 1
 421 215 356 287 310 338 c 1
360 695 m 0
 319 695 305 655 305 611 c 0x2e
 305 577 321 538 346 501 c 1
 395 547 415 602 415 638 c 0
 415 679 389 695 360 695 c 0
EndSplineSet
EndChar

StartChar: quotesingle
Encoding: 39 39 11
GlifName: quotesingle
Width: 330
VWidth: 0
Flags: W
HStem: 540 360<142 187>
VStem: 131 68<648 900> 142 45<540 792>
LayerCount: 7
Fore
SplineSet
240 900 m 1
 215 540 l 1
 115 540 l 1
 90 900 l 1
 240 900 l 1
EndSplineSet
PickledDataWithLists: "(dp0
Vcom.fontlab.hintData
p1
(dp2
Vhhints
p3
(lp4
(dp5
Vwidth
p6
L10L
sVposition
p7
L544L
sa(dp8
g6
L10L
sg7
L832L
sasVvhints
p9
(lp10
(dp11
g6
L10L
sg7
L110L
sa(dp12
g6
L10L
sg7
L209L
sass."
Layer: 2
SplineSet
131 900 m 1xc0
 199 900 l 1xc0
 187 540 l 1
 142 540 l 1xa0
 131 900 l 1xc0
EndSplineSet
Layer: 3
SplineSet
121 900 m 1xc0
 209 900 l 1xc0
 194 540 l 1
 136 540 l 1xa0
 121 900 l 1xc0
EndSplineSet
Layer: 4
SplineSet
110 900 m 1
 220 900 l 1
 202 540 l 1
 129 540 l 1
 110 900 l 1
EndSplineSet
Layer: 5
SplineSet
100 900 m 1
 230 900 l 1
 208 540 l 5
 121 540 l 5
 100 900 l 1
EndSplineSet
Layer: 6
SplineSet
240 900 m 1
 215 540 l 1
 115 540 l 1
 90 900 l 1
 240 900 l 1
EndSplineSet
EndChar

StartChar: parenleft
Encoding: 40 40 12
GlifName: parenleft
Width: 390
VWidth: 0
Flags: W
HStem: 887 20G<204 304>
VStem: 80 63<170.649 609.351>
LayerCount: 7
Back
SplineSet
260 900 m 4
 158 776 101 610 100 390 c 1028
EndSplineSet
Fore
SplineSet
50 390 m 0
 50 612 129 786 235 915 c 1
 335 875 l 1
 245 756 195 598 195 390 c 0
 195 182 245 24 335 -95 c 1
 235 -135 l 1
 129 -6 50 168 50 390 c 0
EndSplineSet
PickledDataWithLists: "(dp0
Vcom.fontlab.hintData
p1
(dp2
Vhhints
p3
(lp4
(dp5
Vwidth
p6
L10L
sVposition
p7
L-112L
sa(dp8
g6
L10L
sg7
L882L
sasVvhints
p9
(lp10
(dp11
g6
L10L
sg7
L55L
sa(dp12
g6
L10L
sg7
L135L
sa(dp13
g6
L10L
sg7
L270L
sass."
Layer: 2
SplineSet
80 390 m 0
 80 611 148 783 260 907 c 1
 304 890 l 1
 199 772 143 600 143 390 c 0
 143 180 199 8 304 -110 c 1
 260 -127 l 1
 148 -3 80 169 80 390 c 0
EndSplineSet
Layer: 3
SplineSet
72 390 m 0
 72 611 144 784 254 909 c 1
 312 886 l 1
 211 768 156 600 156 390 c 0
 156 180 211 12 312 -106 c 1
 254 -129 l 1
 144 -4 72 169 72 390 c 0
EndSplineSet
Layer: 4
SplineSet
65 390 m 4
 65 611 140 785 249 911 c 1
 321 882 l 1
 224 764 169 599 169 390 c 4
 169 181 224 16 321 -102 c 1
 249 -131 l 1
 140 -5 65 169 65 390 c 4
EndSplineSet
Layer: 5
SplineSet
57 390 m 4
 57 612 133 785 241 913 c 1
 327 879 l 1
 233 760 181 598 181 390 c 4
 181 182 233 20 327 -99 c 1
 241 -133 l 1
 133 -5 57 168 57 390 c 4
EndSplineSet
Layer: 6
SplineSet
50 390 m 0
 50 612 129 786 235 915 c 1
 335 875 l 1
 245 756 195 598 195 390 c 0
 195 182 245 24 335 -95 c 1
 235 -135 l 1
 129 -6 50 168 50 390 c 0
EndSplineSet
EndChar

StartChar: parenright
Encoding: 41 41 13
GlifName: parenright
Width: 390
VWidth: 0
Flags: W
HStem: -127 20G<86 186>
VStem: 247 63<170.649 609.351>
LayerCount: 7
Fore
SplineSet
340 390 m 0
 340 168 261 -6 155 -135 c 1
 55 -95 l 1
 145 24 195 182 195 390 c 0
 195 598 145 756 55 875 c 1
 155 915 l 1
 261 786 340 612 340 390 c 0
EndSplineSet
PickledDataWithLists: "(dp0
Vcom.fontlab.hintData
p1
(dp2
Vhhints
p3
(lp4
(dp5
Vwidth
p6
L10L
sVposition
p7
L-112L
sa(dp8
g6
L10L
sg7
L882L
sasVvhints
p9
(lp10
(dp11
g6
L10L
sg7
L79L
sa(dp12
g6
L10L
sg7
L215L
sa(dp13
g6
L10L
sg7
L295L
sass."
Layer: 2
Refer: 12 40 S -1 0 0 -1 390 780 2
Layer: 3
Refer: 12 40 S -1 0 0 -1 390 780 2
Layer: 4
Refer: 12 40 S -1 0 0 -1 390 780 2
Layer: 5
Refer: 12 40 S -1 0 0 -1 390 780 2
Layer: 6
Refer: 12 40 S -1 0 0 -1 390 780 2
EndChar

StartChar: asterisk
Encoding: 42 42 14
GlifName: asterisk
Width: 570
VWidth: 0
Flags: W
HStem: 880 20G<255 315>
LayerCount: 7
Fore
SplineSet
35 668 m 1
 78 801 l 1
 245 715 l 1
 215 900 l 1
 355 900 l 1
 325 715 l 1
 492 801 l 1
 535 668 l 1
 350 639 l 1
 483 507 l 1
 370 425 l 1
 285 592 l 1
 200 425 l 1
 87 507 l 1
 220 639 l 1
 35 668 l 1
EndSplineSet
PickledDataWithLists: "(dp0
Vcom.fontlab.hintData
p1
(dp2
Vhhints
p3
(lp4
(dp5
Vwidth
p6
L10L
sVposition
p7
L392L
sa(dp8
g6
L10L
sg7
L488L
sa(dp9
g6
L10L
sg7
L495L
sa(dp10
g6
L10L
sg7
L735L
sa(dp11
g6
L10L
sg7
L742L
sa(dp12
g6
L10L
sg7
L839L
sasVvhints
p13
(lp14
(dp15
g6
L10L
sg7
L84L
sa(dp16
g6
L10L
sg7
L89L
sa(dp17
g6
L10L
sg7
L256L
sa(dp18
g6
L10L
sg7
L265L
sa(dp19
g6
L10L
sg7
L272L
sa(dp20
g6
L10L
sg7
L326L
sa(dp21
g6
L10L
sg7
L335L
sa(dp22
g6
L10L
sg7
L501L
sa(dp23
g6
L10L
sg7
L506L
sass."
Layer: 2
SplineSet
57 713 m 1
 76 770 l 1
 267 695 l 1
 255 900 l 1
 315 900 l 1
 303 695 l 1
 495 770 l 1
 513 713 l 1
 315 660 l 1
 445 502 l 1
 397 466 l 1
 285 639 l 1
 174 466 l 1
 125 502 l 1
 256 660 l 1
 57 713 l 1
EndSplineSet
Layer: 3
SplineSet
52 702 m 1
 76 778 l 1
 262 700 l 1
 246 900 l 1
 326 900 l 1
 309 700 l 1
 494 778 l 1
 519 702 l 1
 324 655 l 1
 455 503 l 1
 390 456 l 1
 286 628 l 1
 180 456 l 1
 116 503 l 1
 247 655 l 1
 52 702 l 1
EndSplineSet
Layer: 4
SplineSet
46 690 m 1
 76 785 l 1
 256 705 l 1
 235 900 l 1
 335 900 l 1
 314 705 l 1
 493 785 l 1
 524 690 l 1
 332 650 l 1
 464 504 l 1
 383 446 l 1
 285 616 l 1
 186 446 l 1
 106 504 l 1
 237 650 l 1
 46 690 l 1
EndSplineSet
Layer: 5
SplineSet
40 679 m 1
 77 793 l 1
 250 710 l 1
 225 900 l 5
 345 900 l 5
 319 710 l 1
 493 793 l 1
 529 679 l 1
 341 644 l 1
 473 506 l 1
 377 435 l 1
 285 604 l 1
 193 435 l 1
 96 506 l 1
 229 644 l 1
 40 679 l 1
EndSplineSet
Layer: 6
SplineSet
35 668 m 1
 78 801 l 1
 245 715 l 1
 215 900 l 1
 355 900 l 1
 325 715 l 1
 492 801 l 1
 535 668 l 1
 350 639 l 1
 483 507 l 1
 370 425 l 5
 285 592 l 1
 200 425 l 1
 87 507 l 1
 220 639 l 1
 35 668 l 1
EndSplineSet
EndChar

StartChar: plus
Encoding: 43 43 15
GlifName: plus
Width: 600
VWidth: 0
Flags: W
HStem: 336 48<105 269 332 495>
VStem: 269 63<170 336 384 550>
LayerCount: 7
Fore
SplineSet
75 415 m 17
 225 415 l 1
 225 570 l 1
 375 570 l 1
 375 415 l 1
 525 415 l 9
 525 305 l 17
 375 305 l 1
 375 150 l 1
 225 150 l 1
 225 305 l 1
 75 305 l 9
 75 415 l 17
EndSplineSet
PickledDataWithLists: "(dp0
Vcom.fontlab.hintData
p1
(dp2
Vhhints
p3
(lp4
(dp5
Vwidth
p6
L10L
sVposition
p7
L145L
sa(dp8
g6
L10L
sg7
L302L
sa(dp9
g6
L10L
sg7
L362L
sa(dp10
g6
L10L
sg7
L370L
sa(dp11
g6
L10L
sg7
L525L
sasVvhints
p12
(lp13
(dp14
g6
L10L
sg7
L80L
sa(dp15
g6
L10L
sg7
L250L
sa(dp16
g6
L10L
sg7
L259L
sa(dp17
g6
L10L
sg7
L340L
sa(dp18
g6
L10L
sg7
L510L
sass."
Layer: 2
SplineSet
105 336 m 1
 105 384 l 1
 269 384 l 1
 269 550 l 1
 332 550 l 1
 332 384 l 1
 495 384 l 1
 495 336 l 1
 332 336 l 1
 332 170 l 1
 269 170 l 1
 269 336 l 1
 105 336 l 1
EndSplineSet
Layer: 3
SplineSet
97 328 m 1
 97 392 l 1
 257 392 l 1
 257 555 l 1
 343 555 l 1
 343 392 l 1
 503 392 l 1
 503 328 l 1
 343 328 l 1
 343 165 l 1
 257 165 l 1
 257 328 l 1
 97 328 l 1
EndSplineSet
Layer: 4
SplineSet
90 320 m 1
 90 400 l 1
 246 400 l 1
 246 560 l 1
 353 560 l 1
 353 400 l 1
 510 400 l 1
 510 320 l 1
 353 320 l 1
 353 160 l 1
 246 160 l 1
 246 320 l 1
 90 320 l 1
EndSplineSet
Layer: 5
SplineSet
82 313 m 1
 82 407 l 1
 236 407 l 1
 236 565 l 1
 365 565 l 5
 365 407 l 5
 518 407 l 5
 518 313 l 5
 365 313 l 5
 365 155 l 5
 236 155 l 1
 236 313 l 1
 82 313 l 1
EndSplineSet
Layer: 6
SplineSet
75 415 m 17
 225 415 l 1
 225 570 l 1
 375 570 l 1
 375 415 l 1
 525 415 l 9
 525 305 l 17
 375 305 l 1
 375 150 l 1
 225 150 l 1
 225 305 l 1
 75 305 l 9
 75 415 l 17
EndSplineSet
EndChar

StartChar: comma
Encoding: 44 44 16
GlifName: comma
Width: 330
VWidth: 0
Flags: W
HStem: -2 123<111.287 195.231>
VStem: 100 145<9.98822 98.8333>
LayerCount: 7
Back
SplineSet
159 135 m 4
 203 135 235 103 235 45 c 4
 235 -63 161 -139 90 -180 c 1028
EndSplineSet
Fore
SplineSet
70 78 m 0
 70 131 105 170 165 170 c 0
 244 170 275 105 275 45 c 0
 275 -78 191 -166 118 -210 c 1
 70 -146 l 1
 114 -119 152 -74 165 -6 c 1
 163 -6 162 -6 160 -6 c 0
 109 -6 70 26 70 78 c 0
EndSplineSet
PickledDataWithLists: "(dp0
Vcom.fontlab.hintData
p1
(dp2
Vhhints
p3
(lp4
(dp5
Vwidth
p6
L10L
sVposition
p7
L-182L
sa(dp8
g6
L10L
sg7
L48L
sa(dp9
g6
L10L
sg7
L117L
sasVvhints
p10
(lp11
(dp12
g6
L10L
sg7
L61L
sa(dp13
g6
L10L
sg7
L170L
sa(dp14
g6
L10L
sg7
L251L
sass."
Layer: 2
SplineSet
100 57 m 0
 100 94 126 121 165 121 c 0
 221 121 245 74 245 19 c 0
 245 -78 183 -147 122 -190 c 1
 100 -160 l 1
 150 -124 193 -70 197 6 c 1
 187 1 175 -2 163 -2 c 0
 127 -2 100 20 100 57 c 0
EndSplineSet
Layer: 3
SplineSet
92 63 m 0
 92 104 120 133 164 133 c 0
 226 133 252 81 252 25 c 0
 252 -79 184 -152 120 -195 c 1
 92 -156 l 1
 141 -123 182 -72 189 1 c 1
 181 -2 172 -3 162 -3 c 0
 122 -3 92 23 92 63 c 0
EndSplineSet
Layer: 4
SplineSet
85 68 m 0
 85 113 116 146 165 146 c 0
 233 146 260 89 260 32 c 0
 260 -78 187 -157 120 -200 c 1
 85 -153 l 1
 132 -123 172 -73 182 -2 c 1
 176 -3 169 -4 162 -4 c 0
 119 -4 85 24 85 68 c 0
EndSplineSet
Layer: 5
SplineSet
77 73 m 4
 77 122 110 158 165 158 c 4
 238 158 267 98 267 39 c 4
 267 -77 189 -161 119 -205 c 5
 77 -149 l 5
 122 -121 161 -73 173 -4 c 5
 169 -4 164 -5 160 -5 c 4
 113 -5 77 25 77 73 c 4
EndSplineSet
Layer: 6
SplineSet
70 78 m 0
 70 131 105 170 165 170 c 0
 244 170 275 105 275 45 c 0
 275 -78 191 -166 118 -210 c 1
 70 -146 l 1
 114 -119 152 -74 165 -6 c 1
 163 -6 162 -6 160 -6 c 0
 109 -6 70 26 70 78 c 0
EndSplineSet
EndChar

StartChar: hyphen
Encoding: 45 45 17
GlifName: hyphen
Width: 600
VWidth: 0
Flags: W
HStem: 334 52<105 495>
LayerCount: 7
Fore
SplineSet
75 420 m 25
 525 420 l 25
 525 300 l 25
 75 300 l 25
 75 420 l 25
EndSplineSet
PickledDataWithLists: "(dp0
Vcom.fontlab.hintData
p1
(dp2
Vhhints
p3
(lp4
(dp5
Vwidth
p6
L10L
sVposition
p7
L301L
sa(dp8
g6
L10L
sg7
L363L
sa(dp9
g6
L10L
sg7
L371L
sasVvhints
p10
(lp11
(dp12
g6
L10L
sg7
L75L
sa(dp13
g6
L10L
sg7
L514L
sass."
Layer: 2
SplineSet
105 386 m 1
 495 386 l 1
 495 334 l 1
 105 334 l 1
 105 386 l 1
EndSplineSet
Layer: 3
SplineSet
97 395 m 1
 503 395 l 1
 503 325 l 1
 97 325 l 1
 97 395 l 1
EndSplineSet
Layer: 4
SplineSet
90 403 m 1
 510 403 l 1
 510 317 l 1
 90 317 l 1
 90 403 l 1
EndSplineSet
Layer: 5
SplineSet
82 412 m 5
 518 412 l 5
 518 308 l 5
 82 308 l 5
 82 412 l 5
EndSplineSet
Layer: 6
SplineSet
75 420 m 25
 525 420 l 25
 525 300 l 25
 75 300 l 25
 75 420 l 25
EndSplineSet
EndChar

StartChar: period
Encoding: 46 46 18
GlifName: period
Width: 330
VWidth: 0
Flags: W
HStem: -2 122<110.811 219.189>
VStem: 100 130<9.14529 108.855>
LayerCount: 7
Fore
SplineSet
70 82 m 0
 70 136 111 170 165 170 c 0
 219 170 260 136 260 82 c 0
 260 28 219 -6 165 -6 c 0
 111 -6 70 28 70 82 c 0
EndSplineSet
PickledDataWithLists: "(dp0
Vcom.fontlab.hintData
p1
(dp2
Vhhints
p3
(lp4
(dp5
Vwidth
p6
L10L
sVposition
p7
L-5L
sa(dp8
g6
L10L
sg7
L122L
sasVvhints
p9
(lp10
(dp11
g6
L10L
sg7
L81L
sa(dp12
g6
L10L
sg7
L239L
sass."
Layer: 2
SplineSet
165 120 m 0
 202 120 230 96 230 59 c 0
 230 22 202 -2 165 -2 c 0
 128 -2 100 22 100 59 c 0
 100 96 128 120 165 120 c 0
EndSplineSet
Layer: 3
SplineSet
165 133 m 0
 206 133 237 107 237 65 c 0
 237 23 206 -3 165 -3 c 0
 124 -3 93 23 93 65 c 0
 93 107 124 133 165 133 c 0
EndSplineSet
Layer: 4
SplineSet
165 144 m 0
 210 144 245 116 245 70 c 0
 245 24 210 -4 165 -4 c 0
 120 -4 85 24 85 70 c 0
 85 116 120 144 165 144 c 0
EndSplineSet
Layer: 5
SplineSet
165 157 m 4
 215 157 253 126 253 76 c 4
 253 26 215 -5 165 -5 c 4
 115 -5 77 26 77 76 c 4
 77 126 115 157 165 157 c 4
EndSplineSet
Layer: 6
SplineSet
70 82 m 0
 70 136 111 170 165 170 c 0
 219 170 260 136 260 82 c 0
 260 28 219 -6 165 -6 c 0
 111 -6 70 28 70 82 c 0
EndSplineSet
EndChar

StartChar: slash
Encoding: 47 47 19
GlifName: slash
Width: 510
VWidth: 0
Flags: W
HStem: 0 21G<60 128.505> 760 20G<380.521 450>
LayerCount: 7
Back
SplineSet
75 0 m 29
 405 780 l 1053
EndSplineSet
Fore
SplineSet
165 0 m 1
 20 0 l 1
 20 8 l 1
 345 780 l 1
 490 780 l 1
 490 772 l 1
 165 0 l 1
EndSplineSet
PickledDataWithLists: "(dp0
Vcom.fontlab.hintData
p1
(dp2
Vhhints
p3
(lp4
(dp5
Vwidth
p6
L10L
sVposition
p7
L-29L
sa(dp8
g6
L10L
sg7
L818L
sasVvhints
p9
(lp10
(dp11
g6
L10L
sg7
L41L
sa(dp12
g6
L10L
sg7
L429L
sass."
Layer: 2
SplineSet
60 0 m 1
 60 4 l 1
 389 780 l 1
 450 780 l 1
 450 776 l 1
 120 0 l 1
 60 0 l 1
EndSplineSet
Layer: 3
SplineSet
50 0 m 1
 50 5 l 1
 379 780 l 1
 460 780 l 1
 460 775 l 1
 132 0 l 1
 50 0 l 1
EndSplineSet
Layer: 4
SplineSet
40 0 m 1
 40 6 l 1
 368 780 l 1
 470 780 l 1
 470 774 l 1
 143 0 l 1
 40 0 l 1
EndSplineSet
Layer: 5
SplineSet
30 0 m 5
 30 7 l 5
 356 780 l 5
 480 780 l 5
 480 773 l 5
 154 0 l 5
 30 0 l 5
EndSplineSet
Layer: 6
SplineSet
165 0 m 1
 20 0 l 1
 20 8 l 1
 345 780 l 1
 490 780 l 1
 490 772 l 1
 165 0 l 1
EndSplineSet
EndChar

StartChar: zero
Encoding: 48 48 20
GlifName: zero
Width: 660
VWidth: 0
Flags: W
HStem: -17 53<249.857 408.143> 744 53<249.857 408.143>
VStem: 74 70<185.116 594.884> 514 70<185.116 594.884>
LayerCount: 7
Back
SplineSet
330 741 m 4
 475 741 527 584 527 410 c 6
 527 370 l 6
 527 196 475 39 330 39 c 4
 185 39 133 196 133 370 c 6
 133 410 l 6
 133 584 185 741 330 741 c 4
EndSplineSet
Fore
SplineSet
45 370 m 2
 45 410 l 2
 45 570 87 801 330 801 c 0
 573 801 615 570 615 410 c 2
 615 370 l 2
 615 210 573 -21 330 -21 c 0
 87 -21 45 210 45 370 c 2
330 101 m 0
 390 101 449 182 449 370 c 2
 449 410 l 2
 449 598 390 679 330 679 c 0
 270 679 211 598 211 410 c 2
 211 370 l 2
 211 182 270 101 330 101 c 0
EndSplineSet
PickledDataWithLists: "(dp0
Vcom.fontlab.hintData
p1
(dp2
Vhhints
p3
(lp4
(dp5
Vwidth
p6
L10L
sVposition
p7
L-24L
sa(dp8
g6
L10L
sg7
L46L
sa(dp9
g6
L10L
sg7
L742L
sa(dp10
g6
L10L
sg7
L811L
sasVvhints
p11
(lp12
(dp13
g6
L10L
sg7
L66L
sa(dp14
g6
L10L
sg7
L164L
sa(dp15
g6
L10L
sg7
L456L
sa(dp16
g6
L10L
sg7
L546L
sa(dp17
g6
L10L
sg7
L564L
sa(dp18
g6
L10L
sg7
L644L
sass."
Layer: 2
SplineSet
74 376 m 2
 74 404 l 2
 74 592 127 797 329 797 c 0
 531 797 584 592 584 404 c 2
 584 376 l 2
 584 188 531 -17 329 -17 c 0
 127 -17 74 188 74 376 c 2
329 36 m 0
 454 36 514 177 514 376 c 2
 514 404 l 2
 514 603 454 744 329 744 c 0
 204 744 144 603 144 404 c 2
 144 376 l 2
 144 177 204 36 329 36 c 0
EndSplineSet
Layer: 3
SplineSet
67 374 m 2
 67 406 l 2
 67 587 118 798 330 798 c 0
 542 798 593 587 593 406 c 2
 593 374 l 2
 593 193 542 -18 330 -18 c 0
 118 -18 67 193 67 374 c 2
330 52 m 0
 438 52 499 178 499 374 c 2
 499 406 l 2
 499 602 438 728 330 728 c 0
 222 728 161 602 161 406 c 2
 161 374 l 2
 161 178 222 52 330 52 c 0
EndSplineSet
Layer: 4
SplineSet
60 373 m 2
 60 407 l 2
 60 581 108 799 330 799 c 0
 552 799 600 581 600 407 c 2
 600 373 l 2
 600 199 552 -19 330 -19 c 0
 108 -19 60 199 60 373 c 2
330 68 m 0
 422 68 482 180 482 373 c 2
 482 407 l 2
 482 600 422 712 330 712 c 0
 238 712 178 600 178 407 c 2
 178 373 l 2
 178 180 238 68 330 68 c 0
EndSplineSet
Layer: 5
SplineSet
53 372 m 6
 53 408 l 6
 53 575 97 800 330 800 c 4
 563 800 607 575 607 408 c 6
 607 372 l 6
 607 205 563 -20 330 -20 c 4
 97 -20 53 205 53 372 c 6
330 85 m 4
 406 85 465 181 465 372 c 6
 465 408 l 6
 465 599 406 695 330 695 c 4
 254 695 195 599 195 408 c 6
 195 372 l 6
 195 181 254 85 330 85 c 4
EndSplineSet
Layer: 6
SplineSet
45 370 m 2
 45 410 l 2
 45 570 87 801 330 801 c 0
 573 801 615 570 615 410 c 2
 615 370 l 2
 615 210 573 -21 330 -21 c 0
 87 -21 45 210 45 370 c 2
330 101 m 0
 390 101 449 182 449 370 c 2
 449 410 l 2
 449 598 390 679 330 679 c 0
 270 679 211 598 211 410 c 2
 211 370 l 2
 211 182 270 101 330 101 c 0
EndSplineSet
EndChar

StartChar: one
Encoding: 49 49 21
GlifName: one
Width: 660
VWidth: 0
Flags: W
HStem: 0 56<150 350 419 575> 766 20G<336.667 419>
VStem: 350 69<56 706>
LayerCount: 7
Back
SplineSet
125 555 m 29
 421 731 l 29
 425 0 l 1053
EndSplineSet
Fore
SplineSet
80 630 m 1
 345 786 l 1
 464 774 l 1
 464 130 l 1
 605 130 l 1
 605 0 l 1
 120 0 l 1
 120 130 l 1
 300 130 l 1
 300 605 l 1
 150 512 l 1
 80 630 l 1
EndSplineSet
PickledDataWithLists: "(dp0
Vcom.fontlab.hintData
p1
(dp2
Vhhints
p3
(lp4
(dp5
Vwidth
p6
L10L
sVposition
p7
L-19L
sa(dp8
g6
L10L
sg7
L-9L
sa(dp9
g6
L10L
sg7
L49L
sa(dp10
g6
L10L
sg7
L57L
sa(dp11
g6
L10L
sg7
L591L
sa(dp12
g6
L10L
sg7
L802L
sasVvhints
p13
(lp14
(dp15
g6
L10L
sg7
L126L
sa(dp16
g6
L10L
sg7
L364L
sa(dp17
g6
L10L
sg7
L371L
sa(dp18
g6
L10L
sg7
L462L
sa(dp19
g6
L10L
sg7
L469L
sa(dp20
g6
L10L
sg7
L677L
sass."
Layer: 2
SplineSet
110 630 m 1
 370 786 l 1
 419 781 l 1
 419 56 l 1
 575 56 l 1
 575 0 l 1
 150 0 l 1
 150 56 l 1
 350 56 l 1
 350 706 l 1
 140 579 l 1
 110 630 l 1
EndSplineSet
Layer: 3
SplineSet
102 630 m 1
 364 786 l 1
 430 779 l 1
 430 74 l 1
 582 74 l 1
 582 0 l 1
 142 0 l 1
 142 74 l 1
 337 74 l 1
 337 681 l 1
 142 562 l 1
 102 630 l 1
EndSplineSet
Layer: 4
SplineSet
95 630 m 1
 358 786 l 1
 441 777 l 1
 441 93 l 1
 590 93 l 1
 590 0 l 1
 135 0 l 1
 135 93 l 1
 325 93 l 1
 325 656 l 1
 145 545 l 1
 95 630 l 1
EndSplineSet
Layer: 5
SplineSet
88 630 m 5
 352 786 l 5
 453 776 l 5
 453 112 l 5
 598 112 l 5
 598 0 l 5
 128 0 l 5
 128 112 l 5
 313 112 l 5
 313 630 l 5
 148 529 l 5
 88 630 l 5
EndSplineSet
Layer: 6
SplineSet
80 630 m 1
 345 786 l 1
 464 774 l 1
 464 130 l 1
 605 130 l 1
 605 0 l 1
 120 0 l 1
 120 130 l 1
 300 130 l 1
 300 605 l 1
 150 512 l 1
 80 630 l 1
EndSplineSet
EndChar

StartChar: two
Encoding: 50 50 22
GlifName: two
Width: 660
VWidth: 0
Flags: W
HStem: 0 55<161 575> 610 21G<94 171> 744 53<240.165 430.907>
VStem: 94 71<616.172 670.92> 498 68<495.647 676.76>
LayerCount: 7
Back
SplineSet
535 60 m 29
 135 60 l 5
 135 214 256 291 355 360 c 4
 427 410 520 462 520 565 c 4
 520 629 493 741 330 741 c 4
 213 741 152 656 140 595 c 1029
EndSplineSet
Fore
SplineSet
55 60 m 0xe0
 55 237 204 343 312 412 c 0
 387 460 438 504 438 570 c 0
 438 631 411 679 333 679 c 0
 282 679 241 637 231 587 c 1
 60 603 l 1
 74 674 148 801 330 801 c 0
 566 801 600 634 600 570 c 0xd0
 600 440 488 356 415 308 c 0
 325 249 262 198 240 130 c 1
 605 130 l 1
 605 0 l 1
 64 0 l 1
 64 0 55 25 55 60 c 0xe0
EndSplineSet
PickledDataWithLists: "(dp0
Vcom.fontlab.hintData
p1
(dp2
Vhhints
p3
(lp4
(dp5
Vwidth
p6
L10L
sVposition
p7
L-13L
sa(dp8
g6
L10L
sg7
L61L
sa(dp9
g6
L10L
sg7
L74L
sa(dp10
g6
L10L
sg7
L620L
sa(dp11
g6
L10L
sg7
L740L
sa(dp12
g6
L10L
sg7
L809L
sasVvhints
p13
(lp14
(dp15
g6
L10L
sg7
L71L
sa(dp16
g6
L10L
sg7
L81L
sa(dp17
g6
L10L
sg7
L501L
sa(dp18
g6
L10L
sg7
L599L
sa(dp19
g6
L10L
sg7
L639L
sass."
Layer: 2
SplineSet
85 27 m 0
 85 203 228 302 338 377 c 0
 418 431 498 487 498 583 c 0
 498 646 467 744 330 744 c 0
 234 744 177 671 165 610 c 1
 94 617 l 1
 107 688 179 797 329 797 c 0
 530 797 566 650 566 583 c 0
 566 460 459 385 381 332 c 0
 278 262 171 186 161 55 c 1
 575 55 l 1
 575 0 l 1
 88 0 l 1
 88 0 85 11 85 27 c 0
EndSplineSet
Layer: 3
SplineSet
77 36 m 0
 77 212 221 312 331 386 c 0
 409 438 482 492 482 580 c 0
 482 642 452 728 330 728 c 0
 245 728 193 663 181 605 c 1
 85 614 l 1
 99 685 171 798 329 798 c 0
 539 798 574 646 574 580 c 0
 574 455 465 379 389 327 c 0
 289 259 193 190 180 74 c 1
 582 74 l 1
 582 0 l 1
 82 0 l 1
 82 0 77 16 77 36 c 0
EndSplineSet
Layer: 4
SplineSet
70 44 m 0
 70 220 216 323 325 395 c 0
 402 446 468 496 468 577 c 0
 468 639 440 712 332 712 c 0
 258 712 209 654 198 599 c 1
 77 610 l 1
 91 681 164 799 330 799 c 0
 548 799 583 643 583 577 c 0
 583 450 473 370 398 320 c 0
 301 255 217 193 201 93 c 1
 590 93 l 1
 590 0 l 1
 76 0 l 1
 76 0 70 19 70 44 c 0
EndSplineSet
Layer: 5
SplineSet
62 52 m 4
 62 229 210 334 318 404 c 4
 394 454 453 500 453 574 c 4
 453 636 425 696 332 696 c 4
 270 696 224 646 214 593 c 5
 68 607 l 5
 82 678 156 800 330 800 c 4
 557 800 591 639 591 574 c 4
 591 446 480 364 406 315 c 4
 313 253 239 196 220 112 c 5
 597 112 l 5
 597 0 l 5
 70 0 l 5
 70 0 62 22 62 52 c 4
EndSplineSet
Layer: 6
SplineSet
55 60 m 0xe0
 55 237 204 343 312 412 c 0
 387 460 438 504 438 570 c 0
 438 631 411 679 333 679 c 0
 282 679 241 637 231 587 c 1
 60 603 l 1
 74 674 148 801 330 801 c 0
 566 801 600 634 600 570 c 0xd0
 600 440 488 356 415 308 c 0
 325 249 262 198 240 130 c 1
 605 130 l 1
 605 0 l 1
 64 0 l 1
 64 0 55 25 55 60 c 0xe0
EndSplineSet
EndChar

StartChar: three
Encoding: 51 51 23
GlifName: three
Width: 660
VWidth: 0
Flags: W
HStem: -17 52<192.608 418.202> 369 52<219 391.562> 610 21G<66 143> 744 53<212.507 403.291>
VStem: 66 71<616.172 667.51> 470 68<495.518 676.76> 500 70<112.631 299.458>
LayerCount: 7
Back
SplineSet
130 960 m 5
 216 960 l 6
 380 960 410 842 410 774 c 4
 410 706 377 588 196 588 c 4
 59 588 13 659 0 693 c 1029
EndSplineSet
Fore
SplineSet
35 603 m 1xf0
 49 674 123 801 305 801 c 0
 541 801 575 634 575 570 c 0xf0
 575 489 532 437 482 402 c 1
 574 364 600 285 600 230 c 0
 600 149 557 -21 303 -21 c 0
 113 -21 41 92 25 137 c 1
 189 167 l 1
 199 140 225 99 303 99 c 0
 401 99 431 158 431 220 c 0xe8
 431 287 397 325 311 325 c 2
 195 325 l 1
 195 445 l 1
 295 445 l 2
 370 445 413 498 413 570 c 0
 413 631 386 679 308 679 c 0
 257 679 216 637 206 587 c 1
 35 603 l 1xf0
EndSplineSet
PickledDataWithLists: "(dp0
Vcom.fontlab.hintData
p1
(dp2
Vhhints
p3
(lp4
(dp5
Vwidth
p6
L10L
sVposition
p7
L-27L
sa(dp8
g6
L10L
sg7
L44L
sa(dp9
g6
L10L
sg7
L150L
sa(dp10
g6
L10L
sg7
L361L
sa(dp11
g6
L10L
sg7
L372L
sa(dp12
g6
L10L
sg7
L630L
sa(dp13
g6
L10L
sg7
L741L
sa(dp14
g6
L10L
sg7
L810L
sasVvhints
p15
(lp16
(dp17
g6
L10L
sg7
L66L
sa(dp18
g6
L10L
sg7
L76L
sa(dp19
g6
L10L
sg7
L203L
sa(dp20
g6
L10L
sg7
L491L
sa(dp21
g6
L10L
sg7
L546L
sa(dp22
g6
L10L
sg7
L589L
sa(dp23
g6
L10L
sg7
L644L
sass."
Layer: 2
SplineSet
55 126 m 1xfa
 123 139 l 1
 136 104 177 35 303 35 c 0
 467 35 500 141 500 210 c 0xfa
 500 276 463 369 314 369 c 2
 219 369 l 1
 219 421 l 1
 305 421 l 2
 381 421 470 478 470 583 c 0
 470 646 440 744 303 744 c 0
 207 744 149 671 137 610 c 1
 66 617 l 1
 79 688 151 797 301 797 c 0
 502 797 538 650 538 583 c 0xfc
 538 489 479 432 418 403 c 1
 536 372 570 277 570 213 c 0
 570 137 530 -17 303 -17 c 0
 132 -17 71 82 55 126 c 1xfa
EndSplineSet
Layer: 3
SplineSet
47 122 m 1xf4
 139 139 l 1
 151 106 188 44 302 44 c 0
 450 44 482 138 482 205 c 0xf4
 482 271 445 351 312 351 c 2
 212 351 l 1
 212 420 l 1
 302 420 l 2
 378 420 455 476 455 573 c 0
 455 635 425 721 303 721 c 0
 218 721 165 655 153 597 c 1
 57 607 l 1
 71 678 143 791 301 791 c 0
 511 791 546 639 546 573 c 0xf8
 546 483 492 427 434 396 c 1
 544 362 577 272 577 210 c 0
 577 132 536 -25 302 -25 c 0
 126 -25 63 78 47 122 c 1xf4
EndSplineSet
Layer: 4
SplineSet
40 131 m 1xf4
 156 153 l 1
 167 122 201 67 303 67 c 0
 434 67 465 150 465 215 c 0xf4
 465 282 429 347 312 347 c 2
 207 347 l 1
 207 433 l 1
 300 433 l 2
 375 433 441 488 441 577 c 0
 441 639 413 712 305 712 c 0
 231 712 182 654 171 599 c 1
 51 610 l 1
 65 681 137 799 303 799 c 0
 521 799 557 643 557 577 c 0xf8
 557 490 507 435 452 402 c 1
 555 366 585 280 585 221 c 0
 585 142 543 -19 303 -19 c 0
 123 -19 56 87 40 131 c 1xf4
EndSplineSet
Layer: 5
SplineSet
32 134 m 5xe8
 172 160 l 5
 183 131 213 83 303 83 c 4
 417 83 448 153 448 217 c 4xe8
 448 284 413 336 311 336 c 6
 201 336 l 5
 201 439 l 5
 297 439 l 6
 372 439 427 493 427 573 c 4
 427 635 399 695 306 695 c 4
 244 695 199 646 189 593 c 5
 43 606 l 5
 57 677 130 800 304 800 c 4
 531 800 566 638 566 573 c 4xf0
 566 489 519 436 467 402 c 5
 564 365 592 283 592 226 c 4
 592 146 550 -20 303 -20 c 4
 118 -20 48 89 32 134 c 5xe8
EndSplineSet
Layer: 6
SplineSet
35 603 m 1xf0
 49 674 123 801 305 801 c 0
 541 801 575 634 575 570 c 0xf0
 575 489 532 437 482 402 c 1
 574 364 600 285 600 230 c 0
 600 149 557 -21 303 -21 c 0
 113 -21 41 92 25 137 c 1
 189 167 l 1
 199 140 225 99 303 99 c 0
 401 99 431 158 431 220 c 0xe8
 431 287 397 325 311 325 c 2
 195 325 l 1
 195 445 l 1
 295 445 l 2
 370 445 413 498 413 570 c 0
 413 631 386 679 308 679 c 0
 257 679 216 637 206 587 c 1
 35 603 l 1xf0
EndSplineSet
EndChar

StartChar: four
Encoding: 52 52 24
GlifName: four
Width: 660
VWidth: 0
Flags: W
HStem: 0 21G<423 489> 214 52<123 423 489 615> 766 20G<418.63 489>
VStem: 424 65<0 214 266 688>
LayerCount: 7
Fore
SplineSet
360 180 m 1
 27 180 l 1
 15 260 l 1
 380 786 l 1
 520 774 l 1
 520 300 l 1
 645 300 l 1
 645 180 l 1
 520 180 l 1
 520 0 l 1
 360 0 l 1
 360 180 l 1
365 300 m 1
 365 560 l 1
 190 300 l 1
 365 300 l 1
EndSplineSet
PickledDataWithLists: "(dp0
Vcom.fontlab.hintData
p1
(dp2
Vhhints
p3
(lp4
(dp5
Vwidth
p6
L10L
sVposition
p7
L-30L
sa(dp8
g6
L10L
sg7
L174L
sa(dp9
g6
L10L
sg7
L243L
sa(dp10
g6
L10L
sg7
L259L
sa(dp11
g6
L10L
sg7
L609L
sa(dp12
g6
L10L
sg7
L819L
sasVvhints
p13
(lp14
(dp15
g6
L10L
sg7
L31L
sa(dp16
g6
L10L
sg7
L276L
sa(dp17
g6
L10L
sg7
L374L
sa(dp18
g6
L10L
sg7
L455L
sa(dp19
g6
L10L
sg7
L554L
sa(dp20
g6
L10L
sg7
L679L
sass."
Layer: 2
SplineSet
423 214 m 1
 50 214 l 1
 45 246 l 1
 433 786 l 1
 489 781 l 1
 489 266 l 1
 615 266 l 1
 615 214 l 1
 489 214 l 1
 489 0 l 1
 423 0 l 1
 423 214 l 1
424 266 m 1
 424 688 l 1
 123 266 l 1
 424 266 l 1
EndSplineSet
Layer: 3
SplineSet
408 206 m 1
 45 206 l 1
 38 250 l 1
 420 786 l 1
 498 779 l 1
 498 274 l 1
 623 274 l 1
 623 206 l 1
 498 206 l 1
 498 0 l 1
 408 0 l 1
 408 206 l 1
410 274 m 1
 410 657 l 1
 140 274 l 1
 410 274 l 1
EndSplineSet
Layer: 4
SplineSet
391 197 m 1
 39 197 l 1
 30 253 l 1
 407 786 l 1
 505 777 l 1
 505 283 l 1
 630 283 l 1
 630 197 l 1
 505 197 l 1
 505 0 l 1
 391 0 l 1
 391 197 l 1
395 283 m 1
 395 626 l 1
 157 283 l 1
 395 283 l 1
EndSplineSet
Layer: 5
SplineSet
376 188 m 5
 33 188 l 5
 23 256 l 5
 394 786 l 5
 513 776 l 5
 513 292 l 5
 638 292 l 5
 638 188 l 5
 513 188 l 5
 513 0 l 5
 376 0 l 5
 376 188 l 5
380 292 m 5
 380 593 l 5
 174 292 l 5
 380 292 l 5
EndSplineSet
Layer: 6
SplineSet
360 180 m 1
 27 180 l 1
 15 260 l 1
 380 786 l 1
 520 774 l 1
 520 300 l 1
 645 300 l 1
 645 180 l 1
 520 180 l 1
 520 0 l 1
 360 0 l 1
 360 180 l 1
365 300 m 1
 365 560 l 1
 190 300 l 1
 365 300 l 1
EndSplineSet
EndChar

StartChar: five
Encoding: 53 53 25
GlifName: five
Width: 660
VWidth: 0
Flags: W
HStem: -17 52<211.855 431.247> 423 50<246.57 437.58> 728 52<185 548>
VStem: 107 68<406 628.908> 120 65<504.092 728> 519 71<120.994 341.754>
LayerCount: 7
Back
SplineSet
571 720 m 25
 176 720 l 25
 166 350 l 5
 189 387 268 441 355 441 c 4
 519 441 549 313 549 240 c 5
 549 167 516 39 335 39 c 4
 198 39 152 116 139 152 c 1029
EndSplineSet
Fore
SplineSet
45 137 m 1xf4
 209 167 l 1
 219 140 245 99 323 99 c 0
 421 99 451 168 451 240 c 0
 451 317 424 381 338 381 c 0
 280 381 234 336 202 290 c 1
 201 291 l 1
 201 290 l 1
 81 354 l 1xf4
 96 780 l 1
 573 780 l 1
 573 660 l 1
 251 660 l 1xec
 244 464 l 1
 276 482 317 496 371 496 c 0
 579 496 620 319 620 250 c 0
 620 166 577 -21 323 -21 c 0
 133 -21 61 92 45 137 c 1xf4
EndSplineSet
PickledDataWithLists: "(dp0
Vcom.fontlab.hintData
p1
(dp2
Vhhints
p3
(lp4
(dp5
Vwidth
p6
L10L
sVposition
p7
L-26L
sa(dp8
g6
L10L
sg7
L43L
sa(dp9
g6
L10L
sg7
L150L
sa(dp10
g6
L10L
sg7
L334L
sa(dp11
g6
L10L
sg7
L409L
sa(dp12
g6
L10L
sg7
L477L
sa(dp13
g6
L10L
sg7
L716L
sa(dp14
g6
L10L
sg7
L784L
sa(dp15
g6
L10L
sg7
L795L
sasVvhints
p16
(lp17
(dp18
g6
L10L
sg7
L76L
sa(dp19
g6
L10L
sg7
L106L
sa(dp20
g6
L10L
sg7
L125L
sa(dp21
g6
L10L
sg7
L226L
sa(dp22
g6
L10L
sg7
L541L
sa(dp23
g6
L10L
sg7
L614L
sa(dp24
g6
L10L
sg7
L639L
sass."
Layer: 2
SplineSet
75 126 m 1xf4
 143 139 l 1
 156 104 196 35 322 35 c 0
 486 35 519 149 519 228 c 0
 519 308 489 423 342 423 c 0
 260 423 187 367 160 326 c 1
 107 353 l 1xf4
 120 780 l 1
 548 780 l 1
 548 728 l 1
 185 728 l 1xec
 175 406 l 1
 215 439 276 473 353 473 c 0
 552 473 590 311 590 232 c 0
 590 148 549 -17 322 -17 c 0
 151 -17 91 82 75 126 c 1xf4
EndSplineSet
Layer: 3
SplineSet
67 129 m 1xf4
 159 146 l 1
 171 113 208 51 322 51 c 0
 470 51 502 154 502 231 c 0
 502 311 473 412 341 412 c 0
 265 412 198 359 170 317 c 1
 100 354 l 1xf4
 114 780 l 1
 554 780 l 1
 554 711 l 1
 201 711 l 1xec
 192 421 l 1
 230 450 285 479 357 479 c 0
 559 479 597 312 597 236 c 0
 597 152 556 -18 322 -18 c 0
 146 -18 83 85 67 129 c 1xf4
EndSplineSet
Layer: 4
SplineSet
60 131 m 1xf4
 177 153 l 1
 188 122 221 67 323 67 c 0
 454 67 484 159 484 234 c 0
 484 313 456 402 340 402 c 0
 270 402 212 352 183 308 c 1
 182 310 l 1
 181 308 l 1
 94 354 l 1xf4
 108 780 l 1
 558 780 l 1
 558 694 l 1
 218 694 l 1xec
 210 436 l 1
 246 461 296 484 362 484 c 0
 566 484 605 315 605 241 c 0
 605 157 563 -19 323 -19 c 0
 143 -19 76 87 60 131 c 1xf4
EndSplineSet
Layer: 5
SplineSet
52 134 m 1xf4
 192 160 l 1
 203 131 232 83 322 83 c 0
 436 83 467 163 467 237 c 0
 467 315 440 391 339 391 c 0
 275 391 222 344 191 299 c 1
 88 354 l 1xf4
 103 780 l 1
 564 780 l 1
 564 677 l 1
 235 677 l 1xec
 227 451 l 1
 261 473 307 490 366 490 c 0
 572 490 612 317 612 245 c 0
 612 161 569 -20 322 -20 c 4
 137 -20 68 89 52 134 c 1xf4
EndSplineSet
Layer: 6
SplineSet
45 137 m 1xf4
 209 167 l 1
 219 140 245 99 323 99 c 0
 421 99 451 168 451 240 c 0
 451 317 424 381 338 381 c 0
 280 381 234 336 202 290 c 1
 201 291 l 1
 201 290 l 1
 81 354 l 1xf4
 96 780 l 1
 573 780 l 1
 573 660 l 1
 251 660 l 1xec
 244 464 l 1
 276 482 317 496 371 496 c 0
 579 496 620 319 620 250 c 0
 620 166 577 -21 323 -21 c 0
 133 -21 61 92 45 137 c 1xf4
EndSplineSet
EndChar

StartChar: six
Encoding: 54 54 26
GlifName: six
Width: 660
VWidth: 0
Flags: W
HStem: -17 53<247.379 442.184> 421 50<252.291 439.484> 744 53<258.146 440.488>
VStem: 95 70<137.966 331.822 381 626.594> 503 67<643.621 684.107> 521 69<118.489 339.026>
LayerCount: 7
Back
SplineSet
533 240 m 5
 533 120 459 39 339 39 c 4
 219 39 145 117 145 300 c 6
 145 435 l 6
 145 568 175 741 339 741 c 4
 463 741 503 659 515 620 c 1029
EndSplineSet
Fore
SplineSet
65 301 m 2
 65 434 l 2
 65 549 84 801 344 801 c 0
 532 801 588 674 601 632 c 1
 439 606 l 1
 428 642 404 679 344 679 c 0
 270 679 235 599 231 459 c 1
 267 482 313 495 368 495 c 0
 533 495 620 375 620 240 c 0
 620 107 530 -21 344 -21 c 0
 150 -21 65 114 65 301 c 2
455 240 m 0
 455 345 400 381 338 381 c 0
 289 381 245 352 231 280 c 1
 236 121 300 101 344 101 c 0
 398 101 455 133 455 240 c 0
EndSplineSet
PickledDataWithLists: "(dp0
Vcom.fontlab.hintData
p1
(dp2
Vhhints
p3
(lp4
(dp5
Vwidth
p6
L10L
sVposition
p7
L-29L
sa(dp8
g6
L10L
sg7
L39L
sa(dp9
g6
L10L
sg7
L251L
sa(dp10
g6
L10L
sg7
L397L
sa(dp11
g6
L10L
sg7
L466L
sa(dp12
g6
L10L
sg7
L819L
sasVvhints
p13
(lp14
(dp15
g6
L10L
sg7
L32L
sa(dp16
g6
L10L
sg7
L90L
sa(dp17
g6
L10L
sg7
L188L
sa(dp18
g6
L10L
sg7
L464L
sa(dp19
g6
L10L
sg7
L560L
sa(dp20
g6
L10L
sg7
L658L
sass."
Layer: 2
SplineSet
95 292 m 2xf4
 95 439 l 2
 95 576 124 797 343 797 c 0
 505 797 556 689 570 645 c 1
 503 634 l 1xf8
 490 674 453 744 343 744 c 0
 200 744 165 592 165 439 c 2
 165 381 l 1
 203 433 266 471 353 471 c 0
 538 471 590 328 590 227 c 0
 590 91 501 -17 343 -17 c 0
 182 -17 95 91 95 292 c 2xf4
166 263 m 1
 173 90 247 36 343 36 c 0
 448 36 521 104 521 227 c 0xf4
 521 317 482 421 343 421 c 0
 246 421 182 351 166 263 c 1
EndSplineSet
Layer: 3
SplineSet
88 294 m 2xf4
 88 438 l 2
 88 570 114 798 344 798 c 0
 512 798 564 686 578 642 c 1
 487 627 l 1xf8
 475 666 442 728 344 728 c 0
 217 728 182 592 182 438 c 2
 182 405 l 1
 222 448 280 477 357 477 c 0
 537 477 598 340 598 230 c 0
 598 94 509 -18 344 -18 c 0
 174 -18 88 96 88 294 c 2xf4
183 266 m 1
 190 97 260 52 344 52 c 0
 436 52 505 111 505 230 c 0xf4
 505 324 462 411 342 411 c 0
 257 411 198 352 183 266 c 1
EndSplineSet
Layer: 4
SplineSet
80 297 m 2
 80 436 l 2
 80 562 103 799 343 799 c 0
 518 799 572 682 585 639 c 1
 470 620 l 1
 458 658 428 712 343 712 c 0
 232 712 197 590 197 436 c 2
 197 425 l 1
 236 461 291 483 360 483 c 0
 535 483 605 351 605 233 c 0
 605 98 515 -19 343 -19 c 0
 165 -19 80 103 80 297 c 2
198 269 m 1
 205 106 273 68 343 68 c 0
 423 68 488 118 488 233 c 0
 488 330 440 401 340 401 c 0
 267 401 212 352 198 269 c 1
EndSplineSet
Layer: 5
SplineSet
72 299 m 2
 72 435 l 2
 72 555 93 800 343 800 c 4
 525 800 580 677 593 635 c 1
 454 613 l 1
 442 650 415 695 343 695 c 0
 251 695 215 594 214 444 c 1
 252 472 302 489 363 489 c 0
 533 489 612 363 612 237 c 0
 612 103 522 -20 343 -20 c 0
 157 -20 72 109 72 299 c 2
214 275 m 1
 220 113 286 85 343 85 c 0
 410 85 471 126 471 237 c 0
 471 338 419 391 338 391 c 0
 278 391 229 352 214 275 c 1
EndSplineSet
Layer: 6
SplineSet
65 301 m 2
 65 434 l 2
 65 549 84 801 344 801 c 0
 532 801 588 674 601 632 c 1
 439 606 l 1
 428 642 404 679 344 679 c 0
 270 679 235 599 231 459 c 1
 267 482 313 495 368 495 c 0
 533 495 620 375 620 240 c 0
 620 107 530 -21 344 -21 c 0
 150 -21 65 114 65 301 c 2
455 240 m 0
 455 345 400 381 338 381 c 0
 289 381 245 352 231 280 c 1
 236 121 300 101 344 101 c 0
 398 101 455 133 455 240 c 0
EndSplineSet
EndChar

StartChar: seven
Encoding: 55 55 27
GlifName: seven
Width: 660
VWidth: 0
Flags: W
HStem: 0 21G<257 330> 724 56<80 486>
VStem: 257 73<0 240.513>
LayerCount: 7
Back
SplineSet
105 720 m 29
 545 720 l 5
 431 584 300 263 300 60 c 4
 300 33 300 0 300 0 c 1037
EndSplineSet
Fore
SplineSet
50 650 m 1
 50 780 l 1
 588 780 l 0
 600 689 l 0
 498 554 368 291 368 60 c 0
 368 0 l 1
 193 0 l 1
 193 60 l 0
 193 261 304 485 405 650 c 1
 50 650 l 1
EndSplineSet
PickledDataWithLists: "(dp0
Vcom.fontlab.hintData
p1
(dp2
Vhhints
p3
(lp4
(dp5
Vwidth
p6
L10L
sVposition
p7
L-19L
sa(dp8
g6
L10L
sg7
L554L
sa(dp9
g6
L10L
sg7
L716L
sa(dp10
g6
L10L
sg7
L784L
sa(dp11
g6
L10L
sg7
L795L
sasVvhints
p12
(lp13
(dp14
g6
L10L
sg7
L69L
sa(dp15
g6
L10L
sg7
L199L
sa(dp16
g6
L10L
sg7
L274L
sa(dp17
g6
L10L
sg7
L648L
sass."
Layer: 2
SplineSet
80 724 m 1
 80 780 l 1
 565 780 l 1
 570 740 l 1
 455 582 330 280 330 40 c 2
 330 0 l 1
 257 0 l 1
 257 40 l 2
 257 270 378 560 486 724 c 1
 80 724 l 1
EndSplineSet
Layer: 3
SplineSet
72 706 m 1
 72 780 l 1
 570 780 l 1
 577 728 l 1
 465 576 339 283 339 45 c 2
 339 0 l 1
 241 0 l 1
 241 45 l 2
 241 268 359 542 465 706 c 1
 72 706 l 1
EndSplineSet
Layer: 4
SplineSet
65 687 m 1
 65 780 l 1
 576 780 l 1
 585 715 l 1
 477 568 349 285 349 50 c 2
 349 0 l 1
 225 0 l 1
 225 50 l 2
 225 266 341 523 445 687 c 1
 65 687 l 1
EndSplineSet
Layer: 5
SplineSet
57 668 m 1
 57 780 l 1
 582 780 l 1
 592 702 l 1
 487 561 358 288 358 55 c 2
 358 0 l 5
 209 0 l 5
 209 55 l 2
 209 263 322 503 425 668 c 1
 57 668 l 1
EndSplineSet
Layer: 6
SplineSet
50 650 m 1
 50 780 l 1
 588 780 l 0
 600 689 l 0
 498 554 368 291 368 60 c 0
 368 0 l 1
 193 0 l 1
 193 60 l 0
 193 261 304 485 405 650 c 1
 50 650 l 1
EndSplineSet
EndChar

StartChar: eight
Encoding: 56 56 28
GlifName: eight
Width: 660
VWidth: 0
Flags: W
HStem: -17 51<217.697 442.303> 747 50<235.868 424.132>
VStem: 65 70<106.992 291.792> 100 69<500.391 681.68> 491 69<500.391 681.68> 525 70<106.992 291.792>
LayerCount: 7
Back
SplineSet
345 39 m 5
 216 39 136 110 136 210 c 4
 136 308 210 346 259 367 c 4
 301 385 376 411 417 428 c 4
 466 448 524 490 524 574 c 4
 524 674 449 741 345 741 c 1029
EndSplineSet
Fore
SplineSet
330 -21 m 0xc4
 148 -21 35 86 35 210 c 0xe4
 35 323 124 374 184 401 c 1
 125 432 70 484 70 574 c 0
 70 693 166 801 330 801 c 0
 494 801 590 693 590 574 c 0xd8
 590 484 535 432 476 401 c 1
 536 374 625 323 625 210 c 0
 625 86 512 -21 330 -21 c 0xc4
330 99 m 0
 406 99 455 134 455 210 c 0
 455 281 414 308 374 325 c 0
 363 330 347 336 330 343 c 1
 313 336 297 330 286 325 c 0
 246 308 205 281 205 210 c 0
 205 134 254 99 330 99 c 0
330 681 m 0
 286 681 235 655 235 574 c 0
 235 513 270 482 299 470 c 0
 308 467 318 462 330 458 c 1
 342 462 352 467 361 470 c 0
 390 482 425 513 425 574 c 0xd8
 425 655 374 681 330 681 c 0
EndSplineSet
PickledDataWithLists: "(dp0
Vcom.fontlab.hintData
p1
(dp2
Vhhints
p3
(lp4
(dp5
Vwidth
p6
L10L
sVposition
p7
L-24L
sa(dp8
g6
L10L
sg7
L44L
sa(dp9
g6
L9L
sg7
L394L
sa(dp10
g6
L10L
sg7
L610L
sa(dp11
g6
L10L
sg7
L651L
sa(dp12
g6
L10L
sg7
L741L
sa(dp13
g6
L10L
sg7
L809L
sasVvhints
p14
(lp15
(dp16
g6
L10L
sg7
L76L
sa(dp17
g6
L10L
sg7
L87L
sa(dp18
g6
L10L
sg7
L174L
sa(dp19
g6
L10L
sg7
L185L
sa(dp20
g6
L10L
sg7
L549L
sa(dp21
g6
L10L
sg7
L584L
sa(dp22
g6
L10L
sg7
L594L
sa(dp23
g6
L10L
sg7
L649L
sass."
Layer: 2
SplineSet
330 -17 m 0xc4
 167 -17 65 75 65 195 c 0xe4
 65 332 165 384 238 401 c 1
 167 426 100 485 100 591 c 0
 100 709 192 797 330 797 c 0
 468 797 560 709 560 591 c 0xd8
 560 485 493 426 422 401 c 1
 495 384 595 332 595 195 c 0
 595 75 493 -17 330 -17 c 0xc4
330 34 m 0
 450 34 525 97 525 195 c 0
 525 304 454 348 388 362 c 0
 371 366 351 371 330 376 c 1
 309 371 289 366 272 362 c 0
 206 348 135 304 135 195 c 0
 135 97 210 34 330 34 c 0
330 747 m 0
 239 747 169 691 169 591 c 0
 169 500 230 448 288 435 c 0
 301 432 315 428 330 424 c 1
 345 428 359 432 372 435 c 0
 430 448 491 500 491 591 c 0xd8
 491 691 421 747 330 747 c 0
EndSplineSet
Layer: 3
SplineSet
330 -18 m 0xc4
 162 -18 57 77 57 198 c 0xe4
 57 329 154 381 224 401 c 1
 156 427 92 484 92 586 c 0
 92 704 186 798 330 798 c 0
 474 798 568 704 568 586 c 0xd8
 568 484 504 427 436 401 c 1
 506 381 603 329 603 198 c 0
 603 77 498 -18 330 -18 c 0xc4
330 50 m 0
 439 50 507 106 507 198 c 0
 507 298 444 338 384 353 c 0
 369 358 350 363 330 369 c 1
 310 363 291 358 276 353 c 0
 216 338 153 298 153 198 c 0
 153 106 221 50 330 50 c 0
330 730 m 0
 251 730 185 682 185 586 c 0
 185 502 240 456 291 443 c 0
 303 440 316 436 330 432 c 1
 344 436 357 440 369 443 c 0
 420 456 475 502 475 586 c 0xd8
 475 682 409 730 330 730 c 0
EndSplineSet
Layer: 4
SplineSet
330 -19 m 0xc4
 157 -19 50 79 50 201 c 0xe4
 50 326 143 378 209 401 c 1
 144 430 85 483 85 581 c 0
 85 699 179 799 330 799 c 0
 481 799 575 699 575 581 c 0xd8
 575 483 516 430 451 401 c 1
 517 378 610 326 610 201 c 0
 610 79 503 -19 330 -19 c 0xc4
330 66 m 0
 428 66 490 114 490 201 c 0
 490 291 434 327 381 343 c 0
 367 348 349 354 330 360 c 1
 311 354 293 348 279 343 c 0
 226 327 170 291 170 201 c 0
 170 114 232 66 330 66 c 0
330 713 m 0
 263 713 202 672 202 581 c 0
 202 505 249 465 293 452 c 0
 304 449 316 444 330 440 c 1
 344 444 356 449 367 452 c 0
 411 465 458 505 458 581 c 0xd8
 458 672 397 713 330 713 c 0
EndSplineSet
Layer: 5
SplineSet
330 -20 m 4xc4
 153 -20 43 83 43 206 c 4xe4
 43 325 134 376 197 401 c 5
 135 431 77 484 77 578 c 4
 77 697 172 800 330 800 c 4
 488 800 583 697 583 578 c 4xd8
 583 484 525 431 463 401 c 5
 526 376 617 325 617 206 c 4
 617 83 507 -20 330 -20 c 4xc4
330 83 m 4
 417 83 472 124 472 206 c 4
 472 286 423 318 377 334 c 4
 365 339 348 345 330 351 c 5
 312 345 295 339 283 334 c 4
 237 318 188 286 188 206 c 4
 188 124 243 83 330 83 c 4
330 697 m 4
 274 697 218 664 218 578 c 4
 218 510 260 473 296 461 c 4
 306 457 317 453 330 449 c 5
 343 453 354 457 364 461 c 4
 400 473 442 510 442 578 c 4xd8
 442 664 386 697 330 697 c 4
EndSplineSet
Layer: 6
SplineSet
330 -21 m 0xc4
 148 -21 35 86 35 210 c 0xe4
 35 323 124 374 184 401 c 1
 125 432 70 484 70 574 c 0
 70 693 166 801 330 801 c 0
 494 801 590 693 590 574 c 0xd8
 590 484 535 432 476 401 c 1
 536 374 625 323 625 210 c 0
 625 86 512 -21 330 -21 c 0xc4
330 99 m 0
 406 99 455 134 455 210 c 0
 455 281 414 308 374 325 c 0
 363 330 347 336 330 343 c 1
 313 336 297 330 286 325 c 0
 246 308 205 281 205 210 c 0
 205 134 254 99 330 99 c 0
330 681 m 0
 286 681 235 655 235 574 c 0
 235 513 270 482 299 470 c 0
 308 467 318 462 330 458 c 1
 342 462 352 467 361 470 c 0
 390 482 425 513 425 574 c 0xd8
 425 655 374 681 330 681 c 0
EndSplineSet
EndChar

StartChar: nine
Encoding: 57 57 29
GlifName: nine
Width: 660
VWidth: 0
Flags: W
HStem: -17 53<219.512 401.854> 309 50<220.516 407.709> 744 53<217.816 412.621>
VStem: 70 69<440.974 661.511> 90 67<95.8928 136.379> 495 70<153.406 399 448.178 642.034>
LayerCount: 7
Fore
SplineSet
595 479 m 2
 595 346 l 2
 595 231 576 -21 316 -21 c 0
 128 -21 72 106 59 148 c 1
 221 174 l 1
 232 138 256 101 316 101 c 0
 390 101 425 181 429 321 c 1
 393 298 347 285 292 285 c 0
 127 285 40 405 40 540 c 0
 40 673 130 801 316 801 c 0
 510 801 595 666 595 479 c 2
205 540 m 0
 205 435 260 399 322 399 c 0
 371 399 415 428 429 500 c 1
 424 659 360 679 316 679 c 0
 262 679 205 647 205 540 c 0
EndSplineSet
PickledDataWithLists: "(dp0
Vcom.fontlab.hintData
p1
(dp2
Vhhints
p3
(lp4
(dp5
Vwidth
p6
L10L
sVposition
p7
L-29L
sa(dp8
g6
L10L
sg7
L324L
sa(dp9
g6
L10L
sg7
L393L
sa(dp10
g6
L10L
sg7
L539L
sa(dp11
g6
L10L
sg7
L751L
sa(dp12
g6
L10L
sg7
L819L
sasVvhints
p13
(lp14
(dp15
g6
L10L
sg7
L52L
sa(dp16
g6
L10L
sg7
L150L
sa(dp17
g6
L10L
sg7
L246L
sa(dp18
g6
L10L
sg7
L521L
sa(dp19
g6
L10L
sg7
L620L
sa(dp20
g6
L10L
sg7
L678L
sass."
Layer: 2
Refer: 26 54 S -1 0 0 -1 660 780 2
Layer: 3
Refer: 26 54 S -1 0 0 -1 660 780 2
Layer: 4
Refer: 26 54 S -1 0 0 -1 660 780 2
Layer: 5
Refer: 26 54 S -1 0 0 -1 660 780 2
Layer: 6
Refer: 26 54 S -1 0 0 -1 660 780 2
EndChar

StartChar: less
Encoding: 60 60 32
GlifName: less
Width: 600
VWidth: 0
Flags: W
HStem: 585 20G<449.549 487.528>
LayerCount: 7
Back
SplineSet
480 150 m 29
 120 360 l 29
 480 570 l 1053
EndSplineSet
Fore
SplineSet
75 315 m 1
 75 360 l 1
 75 405 l 1
 495 660 l 1
 525 535 l 1
 225 360 l 1
 525 185 l 1
 495 60 l 1
 75 315 l 1
EndSplineSet
PickledDataWithLists: "(dp0
Vcom.fontlab.hintData
p1
(dp2
Vhhints
p3
(lp4
(dp5
Vwidth
p6
L10L
sVposition
p7
L65L
sa(dp8
g6
L10L
sg7
L606L
sasVvhints
p9
(lp10
(dp11
g6
L10L
sg7
L63L
sa(dp12
g6
L10L
sg7
L514L
sa(dp13
g6
L10L
sg7
L524L
sass."
Layer: 2
SplineSet
105 341 m 1
 105 360 l 1
 105 379 l 1
 483 605 l 1
 495 552 l 1
 171 360 l 1
 495 168 l 1
 483 115 l 1
 105 341 l 1
EndSplineSet
Layer: 3
SplineSet
97 334 m 1
 97 360 l 1
 97 386 l 1
 485 618 l 1
 502 548 l 1
 183 360 l 1
 502 172 l 1
 485 102 l 1
 97 334 l 1
EndSplineSet
Layer: 4
SplineSet
90 328 m 1
 90 360 l 1
 90 392 l 1
 488 632 l 1
 510 543 l 1
 197 360 l 1
 510 177 l 1
 488 88 l 1
 90 328 l 1
EndSplineSet
Layer: 5
SplineSet
82 322 m 5
 82 360 l 5
 82 398 l 5
 492 646 l 5
 517 539 l 5
 211 360 l 5
 517 181 l 5
 492 74 l 5
 82 322 l 5
EndSplineSet
Layer: 6
SplineSet
75 315 m 1
 75 360 l 1
 75 405 l 1
 495 660 l 1
 525 535 l 1
 225 360 l 1
 525 185 l 1
 495 60 l 1
 75 315 l 1
EndSplineSet
EndChar

StartChar: equal
Encoding: 61 61 33
GlifName: equal
Width: 600
VWidth: 0
Flags: W
HStem: 247 50<105 495> 423 50<105 495>
LayerCount: 7
Fore
SplineSet
75 300 m 25
 525 300 l 25
 525 185 l 25
 75 185 l 25
 75 300 l 25
75 535 m 25
 525 535 l 25
 525 420 l 25
 75 420 l 25
 75 535 l 25
EndSplineSet
PickledDataWithLists: "(dp0
Vcom.fontlab.hintData
p1
(dp2
Vhhints
p3
(lp4
(dp5
Vwidth
p6
L10L
sVposition
p7
L201L
sa(dp8
g6
L10L
sg7
L263L
sa(dp9
g6
L10L
sg7
L271L
sa(dp10
g6
L10L
sg7
L401L
sa(dp11
g6
L10L
sg7
L463L
sa(dp12
g6
L10L
sg7
L471L
sasVvhints
p13
(lp14
(dp15
g6
L10L
sg7
L75L
sa(dp16
g6
L10L
sg7
L514L
sass."
Layer: 2
SplineSet
105 423 m 1
 105 473 l 1
 495 473 l 1
 495 423 l 1
 105 423 l 1
105 247 m 1
 105 297 l 1
 495 297 l 1
 495 247 l 1
 105 247 l 1
EndSplineSet
Layer: 3
SplineSet
97 422 m 1
 97 489 l 1
 503 489 l 1
 503 422 l 1
 97 422 l 1
97 231 m 1
 97 298 l 1
 503 298 l 1
 503 231 l 1
 97 231 l 1
EndSplineSet
Layer: 4
SplineSet
90 421 m 1
 90 504 l 1
 510 504 l 1
 510 421 l 1
 90 421 l 1
90 216 m 1
 90 299 l 1
 510 299 l 1
 510 216 l 1
 90 216 l 1
EndSplineSet
Layer: 5
SplineSet
82 421 m 5
 82 519 l 5
 518 519 l 5
 518 421 l 5
 82 421 l 5
82 201 m 5
 82 299 l 5
 518 299 l 5
 518 201 l 5
 82 201 l 5
EndSplineSet
Layer: 6
SplineSet
75 300 m 25
 525 300 l 25
 525 185 l 25
 75 185 l 25
 75 300 l 25
75 535 m 25
 525 535 l 25
 525 420 l 25
 75 420 l 25
 75 535 l 25
EndSplineSet
EndChar

StartChar: question
Encoding: 63 63 35
GlifName: question
Width: 570
VWidth: 0
Flags: W
HStem: -2 122<230.811 339.189> 773 54<190.028 372.63>
VStem: 70 71<578.479 726.707> 220 61<236.663 376.163> 220 130<9.14529 108.855> 420 70<557.218 726.105>
LayerCount: 7
Back
SplineSet
265 264 m 5
 255 286 251 307 251 326 c 4
 251 452 435 491 435 624 c 4
 435 723 369 770 283 770 c 4
 188 770 125 719 125 639 c 4
 125 615 130 591 140 569 c 1029
EndSplineSet
Fore
SplineSet
40 640 m 0xe4
 40 744 132 831 285 831 c 0
 432 831 520 749 520 630 c 0
 520 467 330 431 330 330 c 0xd4
 330 312 334 298 340 285 c 1
 210 270 l 1xe0
 197 292 190 315 190 340 c 0xd0
 190 494 350 510 350 625 c 0
 350 695 309 708 280 708 c 0
 241 708 210 689 210 640 c 0
 210 623 213 605 220 590 c 1
 60 550 l 1
 47 579 40 610 40 640 c 0xe4
EndSplineSet
Refer: 18 46 N 1 0 0 1 120 0 2
PickledDataWithLists: "(dp0
Vcom.fontlab.hintData
p1
(dp2
Vhhints
p3
(lp4
(dp5
Vwidth
p6
L10L
sVposition
p7
L-5L
sa(dp8
g6
L10L
sg7
L122L
sa(dp9
g6
L10L
sg7
L255L
sa(dp10
g6
L10L
sg7
L594L
sa(dp11
g6
L10L
sg7
L784L
sa(dp12
g6
L10L
sg7
L846L
sasVvhints
p13
(lp14
(dp15
g6
L10L
sg7
L11L
sa(dp16
g6
L10L
sg7
L98L
sa(dp17
g6
L10L
sg7
L120L
sa(dp18
g6
L10L
sg7
L152L
sa(dp19
g6
L10L
sg7
L161L
sa(dp20
g6
L10L
sg7
L241L
sa(dp21
g6
L10L
sg7
L254L
sa(dp22
g6
L10L
sg7
L310L
sa(dp23
g6
L10L
sg7
L351L
sa(dp24
g6
L10L
sg7
L439L
sass."
Layer: 2
SplineSet
70 653 m 0xf4
 70 754 155 827 285 827 c 0
 406 827 490 758 490 638 c 0
 490 473 281 430 281 302 c 0
 281 282 285 259 295 238 c 1
 239 232 l 1
 227 257 220 281 220 305 c 0
 220 462 420 498 420 636 c 0
 420 735 358 773 284 773 c 0
 200 773 141 729 141 653 c 0
 141 629 146 605 156 583 c 1
 90 565 l 1
 78 593 70 623 70 653 c 0xf4
EndSplineSet
Refer: 18 46 N 1 0 0 1 120 0 2
Layer: 3
SplineSet
62 650 m 0xf4
 62 752 148 828 284 828 c 4
 412 828 497 756 497 636 c 0
 497 472 292 430 292 309 c 0
 292 289 297 269 306 250 c 1
 231 241 l 1
 219 265 212 290 212 314 c 0
 212 470 402 501 402 633 c 0
 402 725 344 757 282 757 c 0
 209 757 158 720 158 650 c 0
 158 628 161 605 171 585 c 1
 82 561 l 1
 70 589 62 620 62 650 c 0xf4
EndSplineSet
Refer: 18 46 N 1 0 0 1 120 0 2
Layer: 4
SplineSet
55 647 m 0xf4
 55 750 143 829 285 829 c 0
 419 829 505 754 505 634 c 0
 505 470 305 430 305 316 c 0
 305 297 309 279 317 262 c 1
 224 251 l 1
 211 275 205 298 205 323 c 0
 205 478 384 504 384 631 c 0
 384 716 332 741 281 741 c 0
 219 741 175 710 175 647 c 0
 175 627 178 605 187 587 c 1
 74 558 l 1
 61 586 55 617 55 647 c 0xf4
EndSplineSet
Refer: 18 46 S 1 0 0 1 120 0 2
Layer: 5
SplineSet
48 643 m 0xec
 48 746 139 830 286 830 c 0
 426 830 513 751 513 632 c 0
 513 468 319 431 319 323 c 0
 319 305 322 288 329 273 c 1
 218 261 l 1
 205 284 198 306 198 331 c 0
 198 486 368 507 368 628 c 0
 368 705 322 724 282 724 c 0
 232 724 193 699 193 643 c 0
 193 624 197 605 205 588 c 1
 68 554 l 1
 55 583 48 613 48 643 c 0xec
EndSplineSet
Refer: 18 46 S 1 0 0 1 120 0 2
Layer: 6
SplineSet
40 640 m 0xe4
 40 744 132 831 285 831 c 0
 432 831 520 749 520 630 c 0
 520 467 330 431 330 330 c 0xd4
 330 312 334 298 340 285 c 1
 210 270 l 1xe0
 197 292 190 315 190 340 c 0xd0
 190 494 350 510 350 625 c 0
 350 695 309 708 280 708 c 0
 241 708 210 689 210 640 c 0
 210 623 213 605 220 590 c 1
 60 550 l 1
 47 579 40 610 40 640 c 0xe4
EndSplineSet
Refer: 18 46 S 1 0 0 1 120 0 2
EndChar

StartChar: at
Encoding: 64 64 36
GlifName: at
Width: 1020
VWidth: 0
Flags: W
HStem: -190 37<375.64 601.378> 42 37<415.173 529.496 671.215 754.493> 518 42<507.417 637.12> 743 37<448.253 677.927>
VStem: 90 42<95.8569 382.457> 304 53<128.027 352.008> 656 50<304.016 504.309> 888 42<273.818 530.216>
LayerCount: 7
Back
SplineSet
670 306 m 4
 655 241 649 194 649 159 c 4
 649 95 658 71 698 71 c 4
 809 71 905 237 905 395 c 0
 905 581 791 740 558 740 c 0
 280 740 114 478 114 238 c 0
 114 36 232 -150 502 -150 c 0
 581 -150 666 -113 696 -95 c 1025
667 431 m 4
 667 480 639 522 578 522 c 4
 429 522 335 360 335 230 c 4
 335 144 378 70 470 70 c 4
 566 70 616 182 645 300 c 5
 645 300 667 395 667 431 c 4
EndSplineSet
Fore
SplineSet
70 238 m 0
 70 489 243 780 558 780 c 0
 821 780 950 595 950 395 c 0
 950 234 857 31 698 31 c 0
 641 31 612 57 598 88 c 1
 565 51 522 25 470 25 c 0
 321 25 275 141 275 230 c 0
 275 363 367 567 578 567 c 0
 682 567 717 488 717 431 c 0
 717 386 694 294 694 292 c 0
 684 232 678 187 678 157 c 0
 678 127 684 111 698 111 c 0
 761 111 860 240 860 395 c 0
 860 567 761 700 558 700 c 0
 317 700 160 467 160 238 c 0
 160 49 264 -110 502 -110 c 0
 566 -110 647 -76 671 -62 c 1
 721 -128 l 1
 685 -150 596 -190 502 -190 c 0
 200 -190 70 23 70 238 c 0
470 115 m 0
 531 115 566 180 586 308 c 0
 586 309 607 405 607 431 c 0
 607 472 589 477 578 477 c 0
 491 477 395 357 395 230 c 0
 395 147 435 115 470 115 c 0
EndSplineSet
PickledDataWithLists: "(dp0
Vcom.fontlab.hintData
p1
(dp2
Vhhints
p3
(lp4
(dp5
Vwidth
p6
L10L
sVposition
p7
L-179L
sa(dp8
g6
L10L
sg7
L-131L
sa(dp9
g6
L10L
sg7
L-76L
sa(dp10
g6
L10L
sg7
L38L
sa(dp11
g6
L10L
sg7
L92L
sa(dp12
g6
L10L
sg7
L352L
sa(dp13
g6
L10L
sg7
L399L
sa(dp14
g6
L10L
sg7
L490L
sa(dp15
g6
L10L
sg7
L544L
sa(dp16
g6
L10L
sg7
L711L
sa(dp17
g6
L10L
sg7
L759L
sasVvhints
p18
(lp19
(dp20
g6
L10L
sg7
L74L
sa(dp21
g6
L10L
sg7
L143L
sa(dp22
g6
L10L
sg7
L293L
sa(dp23
g6
L10L
sg7
L372L
sa(dp24
g6
L10L
sg7
L622L
sa(dp25
g6
L10L
sg7
L670L
sa(dp26
g6
L10L
sg7
L702L
sa(dp27
g6
L10L
sg7
L726L
sa(dp28
g6
L10L
sg7
L865L
sa(dp29
g6
L10L
sg7
L935L
sass."
Layer: 2
SplineSet
90 235 m 0
 90 491 261 780 559 780 c 0
 809 780 930 601 930 400 c 0
 930 234 835 42 700 42 c 0
 638 42 622 85 620 139 c 1
 586 80 539 38 473 38 c 0
 351 38 304 136 304 229 c 0
 304 369 403 560 588 560 c 0
 672 560 706 498 706 442 c 0
 706 400 694 356 681 301 c 0
 668 234 663 186 663 152 c 0
 663 95 675 79 700 79 c 0
 789 79 888 236 888 400 c 0
 888 589 779 743 559 743 c 0
 296 743 132 481 132 235 c 0
 132 29 245 -153 502 -153 c 0
 575 -153 659 -115 686 -98 c 1
 710 -129 l 1
 677 -150 589 -190 502 -190 c 0
 214 -190 90 17 90 235 c 0
473 80 m 0
 557 80 605 178 633 307 c 0
 646 360 656 408 656 442 c 0
 656 490 631 518 588 518 c 0
 457 518 357 365 357 229 c 0
 357 139 400 80 473 80 c 0
EndSplineSet
Layer: 3
SplineSet
85 236 m 0
 85 491 257 780 559 780 c 0
 812 780 935 598 935 398 c 0
 935 233 840 40 699 40 c 0
 638 40 618 77 613 121 c 1
 579 71 533 35 472 35 c 0
 343 35 297 137 297 229 c 0
 297 367 393 561 585 561 c 0
 674 561 708 495 708 439 c 0
 708 396 695 341 685 299 c 0
 673 234 667 186 667 153 c 0
 667 103 677 87 699 87 c 0
 781 87 881 236 881 398 c 0
 881 582 775 732 559 732 c 0
 301 732 139 478 139 236 c 0
 139 34 250 -142 502 -142 c 0
 572 -142 657 -105 683 -89 c 1
 713 -128 l 1
 679 -149 590 -190 502 -190 c 0
 210 -190 85 19 85 236 c 0
472 89 m 0
 550 89 594 178 621 307 c 0
 630 347 644 407 644 439 c 0
 644 485 620 508 585 508 c 0
 465 508 367 363 367 229 c 0
 367 141 408 89 472 89 c 0
EndSplineSet
Layer: 4
SplineSet
80 237 m 0
 80 491 251 780 558 780 c 0
 814 780 940 597 940 397 c 0
 940 233 846 37 699 37 c 0
 640 37 616 70 607 107 c 1
 573 63 529 32 472 32 c 0
 336 32 289 139 289 230 c 0
 289 366 385 563 583 563 c 0
 677 563 711 494 711 437 c 0
 711 393 695 324 688 296 c 0
 676 233 671 186 671 154 c 0
 671 111 679 95 699 95 c 0
 775 95 874 237 874 397 c 0
 874 577 770 721 558 721 c 0
 306 721 146 475 146 237 c 0
 146 40 254 -131 502 -131 c 0
 570 -131 653 -95 679 -80 c 1
 715 -128 l 1
 681 -149 592 -190 502 -190 c 0
 207 -190 80 21 80 237 c 0
472 97 m 0
 544 97 585 178 609 307 c 0
 615 334 631 407 631 437 c 0
 631 481 610 498 583 498 c 0
 474 498 376 362 376 230 c 0
 376 144 418 97 472 97 c 0
EndSplineSet
Layer: 5
SplineSet
75 237 m 4
 75 489 247 780 558 780 c 4
 818 780 945 596 945 396 c 4
 945 234 852 34 699 34 c 4
 641 34 614 63 602 97 c 5
 568 56 525 28 471 28 c 4
 329 28 282 140 282 230 c 4
 282 365 377 564 580 565 c 5
 581 565 l 5
 679 565 714 491 714 434 c 4
 714 390 694 309 691 294 c 4
 680 232 674 187 674 156 c 4
 674 119 682 103 699 103 c 4
 769 103 867 239 867 396 c 4
 867 572 765 711 558 711 c 4
 312 711 153 470 153 237 c 4
 153 44 259 -121 502 -121 c 4
 568 -121 650 -86 675 -71 c 5
 718 -128 l 5
 683 -150 594 -190 502 -190 c 4
 204 -190 75 21 75 237 c 4
471 106 m 4
 538 106 576 180 598 308 c 4
 601 322 619 406 619 434 c 4
 619 477 599 487 580 487 c 4
 482 486 385 359 385 230 c 4
 385 145 427 106 471 106 c 4
EndSplineSet
Layer: 6
SplineSet
70 238 m 0
 70 489 243 780 558 780 c 0
 821 780 950 595 950 395 c 0
 950 234 857 31 698 31 c 0
 641 31 612 57 598 88 c 1
 565 51 522 25 470 25 c 0
 321 25 275 141 275 230 c 0
 275 363 367 567 578 567 c 0
 682 567 717 488 717 431 c 0
 717 386 694 294 694 292 c 0
 684 232 678 187 678 157 c 0
 678 127 684 111 698 111 c 0
 761 111 860 240 860 395 c 0
 860 567 761 700 558 700 c 0
 317 700 160 467 160 238 c 0
 160 49 264 -110 502 -110 c 0
 566 -110 647 -76 671 -62 c 1
 721 -128 l 1
 685 -150 596 -190 502 -190 c 0
 200 -190 70 23 70 238 c 0
470 115 m 0
 531 115 566 180 586 308 c 0
 586 309 607 405 607 431 c 0
 607 472 589 477 578 477 c 0
 491 477 395 357 395 230 c 0
 395 147 435 115 470 115 c 0
EndSplineSet
EndChar

StartChar: A
Encoding: 65 65 37
GlifName: A_
Width: 790
VWidth: 0
Flags: W
HStem: 1 21G<35 122.935 667.065 755> 185 52<209 581> 760 20G<355.499 434.501>
LayerCount: 7
Fore
SplineSet
785 0 m 1
 595 0 l 1
 543 150 l 1
 247 150 l 1
 195 0 l 1
 5 0 l 1
 5 11 l 1
 325 780 l 1
 465 780 l 1
 785 11 l 1
 785 0 l 1
502 270 m 1
 395 578 l 1
 288 270 l 1
 502 270 l 1
EndSplineSet
PickledDataWithLists: "(dp0
Vcom.fontlab.hintData
p1
(dp2
Vhhints
p3
(lp4
(dp5
Vwidth
p6
L10L
sVposition
p7
L-16L
sa(dp8
g6
L10L
sg7
L3L
sa(dp9
g6
L10L
sg7
L179L
sa(dp10
g6
L10L
sg7
L209L
sa(dp11
g6
L10L
sg7
L271L
sa(dp12
g6
L10L
sg7
L810L
sasVvhints
p13
(lp14
(dp15
g6
L10L
sg7
L33L
sa(dp16
g6
L10L
sg7
L39L
sa(dp17
g6
L10L
sg7
L763L
sass."
Layer: 2
SplineSet
755 1 m 1
 675 1 l 1
 602 185 l 1
 188 185 l 1
 115 1 l 1
 35 1 l 1
 35 6 l 1
 364 780 l 1
 426 780 l 1
 755 6 l 1
 755 1 l 1
581 237 m 1
 395 702 l 1
 209 237 l 1
 581 237 l 1
EndSplineSet
Layer: 3
SplineSet
763 0 m 1
 655 0 l 1
 587 176 l 1
 203 176 l 1
 135 0 l 1
 27 0 l 1
 27 6 l 1
 355 780 l 1
 435 780 l 1
 763 6 l 1
 763 0 l 1
561 244 m 1
 395 676 l 1
 229 244 l 1
 561 244 l 1
EndSplineSet
Layer: 4
SplineSet
770 0 m 1
 634 0 l 1
 572 167 l 1
 218 167 l 1
 156 0 l 1
 20 0 l 1
 20 8 l 1
 345 780 l 1
 445 780 l 1
 770 8 l 1
 770 0 l 1
540 253 m 1
 395 645 l 1
 250 253 l 1
 540 253 l 1
EndSplineSet
Layer: 5
SplineSet
778 0 m 5
 615 0 l 5
 558 158 l 5
 232 158 l 5
 175 0 l 5
 12 0 l 5
 12 10 l 5
 334 780 l 5
 456 780 l 5
 778 10 l 5
 778 0 l 5
521 262 m 5
 395 611 l 5
 269 262 l 5
 521 262 l 5
EndSplineSet
Layer: 6
SplineSet
785 0 m 1
 595 0 l 1
 543 150 l 1
 247 150 l 1
 195 0 l 1
 5 0 l 1
 5 11 l 1
 325 780 l 1
 465 780 l 1
 785 11 l 1
 785 0 l 1
502 270 m 1
 395 578 l 1
 288 270 l 1
 502 270 l 1
EndSplineSet
Colour: ff00
EndChar

StartChar: B
Encoding: 66 66 38
GlifName: B_
Width: 770
VWidth: 0
Flags: W
HStem: -9 52<183.586 513.843> 388 49<182 457.671> 737 52<184.671 464.697>
VStem: 115 67<47 384 432 733> 542 68<507.911 671.639> 616 69<127.362 306.359>
LayerCount: 7
Back
SplineSet
0 953 m 1
 39 956 109 960 170 960 c 4
 282 960 370 914 370 812 c 0
 370 710 282 664 170 664 c 1028
EndSplineSet
Fore
SplineSet
551 440 m 1xf8
 653 406 715 337 715 235 c 0xf4
 715 85 580 -9 380 -9 c 0
 242 -9 85 0 85 0 c 1
 85 780 l 1
 85 780 231 789 355 789 c 0
 511 789 640 717 640 590 c 0
 640 519 603 471 551 440 c 1xf8
380 464 m 1
 425 470 475 502 475 575 c 0xf8
 475 643 423 670 335 670 c 0
 296 670 258 668 245 667 c 1
 245 462 l 1
 286 463 333 464 380 464 c 1
245 115 m 1
 276 113 321 111 360 111 c 0
 462 111 549 136 549 235 c 0xf4
 549 334 462 354 360 354 c 0
 321 354 276 352 245 350 c 1
 245 115 l 1
EndSplineSet
PickledDataWithLists: "(dp0
Vcom.fontlab.hintData
p1
(dp2
Vhhints
p3
(lp4
(dp5
Vwidth
p6
L10L
sVposition
p7
L-22L
sa(dp8
g6
L10L
sg7
L49L
sa(dp9
g6
L10L
sg7
L395L
sa(dp10
g6
L10L
sg7
L634L
sa(dp11
g6
L10L
sg7
L661L
sa(dp12
g6
L10L
sg7
L742L
sa(dp13
g6
L10L
sg7
L809L
sasVvhints
p14
(lp15
(dp16
g6
L10L
sg7
L26L
sa(dp17
g6
L10L
sg7
L116L
sa(dp18
g6
L10L
sg7
L121L
sa(dp19
g6
L10L
sg7
L223L
sa(dp20
g6
L10L
sg7
L537L
sa(dp21
g6
L10L
sg7
L636L
sa(dp22
g6
L10L
sg7
L735L
sass."
Layer: 2
SplineSet
488 426 m 1
 605 401 685 331 685 216 c 0
 685 68 553 -9 379 -9 c 0
 276 -9 152 -3 115 0 c 1
 115 780 l 1
 147 783 253 789 344 789 c 0
 490 789 610 725 610 595 c 0
 610 509 559 454 488 426 c 1
379 437 m 1
 463 446 542 494 542 590 c 0
 542 692 456 737 338 737 c 0
 279 737 217 735 182 733 c 1
 182 432 l 1
 235 435 310 437 379 437 c 1
182 47 m 1
 228 45 307 43 373 43 c 0
 510 43 616 94 616 216 c 0
 616 338 510 388 373 388 c 0
 307 388 228 386 182 384 c 1
 182 47 l 1
EndSplineSet
Layer: 3
SplineSet
505 430 m 1xf8
 618 402 693 332 693 221 c 0xf4
 693 73 560 -9 380 -9 c 0
 268 -9 136 -2 108 0 c 1
 108 780 l 1
 132 782 248 789 348 789 c 0
 496 789 618 723 618 594 c 0
 618 512 570 459 505 430 c 1xf8
380 444 m 1
 454 452 526 497 526 587 c 0xf8
 526 681 448 721 338 721 c 0
 283 721 226 718 198 716 c 1
 198 439 l 1
 249 442 316 444 380 444 c 1
198 64 m 1
 240 62 310 60 370 60 c 0
 498 60 600 105 600 221 c 0xf4
 600 337 498 380 370 380 c 0
 310 380 240 378 198 376 c 1
 198 64 l 1
EndSplineSet
Layer: 4
SplineSet
520 433 m 1xf8
 630 403 700 334 700 226 c 0xf4
 700 77 567 -9 380 -9 c 0
 259 -9 118 -1 100 0 c 1
 100 780 l 1
 116 781 242 789 350 789 c 0
 501 789 625 721 625 593 c 0
 625 514 580 463 520 433 c 1xf8
380 450 m 1
 445 457 508 499 508 583 c 0xf8
 508 668 439 704 336 704 c 0
 285 704 235 700 213 699 c 1
 213 446 l 1
 262 448 322 450 380 450 c 1
213 81 m 1
 250 79 312 77 366 77 c 0
 485 77 582 115 582 226 c 0xf4
 582 337 485 371 366 371 c 0
 312 371 250 369 213 367 c 1
 213 81 l 1
EndSplineSet
Layer: 5
SplineSet
536 436 m 5xf8
 642 404 707 335 707 230 c 4xf4
 707 80 573 -9 379 -9 c 4
 250 -9 101 -1 92 0 c 5
 92 780 l 5
 100 781 236 789 352 789 c 4
 506 789 632 719 632 591 c 4
 632 516 592 467 536 436 c 5xf8
379 457 m 5
 434 464 491 500 491 579 c 4xf8
 491 655 431 687 335 687 c 4
 290 687 247 685 229 684 c 5
 229 454 l 5
 274 456 327 457 379 457 c 5
229 98 m 5
 264 96 317 94 363 94 c 4
 474 94 565 125 565 230 c 4xf4
 565 335 474 362 363 362 c 4
 317 362 264 360 229 358 c 5
 229 98 l 5
EndSplineSet
Layer: 6
SplineSet
551 440 m 1xf8
 653 406 715 337 715 235 c 0xf4
 715 85 580 -9 380 -9 c 0
 242 -9 85 0 85 0 c 1
 85 780 l 1
 85 780 231 789 355 789 c 0
 511 789 640 717 640 590 c 0
 640 519 603 471 551 440 c 1xf8
380 464 m 1
 425 470 475 502 475 575 c 0xf8
 475 643 423 670 335 670 c 0
 296 670 258 668 245 667 c 1
 245 462 l 1
 286 463 333 464 380 464 c 1
245 115 m 1
 276 113 321 111 360 111 c 0
 462 111 549 136 549 235 c 0xf4
 549 334 462 354 360 354 c 0
 321 354 276 352 245 350 c 1
 245 115 l 1
EndSplineSet
Colour: ff00
EndChar

StartChar: C
Encoding: 67 67 39
GlifName: C_
Width: 765
VWidth: 0
Flags: W
HStem: -17 55<295.216 522.955> 742 55<295.216 522.955>
VStem: 75 74<211.11 568.89> 627 73<132.813 185.805 594.195 647.187>
LayerCount: 7
Back
SplineSet
644 209 m 5
 632 143 561 45 412 45 c 4
 209 45 134 202 134 378 c 6
 134 410 l 6
 134 586 209 743 412 743 c 4
 561 743 632 645 644 579 c 1029
EndSplineSet
Fore
SplineSet
45 375 m 2
 45 405 l 2
 45 580 123 801 412 801 c 0
 624 801 715 664 730 582 c 1
 556 566 l 1
 547 616 498 673 412 673 c 0
 295 673 223 582 223 405 c 2
 223 375 l 2
 223 198 295 107 412 107 c 0
 498 107 547 164 556 214 c 1
 730 198 l 1
 715 116 624 -21 412 -21 c 0
 123 -21 45 200 45 375 c 2
EndSplineSet
PickledDataWithLists: "(dp0
Vcom.fontlab.hintData
p1
(dp2
Vhhints
p3
(lp4
(dp5
Vwidth
p6
L10L
sVposition
p7
L-20L
sa(dp8
g6
L10L
sg7
L52L
sa(dp9
g6
L10L
sg7
L169L
sa(dp10
g6
L10L
sg7
L586L
sa(dp11
g6
L10L
sg7
L739L
sa(dp12
g6
L10L
sg7
L811L
sasVvhints
p13
(lp14
(dp15
g6
L10L
sg7
L68L
sa(dp16
g6
L10L
sg7
L172L
sa(dp17
g6
L10L
sg7
L569L
sa(dp18
g6
L10L
sg7
L673L
sa(dp19
g6
L10L
sg7
L707L
sass."
Layer: 2
SplineSet
75 407 m 2
 75 599 158 797 413 797 c 0
 600 797 686 674 700 595 c 1
 627 588 l 1
 615 653 548 742 413 742 c 0
 229 742 149 597 149 407 c 2
 149 373 l 2
 149 183 229 38 413 38 c 0
 548 38 615 127 627 192 c 1
 700 185 l 1
 686 106 600 -17 413 -17 c 0
 158 -17 75 181 75 373 c 2
 75 407 l 2
EndSplineSet
Layer: 3
SplineSet
68 405 m 2
 68 593 149 797 413 797 c 0
 607 797 694 671 708 591 c 1
 610 581 l 1
 598 642 535 724 413 724 c 0
 245 724 168 592 168 405 c 2
 168 373 l 2
 168 186 245 54 413 54 c 0
 535 54 598 136 610 197 c 1
 708 187 l 1
 694 107 607 -19 413 -19 c 0
 149 -19 68 185 68 373 c 2
 68 405 l 2
EndSplineSet
Layer: 4
SplineSet
60 406 m 2
 60 590 140 799 412 799 c 0
 612 799 700 670 715 589 c 1
 592 577 l 1
 581 634 522 708 412 708 c 0
 261 708 186 590 186 406 c 2
 186 374 l 2
 186 190 261 72 412 72 c 0
 522 72 581 146 592 203 c 1
 715 191 l 1
 700 110 612 -19 412 -19 c 0
 140 -19 60 190 60 374 c 2
 60 406 l 2
EndSplineSet
Layer: 5
SplineSet
52 406 m 6
 52 585 132 800 412 800 c 4
 618 800 707 666 722 585 c 5
 573 572 l 5
 563 626 510 690 412 690 c 4
 278 690 204 586 204 406 c 6
 204 374 l 6
 204 194 278 90 412 90 c 4
 510 90 563 154 573 208 c 5
 722 195 l 5
 707 114 618 -20 412 -20 c 4
 132 -20 52 195 52 374 c 6
 52 406 l 6
EndSplineSet
Layer: 6
SplineSet
45 375 m 2
 45 405 l 2
 45 580 123 801 412 801 c 0
 624 801 715 664 730 582 c 1
 556 566 l 1
 547 616 498 673 412 673 c 0
 295 673 223 582 223 405 c 2
 223 375 l 2
 223 198 295 107 412 107 c 0
 498 107 547 164 556 214 c 1
 730 198 l 1
 715 116 624 -21 412 -21 c 0
 123 -21 45 200 45 375 c 2
EndSplineSet
Colour: ff00
EndChar

StartChar: D
Encoding: 68 68 40
GlifName: D_
Width: 780
VWidth: 0
Flags: W
HStem: -9 53<185.831 451.518> 736 53<185.831 451.518>
VStem: 115 70<46.6195 733.381> 634 71<222.691 557.309>
LayerCount: 7
Back
SplineSet
165 729 m 5
 165 729 258 732 305 732 c 4
 558 732 645 584 645 410 c 6
 645 370 l 6
 645 196 558 48 305 48 c 4
 258 48 165 51 165 51 c 1029
EndSplineSet
Fore
SplineSet
255 114 m 1
 274 114 294 113 310 113 c 0
 495 113 565 215 565 380 c 2
 565 400 l 2
 565 565 495 667 310 667 c 0
 294 667 274 666 255 666 c 1
 255 114 l 1
85 780 m 1
 85 780 197 789 310 789 c 0
 631 789 735 583 735 400 c 2
 735 380 l 2
 735 197 631 -9 310 -9 c 0
 197 -9 85 0 85 0 c 1
 85 780 l 1
EndSplineSet
PickledDataWithLists: "(dp0
Vcom.fontlab.hintData
p1
(dp2
Vhhints
p3
(lp4
(dp5
Vwidth
p6
L10L
sVposition
p7
L-21L
sa(dp8
g6
L10L
sg7
L49L
sa(dp9
g6
L10L
sg7
L634L
sa(dp10
g6
L10L
sg7
L661L
sa(dp11
g6
L10L
sg7
L742L
sa(dp12
g6
L10L
sg7
L810L
sasVvhints
p13
(lp14
(dp15
g6
L10L
sg7
L26L
sa(dp16
g6
L10L
sg7
L116L
sa(dp17
g6
L10L
sg7
L121L
sa(dp18
g6
L10L
sg7
L223L
sa(dp19
g6
L10L
sg7
L630L
sa(dp20
g6
L10L
sg7
L729L
sass."
Layer: 2
SplineSet
185 48 m 1
 217 46 265 44 297 44 c 0
 547 44 634 188 634 372 c 2
 634 408 l 2
 634 592 547 736 297 736 c 0
 265 736 217 734 185 732 c 1
 185 48 l 1
115 780 m 1
 115 780 223 789 297 789 c 0
 602 789 705 601 705 408 c 2
 705 372 l 2
 705 179 602 -9 297 -9 c 0
 223 -9 115 0 115 0 c 1
 115 780 l 1
EndSplineSet
Layer: 3
SplineSet
203 64 m 1
 233 63 272 61 300 61 c 0
 534 61 618 195 618 374 c 2
 618 406 l 2
 618 585 534 719 300 719 c 0
 272 719 233 717 203 716 c 1
 203 64 l 1
108 780 m 1
 108 780 216 789 300 789 c 0
 609 789 713 596 713 406 c 2
 713 374 l 2
 713 184 609 -9 300 -9 c 0
 216 -9 108 0 108 0 c 1
 108 780 l 1
EndSplineSet
Layer: 4
SplineSet
220 80 m 1
 247 79 279 78 303 78 c 0
 521 78 600 202 600 376 c 2
 600 404 l 2
 600 578 521 702 303 702 c 0
 279 702 247 701 220 700 c 1
 220 80 l 1
100 780 m 1
 100 780 210 789 303 789 c 0
 616 789 720 592 720 404 c 2
 720 376 l 2
 720 188 616 -9 303 -9 c 0
 210 -9 100 0 100 0 c 1
 100 780 l 1
EndSplineSet
Layer: 5
SplineSet
237 97 m 5
 260 96 286 96 306 96 c 4
 507 96 582 208 582 378 c 6
 582 402 l 6
 582 572 507 684 306 684 c 4
 286 684 260 684 237 683 c 5
 237 97 l 5
92 780 m 5
 92 780 203 789 306 789 c 4
 623 789 727 588 727 402 c 6
 727 378 l 6
 727 192 623 -9 306 -9 c 4
 203 -9 92 0 92 0 c 5
 92 780 l 5
EndSplineSet
Layer: 6
SplineSet
255 114 m 1
 274 114 294 113 310 113 c 0
 495 113 565 215 565 380 c 2
 565 400 l 2
 565 565 495 667 310 667 c 0
 294 667 274 666 255 666 c 1
 255 114 l 1
85 780 m 1
 85 780 197 789 310 789 c 0
 631 789 735 583 735 400 c 2
 735 380 l 2
 735 197 631 -9 310 -9 c 0
 197 -9 85 0 85 0 c 1
 85 780 l 1
EndSplineSet
EndChar

StartChar: E
Encoding: 69 69 41
GlifName: E_
Width: 700
VWidth: 0
Flags: W
HStem: 0 55<186 615> 359 52<186 568> 725 55<186 600>
VStem: 115 71<55 359 411 725>
LayerCount: 7
Fore
SplineSet
85 0 m 1
 85 780 l 1
 630 780 l 1
 630 650 l 1
 255 650 l 1
 255 445 l 1
 590 445 l 1
 590 325 l 1
 255 325 l 1
 255 130 l 1
 645 130 l 1
 645 0 l 1
 85 0 l 1
EndSplineSet
PickledDataWithLists: "(dp0
Vcom.fontlab.hintData
p1
(dp2
Vhhints
p3
(lp4
(dp5
Vwidth
p6
L10L
sVposition
p7
L-24L
sa(dp8
g6
L10L
sg7
L-9L
sa(dp9
g6
L10L
sg7
L46L
sa(dp10
g6
L10L
sg7
L59L
sa(dp11
g6
L10L
sg7
L361L
sa(dp12
g6
L10L
sg7
L423L
sa(dp13
g6
L10L
sg7
L726L
sa(dp14
g6
L10L
sg7
L794L
sa(dp15
g6
L10L
sg7
L799L
sa(dp16
g6
L10L
sg7
L804L
sasVvhints
p17
(lp18
(dp19
g6
L10L
sg7
L66L
sa(dp20
g6
L10L
sg7
L106L
sa(dp21
g6
L10L
sg7
L121L
sa(dp22
g6
L10L
sg7
L204L
sa(dp23
g6
L10L
sg7
L220L
sa(dp24
g6
L10L
sg7
L564L
sa(dp25
g6
L10L
sg7
L644L
sa(dp26
g6
L10L
sg7
L674L
sass."
Layer: 2
SplineSet
115 0 m 1
 115 780 l 1
 600 780 l 1
 600 725 l 1
 186 725 l 1
 186 411 l 1
 568 411 l 1
 568 359 l 1
 186 359 l 1
 186 55 l 1
 615 55 l 1
 615 0 l 1
 115 0 l 1
EndSplineSet
Layer: 3
SplineSet
108 0 m 1
 108 780 l 1
 608 780 l 1
 608 706 l 1
 204 706 l 1
 204 420 l 1
 574 420 l 1
 574 350 l 1
 204 350 l 1
 204 74 l 1
 623 74 l 1
 623 0 l 1
 108 0 l 1
EndSplineSet
Layer: 4
SplineSet
100 0 m 1
 100 780 l 1
 615 780 l 1
 615 687 l 1
 220 687 l 1
 220 428 l 1
 579 428 l 1
 579 342 l 1
 220 342 l 1
 220 93 l 1
 630 93 l 1
 630 0 l 1
 100 0 l 1
EndSplineSet
Layer: 5
SplineSet
92 0 m 5
 92 780 l 5
 622 780 l 5
 622 669 l 5
 237 669 l 5
 237 436 l 5
 584 436 l 5
 584 334 l 5
 237 334 l 5
 237 111 l 5
 637 111 l 5
 637 0 l 5
 92 0 l 5
EndSplineSet
Layer: 6
SplineSet
85 0 m 1
 85 780 l 1
 630 780 l 1
 630 650 l 1
 255 650 l 1
 255 445 l 1
 590 445 l 1
 590 325 l 1
 255 325 l 1
 255 130 l 1
 645 130 l 1
 645 0 l 1
 85 0 l 1
EndSplineSet
Colour: ff00
EndChar

StartChar: F
Encoding: 70 70 42
GlifName: F_
Width: 670
VWidth: 0
Flags: W
HStem: 0 21G<115 186> 357 56<186 558> 725 55<186 590>
VStem: 115 71<0 357 413 725>
LayerCount: 7
Fore
SplineSet
80 0 m 1
 80 780 l 1
 615 780 l 1
 615 650 l 1
 252 650 l 1
 252 450 l 1
 575 450 l 1
 575 320 l 1
 252 320 l 1
 252 0 l 1
 80 0 l 1
EndSplineSet
PickledDataWithLists: "(dp0
Vcom.fontlab.hintData
p1
(dp2
Vhhints
p3
(lp4
(dp5
Vwidth
p6
L10L
sVposition
p7
L-14L
sa(dp8
g6
L10L
sg7
L355L
sa(dp9
g6
L10L
sg7
L360L
sa(dp10
g6
L10L
sg7
L423L
sa(dp11
g6
L10L
sg7
L726L
sa(dp12
g6
L10L
sg7
L794L
sa(dp13
g6
L10L
sg7
L799L
sa(dp14
g6
L10L
sg7
L804L
sasVvhints
p15
(lp16
(dp17
g6
L10L
sg7
L59L
sa(dp18
g6
L10L
sg7
L66L
sa(dp19
g6
L10L
sg7
L116L
sa(dp20
g6
L10L
sg7
L124L
sa(dp21
g6
L10L
sg7
L214L
sa(dp22
g6
L10L
sg7
L222L
sa(dp23
g6
L10L
sg7
L564L
sa(dp24
g6
L10L
sg7
L644L
sass."
Layer: 2
SplineSet
115 0 m 1
 115 780 l 1
 590 780 l 1
 590 725 l 1
 186 725 l 1
 186 413 l 1
 558 413 l 1
 558 357 l 1
 186 357 l 1
 186 0 l 1
 115 0 l 1
EndSplineSet
Layer: 3
SplineSet
108 0 m 1
 108 780 l 1
 598 780 l 1
 598 706 l 1
 204 706 l 1
 204 422 l 1
 564 422 l 1
 564 348 l 1
 204 348 l 1
 204 0 l 1
 108 0 l 1
EndSplineSet
Layer: 4
SplineSet
100 0 m 1
 100 780 l 1
 605 780 l 1
 605 687 l 1
 222 687 l 1
 222 431 l 1
 569 431 l 1
 569 339 l 1
 222 339 l 1
 222 0 l 1
 100 0 l 1
EndSplineSet
Layer: 5
SplineSet
92 0 m 5
 92 780 l 5
 612 780 l 5
 612 669 l 5
 239 669 l 5
 239 441 l 5
 574 441 l 5
 574 329 l 5
 239 329 l 5
 239 0 l 5
 92 0 l 5
EndSplineSet
Layer: 6
SplineSet
80 0 m 1
 80 780 l 1
 615 780 l 1
 615 650 l 1
 252 650 l 1
 252 450 l 1
 575 450 l 1
 575 320 l 1
 252 320 l 1
 252 0 l 1
 80 0 l 1
EndSplineSet
Colour: ff00
EndChar

StartChar: G
Encoding: 71 71 43
GlifName: G_
Width: 770
VWidth: 0
Flags: W
HStem: -17 54<294.716 542.522> 320 51<424 630> 743 54<294.716 523.081>
VStem: 75 73<209.992 570.008> 630 65<107.741 320 594.645 646.218>
LayerCount: 7
Back
SplineSet
397 345 m 25
 628 345 l 25
 628 180 l 1
 616 138 546 39 403 39 c 0
 204 39 132 196 132 370 c 2
 132 410 l 2
 132 584 204 741 403 741 c 0
 551 741 621 643 633 576 c 1025
EndSplineSet
Fore
SplineSet
415 285 m 1
 415 405 l 1
 725 405 l 1
 725 135 l 1
 684 66 586 -21 412 -21 c 0
 123 -21 45 200 45 375 c 2
 45 405 l 2
 45 580 123 801 412 801 c 0
 624 801 715 664 730 582 c 1
 558 566 l 1
 549 616 500 675 412 675 c 0
 291 675 219 586 219 405 c 2
 219 375 l 2
 219 194 291 105 412 105 c 0
 498 105 544 131 570 160 c 1
 570 285 l 1
 415 285 l 1
EndSplineSet
PickledDataWithLists: "(dp0
Vcom.fontlab.hintData
p1
(dp2
Vhhints
p3
(lp4
(dp5
Vwidth
p6
L10L
sVposition
p7
L-24L
sa(dp8
g6
L10L
sg7
L44L
sa(dp9
g6
L10L
sg7
L290L
sa(dp10
g6
L10L
sg7
L390L
sa(dp11
g6
L10L
sg7
L587L
sa(dp12
g6
L10L
sg7
L741L
sa(dp13
g6
L10L
sg7
L810L
sasVvhints
p14
(lp15
(dp16
g6
L10L
sg7
L71L
sa(dp17
g6
L10L
sg7
L169L
sa(dp18
g6
L10L
sg7
L386L
sa(dp19
g6
L10L
sg7
L572L
sa(dp20
g6
L10L
sg7
L615L
sa(dp21
g6
L10L
sg7
L670L
sa(dp22
g6
L10L
sg7
L715L
sass."
Layer: 2
SplineSet
424 320 m 1
 424 371 l 1
 695 371 l 1
 695 139 l 1
 669 76 584 -17 413 -17 c 0
 158 -17 75 181 75 373 c 2
 75 407 l 2
 75 599 158 797 413 797 c 0
 600 797 686 674 700 595 c 1
 628 588 l 1
 616 653 548 743 413 743 c 0
 227 743 148 599 148 407 c 2
 148 373 l 2
 148 181 227 37 413 37 c 0
 541 37 602 93 630 143 c 1
 630 320 l 1
 424 320 l 1
EndSplineSet
Layer: 3
SplineSet
422 311 m 1
 422 379 l 1
 703 379 l 1
 703 138 l 1
 673 74 585 -18 413 -18 c 0
 149 -18 68 185 68 373 c 2
 68 407 l 2
 68 595 149 798 413 798 c 0
 607 798 694 672 708 592 c 1
 611 583 l 1
 599 644 537 726 413 726 c 0
 243 726 166 596 166 407 c 2
 166 373 l 2
 166 184 243 54 413 54 c 0
 531 54 588 103 616 147 c 1
 616 311 l 1
 422 311 l 1
EndSplineSet
Layer: 4
SplineSet
419 302 m 1
 419 388 l 1
 710 388 l 1
 710 137 l 1
 677 71 585 -19 412 -19 c 0
 140 -19 60 190 60 374 c 2
 60 406 l 2
 60 590 140 799 412 799 c 0
 612 799 700 670 715 589 c 1
 593 577 l 1
 582 634 524 709 412 709 c 0
 259 709 183 592 183 406 c 2
 183 374 l 2
 183 188 259 71 412 71 c 0
 519 71 572 112 600 151 c 1
 600 302 l 1
 419 302 l 1
EndSplineSet
Layer: 5
SplineSet
417 294 m 5
 417 397 l 5
 717 397 l 5
 717 136 l 5
 680 68 585 -20 412 -20 c 4
 132 -20 52 196 52 375 c 6
 52 405 l 6
 52 584 132 800 412 800 c 4
 618 800 707 666 722 585 c 5
 575 571 l 5
 565 625 512 692 412 692 c 4
 275 692 201 589 201 405 c 6
 201 375 l 6
 201 191 275 88 412 88 c 4
 508 88 557 120 584 154 c 5
 584 294 l 5
 417 294 l 5
EndSplineSet
Layer: 6
SplineSet
415 285 m 1
 415 405 l 1
 725 405 l 1
 725 135 l 1
 684 66 586 -21 412 -21 c 0
 123 -21 45 200 45 375 c 2
 45 405 l 2
 45 580 123 801 412 801 c 0
 624 801 715 664 730 582 c 1
 558 566 l 1
 549 616 500 675 412 675 c 0
 291 675 219 586 219 405 c 2
 219 375 l 2
 219 194 291 105 412 105 c 0
 498 105 544 131 570 160 c 1
 570 285 l 1
 415 285 l 1
EndSplineSet
Colour: ff00
EndChar

StartChar: H
Encoding: 72 72 44
GlifName: H_
Width: 810
VWidth: 0
Flags: W
HStem: 0 21G<115 186 624 695> 362 56<186 624> 760 20G<115 186 624 695>
VStem: 115 71<0 362 418 780> 624 71<0 362 418 780>
LayerCount: 7
Fore
SplineSet
85 0 m 1
 85 780 l 1
 255 780 l 1
 255 455 l 1
 555 455 l 1
 555 780 l 1
 725 780 l 1
 725 0 l 1
 555 0 l 1
 555 325 l 1
 255 325 l 1
 255 0 l 1
 85 0 l 1
EndSplineSet
PickledDataWithLists: "(dp0
Vcom.fontlab.hintData
p1
(dp2
Vhhints
p3
(lp4
(dp5
Vwidth
p6
L10L
sVposition
p7
L-14L
sa(dp8
g6
L10L
sg7
L355L
sa(dp9
g6
L10L
sg7
L423L
sa(dp10
g6
L10L
sg7
L794L
sa(dp11
g6
L10L
sg7
L799L
sasVvhints
p12
(lp13
(dp14
g6
L10L
sg7
L66L
sa(dp15
g6
L10L
sg7
L101L
sa(dp16
g6
L10L
sg7
L111L
sa(dp17
g6
L10L
sg7
L211L
sa(dp18
g6
L10L
sg7
L605L
sa(dp19
g6
L10L
sg7
L704L
sa(dp20
g6
L10L
sg7
L744L
sass."
Layer: 2
SplineSet
115 0 m 1
 115 780 l 1
 186 780 l 1
 186 418 l 1
 624 418 l 1
 624 780 l 1
 695 780 l 1
 695 0 l 1
 624 0 l 1
 624 362 l 1
 186 362 l 1
 186 0 l 1
 115 0 l 1
EndSplineSet
Layer: 3
SplineSet
107 0 m 1
 107 780 l 1
 203 780 l 1
 203 427 l 1
 608 427 l 1
 608 780 l 1
 703 780 l 1
 703 0 l 1
 608 0 l 1
 608 353 l 1
 203 353 l 1
 203 0 l 1
 107 0 l 1
EndSplineSet
Layer: 4
SplineSet
100 0 m 1
 100 780 l 1
 220 780 l 1
 220 436 l 1
 590 436 l 1
 590 780 l 1
 710 780 l 1
 710 0 l 1
 590 0 l 1
 590 344 l 1
 220 344 l 1
 220 0 l 1
 100 0 l 1
EndSplineSet
Layer: 5
SplineSet
92 0 m 5
 92 780 l 5
 237 780 l 5
 237 446 l 5
 573 446 l 5
 573 780 l 5
 718 780 l 5
 718 0 l 5
 573 0 l 5
 573 334 l 5
 237 334 l 5
 237 0 l 5
 92 0 l 5
EndSplineSet
Layer: 6
SplineSet
85 0 m 1
 85 780 l 1
 255 780 l 1
 255 455 l 1
 555 455 l 1
 555 780 l 1
 725 780 l 1
 725 0 l 1
 555 0 l 1
 555 325 l 1
 255 325 l 1
 255 0 l 1
 85 0 l 1
EndSplineSet
Colour: ff00
EndChar

StartChar: I
Encoding: 73 73 45
GlifName: I_
Width: 340
VWidth: 0
Flags: W
HStem: 0 21G<135 205> 760 20G<135 205>
VStem: 135 70<0 780>
LayerCount: 7
Back
SplineSet
240 780 m 29
 240 0 l 1053
EndSplineSet
Fore
SplineSet
85 0 m 1
 85 780 l 1
 255 780 l 1
 255 0 l 1
 85 0 l 1
EndSplineSet
PickledDataWithLists: "(dp0
Vcom.fontlab.hintData
p1
(dp2
Vhhints
p3
(lp4
(dp5
Vwidth
p6
L10L
sVposition
p7
L-3L
sa(dp8
g6
L10L
sg7
L3L
sa(dp9
g6
L10L
sg7
L59L
sa(dp10
g6
L10L
sg7
L67L
sa(dp11
g6
L10L
sg7
L729L
sa(dp12
g6
L10L
sg7
L788L
sasVvhints
p13
(lp14
(dp15
g6
L10L
sg7
L53L
sa(dp16
g6
L10L
sg7
L77L
sa(dp17
g6
L10L
sg7
L188L
sa(dp18
g6
L10L
sg7
L194L
sa(dp19
g6
L10L
sg7
L282L
sa(dp20
g6
L10L
sg7
L288L
sa(dp21
g6
L10L
sg7
L414L
sass."
Layer: 2
SplineSet
135 0 m 1
 135 780 l 1
 205 780 l 1
 205 0 l 1
 135 0 l 1
EndSplineSet
Layer: 3
SplineSet
122 0 m 1
 122 780 l 1
 218 780 l 1
 218 0 l 1
 122 0 l 1
EndSplineSet
Layer: 4
SplineSet
110 0 m 1
 110 780 l 1
 230 780 l 1
 230 0 l 1
 110 0 l 1
EndSplineSet
Layer: 5
SplineSet
97 0 m 5
 97 780 l 5
 243 780 l 5
 243 0 l 5
 97 0 l 5
EndSplineSet
Layer: 6
SplineSet
85 0 m 1
 85 780 l 1
 255 780 l 1
 255 0 l 1
 85 0 l 1
EndSplineSet
Colour: ff00
EndChar

StartChar: J
Encoding: 74 74 46
GlifName: J_
Width: 525
VWidth: 0
Flags: W
HStem: -17 53<146.362 305.205> 760 20G<344 415>
VStem: 35 71<77.0781 132.71> 344 71<76.8559 780>
LayerCount: 7
Back
SplineSet
270 960 m 5
 270 880 216 830 135 830 c 4
 54 830 9 880 0 940 c 1029
EndSplineSet
Fore
SplineSet
5 143 m 1
 175 155 l 1
 182 109 204 99 225 99 c 0
 245 99 275 106 275 169 c 2
 275 780 l 1
 445 780 l 1
 445 169 l 2
 445 72 369 -21 225 -21 c 0
 82 -21 16 69 5 143 c 1
EndSplineSet
PickledDataWithLists: "(dp0
Vcom.fontlab.hintData
p1
(dp2
Vhhints
p3
(lp4
(dp5
Vwidth
p6
L10L
sVposition
p7
L-14L
sa(dp8
g6
L9L
sg7
L55L
sa(dp9
g6
L10L
sg7
L129L
sa(dp10
g6
L10L
sg7
L730L
sa(dp11
g6
L10L
sg7
L788L
sasVvhints
p12
(lp13
(dp14
g6
L10L
sg7
L16L
sa(dp15
g6
L10L
sg7
L152L
sa(dp16
g6
L10L
sg7
L318L
sa(dp17
g6
L10L
sg7
L412L
sa(dp18
g6
L10L
sg7
L492L
sass."
Layer: 2
SplineSet
35 132 m 1
 106 138 l 1
 116 76 157 36 225 36 c 0
 292 36 344 74 344 158 c 2
 344 780 l 1
 415 780 l 1
 415 158 l 2
 415 58 344 -17 225 -17 c 0
 107 -17 46 57 35 132 c 1
EndSplineSet
Layer: 3
SplineSet
28 136 m 1
 124 143 l 1
 133 85 170 53 226 53 c 0
 282 53 327 84 327 162 c 2
 327 781 l 1
 423 781 l 1
 423 162 l 2
 423 63 351 -17 226 -17 c 0
 102 -17 39 62 28 136 c 1
EndSplineSet
Layer: 4
SplineSet
20 138 m 1
 141 147 l 1
 149 93 181 67 225 67 c 0
 269 67 309 91 309 164 c 2
 309 780 l 1
 430 780 l 1
 430 164 l 2
 430 66 356 -19 225 -19 c 0
 94 -19 31 64 20 138 c 1
EndSplineSet
Layer: 5
SplineSet
12 140 m 5
 157 151 l 5
 165 101 191 83 224 83 c 4
 256 83 292 98 292 166 c 6
 292 780 l 5
 437 780 l 5
 437 166 l 6
 437 68 362 -20 224 -20 c 4
 87 -20 23 66 12 140 c 5
EndSplineSet
Layer: 6
SplineSet
5 143 m 1
 175 155 l 1
 182 109 204 99 225 99 c 0
 245 99 275 106 275 169 c 2
 275 780 l 1
 445 780 l 1
 445 169 l 2
 445 72 369 -21 225 -21 c 0
 82 -21 16 69 5 143 c 1
EndSplineSet
Colour: ff00
EndChar

StartChar: K
Encoding: 75 75 47
GlifName: K_
Width: 735
VWidth: 0
Flags: W
HStem: 0 21G<115 183 605.619 705> 760 20G<115 183 555.814 652>
VStem: 115 68<0 274 350 780>
LayerCount: 7
Back
SplineSet
680 0 m 29
 325 450 l 1053
620 780 m 29
 145 270 l 1053
EndSplineSet
Fore
SplineSet
85 0 m 1
 85 780 l 1
 249 780 l 1
 249 467 l 1
 515 780 l 1
 705 767 l 1
 705 759 l 1
 402 445 l 1
 735 8 l 1
 735 0 l 1
 536 0 l 1
 293 332 l 1
 249 287 l 1
 249 0 l 1
 85 0 l 1
EndSplineSet
PickledDataWithLists: "(dp0
Vcom.fontlab.hintData
p1
(dp2
Vhhints
p3
(lp4
(dp5
Vwidth
p6
L10L
sVposition
p7
L-14L
sa(dp8
g6
L10L
sg7
L-9L
sa(dp9
g6
L10L
sg7
L799L
sasVvhints
p10
(lp11
(dp12
g6
L10L
sg7
L64L
sa(dp13
g6
L10L
sg7
L86L
sa(dp14
g6
L10L
sg7
L116L
sa(dp15
g6
L10L
sg7
L211L
sa(dp16
g6
L10L
sg7
L219L
sa(dp17
g6
L10L
sg7
L679L
sa(dp18
g6
L10L
sg7
L734L
sass."
Layer: 2
SplineSet
115 0 m 1
 115 780 l 1
 183 780 l 1
 183 350 l 1
 574 780 l 1
 652 774 l 1
 652 770 l 1
 353 454 l 1
 705 4 l 1
 705 0 l 1
 621 0 l 1
 308 407 l 1
 183 274 l 1
 183 0 l 1
 115 0 l 1
EndSplineSet
Layer: 3
SplineSet
107 0 m 1
 107 780 l 1
 199 780 l 1
 199 378 l 1
 558 780 l 1
 664 772 l 1
 664 768 l 1
 365 452 l 1
 712 5 l 1
 712 0 l 1
 599 0 l 1
 304 388 l 1
 199 276 l 1
 199 0 l 1
 107 0 l 1
EndSplineSet
Layer: 4
SplineSet
100 0 m 1
 100 780 l 1
 216 780 l 1
 216 408 l 1
 544 780 l 1
 678 771 l 1
 678 765 l 1
 377 450 l 1
 720 6 l 1
 720 0 l 1
 579 0 l 1
 301 369 l 1
 216 281 l 1
 216 0 l 1
 100 0 l 1
EndSplineSet
Layer: 5
SplineSet
92 0 m 5
 92 780 l 5
 232 780 l 5
 232 437 l 5
 529 780 l 5
 691 769 l 5
 691 762 l 5
 389 448 l 5
 727 7 l 5
 727 0 l 5
 557 0 l 5
 296 351 l 5
 232 284 l 5
 232 0 l 5
 92 0 l 5
EndSplineSet
Layer: 6
SplineSet
85 0 m 1
 85 780 l 1
 249 780 l 1
 249 467 l 1
 515 780 l 1
 705 767 l 1
 705 759 l 1
 402 445 l 1
 735 8 l 1
 735 0 l 1
 536 0 l 1
 293 332 l 1
 249 287 l 1
 249 0 l 1
 85 0 l 1
EndSplineSet
Colour: ff00
EndChar

StartChar: L
Encoding: 76 76 48
GlifName: L_
Width: 590
VWidth: 0
Flags: W
HStem: 0 55<186 540> 760 20G<115 186>
VStem: 115 71<55 780>
LayerCount: 7
Fore
SplineSet
85 0 m 1
 85 780 l 1
 257 780 l 1
 257 130 l 1
 570 130 l 1
 570 0 l 1
 85 0 l 1
EndSplineSet
PickledDataWithLists: "(dp0
Vcom.fontlab.hintData
p1
(dp2
Vhhints
p3
(lp4
(dp5
Vwidth
p6
L10L
sVposition
p7
L-23L
sa(dp8
g6
L10L
sg7
L-9L
sa(dp9
g6
L10L
sg7
L45L
sa(dp10
g6
L10L
sg7
L59L
sa(dp11
g6
L10L
sg7
L794L
sasVvhints
p12
(lp13
(dp14
g6
L10L
sg7
L126L
sa(dp15
g6
L10L
sg7
L131L
sa(dp16
g6
L10L
sg7
L144L
sa(dp17
g6
L10L
sg7
L224L
sa(dp18
g6
L10L
sg7
L242L
sa(dp19
g6
L10L
sg7
L624L
sass."
Layer: 2
SplineSet
115 0 m 1
 115 780 l 1
 186 780 l 1
 186 55 l 1
 540 55 l 1
 540 0 l 1
 115 0 l 1
EndSplineSet
Layer: 3
SplineSet
108 0 m 1
 108 780 l 1
 204 780 l 1
 204 74 l 1
 548 74 l 1
 548 0 l 1
 108 0 l 1
EndSplineSet
Layer: 4
SplineSet
100 0 m 1
 100 780 l 1
 222 780 l 1
 222 93 l 1
 555 93 l 1
 555 0 l 1
 100 0 l 1
EndSplineSet
Layer: 5
SplineSet
92 0 m 5
 92 780 l 5
 239 780 l 5
 239 111 l 5
 562 111 l 5
 562 0 l 5
 92 0 l 5
EndSplineSet
Layer: 6
SplineSet
85 0 m 1
 85 780 l 1
 257 780 l 1
 257 130 l 1
 570 130 l 1
 570 0 l 1
 85 0 l 1
EndSplineSet
Colour: ff00
EndChar

StartChar: M
Encoding: 77 77 49
GlifName: M_
Width: 900
VWidth: 0
Flags: W
HStem: 0 21G<115 184 716 785> 760 20G<115 184.76 715.24 785>
VStem: 115 69<0 647> 716 69<0 647>
LayerCount: 7
Back
SplineSet
140 780 m 29
 450 195 l 29
 760 780 l 1053
EndSplineSet
Fore
SplineSet
815 0 m 5
 647 0 l 5
 647 466 l 5
 490 195 l 5
 410 195 l 5
 253 466 l 5
 253 0 l 5
 85 0 l 5
 85 765 l 5
 225 780 l 5
 450 368 l 5
 675 780 l 5
 815 765 l 5
 815 0 l 5
EndSplineSet
PickledDataWithLists: "(dp0
Vcom.fontlab.hintData
p1
(dp2
Vhhints
p3
(lp4
(dp5
Vwidth
p6
L10L
sVposition
p7
L-19L
sa(dp8
g6
L10L
sg7
L-9L
sa(dp9
g6
L10L
sg7
L137L
sa(dp10
g6
L20L
sg7
L604L
sa(dp11
g6
L10L
sg7
L783L
sa(dp12
g6
L10L
sg7
L795L
sasVvhints
p13
(lp14
(dp15
g6
L10L
sg7
L66L
sa(dp16
g6
L10L
sg7
L102L
sa(dp17
g6
L10L
sg7
L197L
sa(dp18
g6
L10L
sg7
L691L
sa(dp19
g6
L10L
sg7
L785L
sa(dp20
g6
L10L
sg7
L824L
sass."
Layer: 2
SplineSet
785 0 m 1
 716 0 l 1
 716 647 l 1
 469 195 l 1
 431 195 l 1
 184 647 l 1
 184 0 l 1
 115 0 l 1
 115 773 l 1
 174 780 l 1
 450 267 l 1
 726 780 l 1
 785 773 l 1
 785 0 l 1
EndSplineSet
Layer: 3
SplineSet
793 0 m 1
 699 0 l 1
 699 600 l 1
 474 195 l 1
 426 195 l 1
 201 600 l 1
 201 0 l 1
 107 0 l 1
 107 771 l 1
 187 780 l 1
 450 294 l 1
 713 780 l 1
 793 771 l 1
 793 0 l 1
EndSplineSet
Layer: 4
SplineSet
800 0 m 1
 681 0 l 1
 681 554 l 1
 479 195 l 1
 421 195 l 1
 219 554 l 1
 219 0 l 1
 100 0 l 1
 100 769 l 1
 200 780 l 1
 450 318 l 1
 700 780 l 1
 800 769 l 1
 800 0 l 1
EndSplineSet
Layer: 5
SplineSet
808 0 m 5
 665 0 l 5
 665 511 l 5
 484 195 l 5
 416 195 l 5
 235 511 l 5
 235 0 l 5
 92 0 l 5
 92 767 l 5
 212 780 l 5
 450 341 l 5
 688 780 l 5
 808 767 l 5
 808 0 l 5
EndSplineSet
Layer: 6
SplineSet
815 0 m 5
 647 0 l 5
 647 466 l 5
 490 195 l 5
 410 195 l 5
 253 466 l 5
 253 0 l 5
 85 0 l 5
 85 765 l 5
 225 780 l 5
 450 368 l 5
 675 780 l 5
 815 765 l 5
 815 0 l 5
EndSplineSet
Colour: ff00
EndChar

StartChar: N
Encoding: 78 78 50
GlifName: N_
Width: 810
VWidth: 0
Flags: W
HStem: 0 21G<115 184 620.507 695> 760 20G<115 189.493 626 695>
VStem: 115 69<0 667> 626 69<113 780>
LayerCount: 7
Back
SplineSet
140 0 m 29
 140 780 l 29
 670 0 l 29
 670 780 l 1053
EndSplineSet
Fore
SplineSet
85 0 m 1
 85 765 l 1
 230 780 l 1
 559 273 l 1
 559 780 l 1
 725 780 l 1
 725 0 l 1
 580 0 l 1
 251 507 l 1
 251 0 l 1
 85 0 l 1
EndSplineSet
PickledDataWithLists: "(dp0
Vcom.fontlab.hintData
p1
(dp2
Vhhints
p3
(lp4
(dp5
Vwidth
p6
L10L
sVposition
p7
L-14L
sa(dp8
g6
L10L
sg7
L-8L
sa(dp9
g6
L10L
sg7
L794L
sasVvhints
p10
(lp11
(dp12
g6
L10L
sg7
L97L
sa(dp13
g6
L10L
sg7
L111L
sa(dp14
g6
L10L
sg7
L209L
sa(dp15
g6
L10L
sg7
L601L
sa(dp16
g6
L10L
sg7
L613L
sa(dp17
g6
L10L
sg7
L699L
sa(dp18
g6
L10L
sg7
L711L
sass."
Layer: 2
SplineSet
115 0 m 1
 115 773 l 1
 176 780 l 1
 626 113 l 1
 626 780 l 1
 695 780 l 1
 695 0 l 1
 634 0 l 1
 184 667 l 1
 184 0 l 1
 115 0 l 1
EndSplineSet
Layer: 3
SplineSet
108 0 m 1
 108 771 l 1
 190 780 l 1
 609 152 l 1
 609 780 l 1
 702 780 l 1
 702 0 l 1
 620 0 l 1
 201 628 l 1
 201 0 l 1
 108 0 l 1
EndSplineSet
Layer: 4
SplineSet
100 0 m 1
 100 769 l 1
 203 780 l 1
 593 193 l 1
 593 780 l 1
 710 780 l 1
 710 0 l 1
 607 0 l 1
 217 587 l 1
 217 0 l 1
 100 0 l 1
EndSplineSet
Layer: 5
SplineSet
93 0 m 5
 93 767 l 5
 217 780 l 5
 575 233 l 5
 575 780 l 5
 717 780 l 5
 717 0 l 5
 593 0 l 5
 235 547 l 5
 235 0 l 5
 93 0 l 5
EndSplineSet
Layer: 6
SplineSet
85 0 m 1
 85 765 l 1
 230 780 l 1
 559 273 l 1
 559 780 l 1
 725 780 l 1
 725 0 l 1
 580 0 l 1
 251 507 l 1
 251 0 l 1
 85 0 l 1
EndSplineSet
Colour: ff00
EndChar

StartChar: O
Encoding: 79 79 51
GlifName: O_
Width: 820
VWidth: 0
Flags: W
HStem: -17 54<292.456 527.544> 743 54<292.456 527.544>
VStem: 75 73<205.404 574.596> 672 73<205.404 574.596>
LayerCount: 7
Back
SplineSet
410 44 m 1
 205 44 131 202 131 377 c 2
 131 411 l 2
 131 586 205 744 410 744 c 1025
EndSplineSet
Fore
SplineSet
45 373 m 2
 45 407 l 2
 45 581 121 801 410 801 c 0
 699 801 775 581 775 407 c 2
 775 373 l 2
 775 199 699 -21 410 -21 c 0
 121 -21 45 199 45 373 c 2
410 104 m 0
 531 104 601 197 601 373 c 2
 601 407 l 2
 601 583 531 676 410 676 c 0
 289 676 219 583 219 407 c 2
 219 373 l 2
 219 197 289 104 410 104 c 0
EndSplineSet
PickledDataWithLists: "(dp0
Vcom.fontlab.hintData
p1
(dp2
Vhhints
p3
(lp4
(dp5
Vwidth
p6
L10L
sVposition
p7
L-22L
sa(dp8
g6
L10L
sg7
L47L
sa(dp9
g6
L10L
sg7
L742L
sa(dp10
g6
L10L
sg7
L811L
sasVvhints
p11
(lp12
(dp13
g6
L10L
sg7
L66L
sa(dp14
g6
L10L
sg7
L164L
sa(dp15
g6
L10L
sg7
L572L
sa(dp16
g6
L10L
sg7
L659L
sa(dp17
g6
L10L
sg7
L690L
sa(dp18
g6
L10L
sg7
L757L
sass."
Layer: 2
SplineSet
75 372 m 2
 75 408 l 2
 75 599 156 797 410 797 c 0
 664 797 745 599 745 408 c 2
 745 372 l 2
 745 181 664 -17 410 -17 c 0
 156 -17 75 181 75 372 c 2
410 37 m 0
 595 37 672 183 672 372 c 2
 672 408 l 2
 672 597 595 743 410 743 c 0
 225 743 148 597 148 408 c 2
 148 372 l 2
 148 183 225 37 410 37 c 0
EndSplineSet
Layer: 3
SplineSet
68 372 m 2
 68 408 l 2
 68 594 147 798 410 798 c 0
 673 798 752 594 752 408 c 2
 752 372 l 2
 752 186 673 -18 410 -18 c 0
 147 -18 68 186 68 372 c 2
410 54 m 0
 579 54 654 186 654 372 c 2
 654 408 l 2
 654 594 579 726 410 726 c 0
 241 726 166 594 166 408 c 2
 166 372 l 2
 166 186 241 54 410 54 c 0
EndSplineSet
Layer: 4
SplineSet
60 372 m 2
 60 408 l 2
 60 590 138 799 410 799 c 0
 682 799 760 590 760 408 c 2
 760 372 l 2
 760 190 682 -19 410 -19 c 0
 138 -19 60 190 60 372 c 2
410 71 m 0
 563 71 637 189 637 372 c 2
 637 408 l 2
 637 591 563 709 410 709 c 0
 257 709 183 591 183 408 c 2
 183 372 l 2
 183 189 257 71 410 71 c 0
EndSplineSet
Layer: 5
SplineSet
52 373 m 6
 52 407 l 6
 52 585 130 800 410 800 c 4
 690 800 768 585 768 407 c 6
 768 373 l 6
 768 195 690 -20 410 -20 c 4
 130 -20 52 195 52 373 c 6
410 87 m 4
 547 87 619 194 619 373 c 6
 619 407 l 6
 619 586 547 693 410 693 c 4
 273 693 201 586 201 407 c 6
 201 373 l 6
 201 194 273 87 410 87 c 4
EndSplineSet
Layer: 6
SplineSet
45 373 m 2
 45 407 l 2
 45 581 121 801 410 801 c 0
 699 801 775 581 775 407 c 2
 775 373 l 2
 775 199 699 -21 410 -21 c 0
 121 -21 45 199 45 373 c 2
410 104 m 0
 531 104 601 197 601 373 c 2
 601 407 l 2
 601 583 531 676 410 676 c 0
 289 676 219 583 219 407 c 2
 219 373 l 2
 219 197 289 104 410 104 c 0
EndSplineSet
Colour: ff00
EndChar

StartChar: P
Encoding: 80 80 52
GlifName: P_
Width: 725
VWidth: 0
Flags: W
HStem: 0 21G<115 184> 338 52<184 493.843> 737 52<184.976 493.843>
VStem: 115 69<0 343 394 733> 595 70<475.194 652.638>
LayerCount: 7
Back
SplineSet
165 369 m 4
 212 365 286 360 360 360 c 4
 495 360 600 419 600 545 c 4
 600 671 495 730 360 730 c 4
 286 730 212 725 165 721 c 1028
EndSplineSet
Fore
SplineSet
253 424 m 1
 277 423 308 421 340 421 c 0
 442 421 527 446 527 545 c 0
 527 644 442 669 340 669 c 0
 308 669 277 667 253 666 c 1
 253 424 l 1
253 303 m 1
 253 0 l 1
 85 0 l 1
 85 310 l 1
 85 780 l 1
 85 780 222 789 360 789 c 0
 560 789 695 695 695 545 c 0
 695 395 560 301 360 301 c 0
 323 301 287 302 253 303 c 1
EndSplineSet
PickledDataWithLists: "(dp0
Vcom.fontlab.hintData
p1
(dp2
Vhhints
p3
(lp4
(dp5
Vwidth
p6
L10L
sVposition
p7
L-24L
sa(dp8
g6
L10L
sg7
L302L
sa(dp9
g6
L10L
sg7
L369L
sa(dp10
g6
L10L
sg7
L429L
sa(dp11
g6
L10L
sg7
L634L
sa(dp12
g6
L10L
sg7
L661L
sa(dp13
g6
L10L
sg7
L744L
sa(dp14
g6
L10L
sg7
L813L
sasVvhints
p15
(lp16
(dp17
g6
L10L
sg7
L26L
sa(dp18
g6
L10L
sg7
L36L
sa(dp19
g6
L10L
sg7
L116L
sa(dp20
g6
L10L
sg7
L130L
sa(dp21
g6
L10L
sg7
L228L
sa(dp22
g6
L10L
sg7
L592L
sa(dp23
g6
L10L
sg7
L693L
sass."
Layer: 2
SplineSet
184 394 m 1
 225 392 289 390 353 390 c 0
 490 390 595 442 595 564 c 0
 595 686 490 737 353 737 c 0
 289 737 225 735 184 733 c 1
 184 394 l 1
184 343 m 1
 184 0 l 1
 115 0 l 1
 115 347 l 1
 115 780 l 1
 152 783 256 789 359 789 c 0
 533 789 665 712 665 564 c 0
 665 416 533 338 359 338 c 0
 296 338 232 341 184 343 c 1
EndSplineSet
Layer: 3
SplineSet
202 402 m 1
 238 400 293 398 350 398 c 0
 478 398 578 443 578 559 c 0
 578 675 478 720 350 720 c 0
 293 720 238 718 202 716 c 1
 202 402 l 1
202 333 m 1
 202 0 l 1
 108 0 l 1
 108 338 l 1
 108 780 l 1
 136 782 248 789 360 789 c 0
 540 789 673 707 673 559 c 0
 673 411 540 329 360 329 c 0
 304 329 248 331 202 333 c 1
EndSplineSet
Layer: 4
SplineSet
219 410 m 1
 251 408 298 406 346 406 c 0
 465 406 561 443 561 554 c 0
 561 665 465 703 346 703 c 0
 298 703 251 701 219 699 c 1
 219 410 l 1
219 323 m 1
 219 0 l 1
 100 0 l 1
 100 329 l 1
 100 780 l 1
 118 781 239 789 360 789 c 0
 547 789 680 703 680 554 c 0
 680 405 547 320 360 320 c 0
 311 320 261 321 219 323 c 1
EndSplineSet
Layer: 5
SplineSet
235 416 m 5
 263 414 303 413 343 413 c 4
 454 413 544 445 544 550 c 4
 544 655 454 686 343 686 c 4
 303 686 263 685 235 683 c 5
 235 416 l 5
235 312 m 5
 235 0 l 5
 92 0 l 5
 92 319 l 5
 92 780 l 5
 101 781 230 789 359 789 c 4
 553 789 687 700 687 550 c 4
 687 400 553 310 359 310 c 4
 316 310 273 311 235 312 c 5
EndSplineSet
Layer: 6
SplineSet
253 424 m 1
 277 423 308 421 340 421 c 0
 442 421 527 446 527 545 c 0
 527 644 442 669 340 669 c 0
 308 669 277 667 253 666 c 1
 253 424 l 1
253 303 m 1
 253 0 l 1
 85 0 l 1
 85 310 l 1
 85 780 l 1
 85 780 222 789 360 789 c 0
 560 789 695 695 695 545 c 0
 695 395 560 301 360 301 c 0
 323 301 287 302 253 303 c 1
EndSplineSet
Colour: ff00
EndChar

StartChar: Q
Encoding: 81 81 53
GlifName: Q_
Width: 820
VWidth: 0
Flags: W
HStem: -17 54<292.456 529.096> 743 54<292.456 527.544>
VStem: 75 73<205.404 574.596> 672 73<204.667 574.596>
LayerCount: 7
Back
SplineSet
410 295 m 29
 775 0 l 1053
EndSplineSet
Fore
SplineSet
375 250 m 1
 440 335 l 1
 579 227 l 1
 593 266 601 315 601 373 c 2
 601 407 l 2
 601 583 531 676 410 676 c 0
 289 676 219 583 219 407 c 2
 219 373 l 2
 219 197 289 104 410 104 c 0
 451 104 487 115 516 136 c 1
 375 250 l 1
45 373 m 2
 45 407 l 2
 45 581 121 801 410 801 c 0
 699 801 775 581 775 407 c 2
 775 373 l 2
 775 292 758 200 711 126 c 1
 810 49 l 1
 740 -45 l 1
 632 42 l 1
 578 3 506 -21 410 -21 c 0
 121 -21 45 199 45 373 c 2
EndSplineSet
PickledDataWithLists: "(dp0
Vcom.fontlab.hintData
p1
(dp2
Vhhints
p3
(lp4
(dp5
Vwidth
p6
L10L
sVposition
p7
L-206L
sa(dp8
g6
L10L
sg7
L-17L
sa(dp9
g6
L10L
sg7
L46L
sa(dp10
g6
L10L
sg7
L514L
sa(dp11
g6
L10L
sg7
L576L
sa(dp12
g6
L10L
sg7
L598L
sa(dp13
g6
L10L
sg7
L742L
sa(dp14
g6
L10L
sg7
L811L
sasVvhints
p15
(lp16
(dp17
g6
L10L
sg7
L66L
sa(dp18
g6
L10L
sg7
L164L
sa(dp19
g6
L10L
sg7
L407L
sa(dp20
g6
L10L
sg7
L491L
sa(dp21
g6
L10L
sg7
L675L
sa(dp22
g6
L10L
sg7
L690L
sa(dp23
g6
L10L
sg7
L760L
sa(dp24
g6
L10L
sg7
L769L
sass."
Layer: 2
SplineSet
75 372 m 2
 75 408 l 2
 75 599 156 797 410 797 c 0
 664 797 745 599 745 408 c 2
 745 372 l 2
 745 279 726 186 677 113 c 1
 790 23 l 1
 758 -19 l 1
 645 73 l 1
 593 18 517 -17 410 -17 c 0
 156 -17 75 181 75 372 c 2
395 276 m 1
 425 314 l 1
 624 155 l 1
 657 213 672 288 672 372 c 2
 672 408 l 2
 672 597 595 743 410 743 c 0
 225 743 148 597 148 408 c 2
 148 372 l 2
 148 183 225 37 410 37 c 0
 492 37 553 66 595 114 c 1
 395 276 l 1
EndSplineSet
Layer: 3
SplineSet
68 372 m 2
 68 408 l 2
 68 594 147 798 410 798 c 0
 673 798 752 594 752 408 c 2
 752 372 l 2
 752 283 733 189 685 116 c 1
 795 29 l 1
 754 -25 l 1
 643 65 l 1
 590 14 515 -18 410 -18 c 0
 147 -18 68 186 68 372 c 2
391 269 m 1
 429 319 l 1
 613 173 l 1
 641 226 654 294 654 372 c 2
 654 408 l 2
 654 594 579 726 410 726 c 0
 241 726 166 594 166 408 c 2
 166 372 l 2
 166 186 241 54 410 54 c 0
 482 54 537 77 576 119 c 1
 391 269 l 1
EndSplineSet
Layer: 4
SplineSet
60 372 m 2
 60 408 l 2
 60 590 138 799 410 799 c 0
 682 799 760 590 760 408 c 2
 760 372 l 2
 760 285 742 192 694 119 c 1
 800 36 l 1
 749 -32 l 1
 640 56 l 1
 586 10 512 -19 410 -19 c 0
 138 -19 60 190 60 372 c 2
385 263 m 1
 432 325 l 1
 603 191 l 1
 626 239 637 301 637 372 c 2
 637 408 l 2
 637 591 563 709 410 709 c 0
 257 709 183 591 183 408 c 2
 183 372 l 2
 183 189 257 71 410 71 c 0
 471 71 520 90 556 124 c 1
 385 263 l 1
EndSplineSet
Layer: 5
SplineSet
52 373 m 6
 52 407 l 6
 52 585 130 800 410 800 c 4
 690 800 768 585 768 407 c 6
 768 373 l 6
 768 289 751 197 703 123 c 5
 805 43 l 5
 744 -39 l 5
 636 49 l 5
 582 7 508 -20 410 -20 c 4
 130 -20 52 195 52 373 c 6
379 257 m 5
 436 330 l 5
 591 209 l 5
 609 253 619 309 619 373 c 6
 619 407 l 6
 619 586 547 693 410 693 c 4
 273 693 201 586 201 407 c 6
 201 373 l 6
 201 194 273 87 410 87 c 4
 461 87 503 102 536 130 c 5
 379 257 l 5
EndSplineSet
Layer: 6
SplineSet
375 250 m 1
 440 335 l 1
 579 227 l 1
 593 266 601 315 601 373 c 2
 601 407 l 2
 601 583 531 676 410 676 c 0
 289 676 219 583 219 407 c 2
 219 373 l 2
 219 197 289 104 410 104 c 0
 451 104 487 115 516 136 c 1
 375 250 l 1
45 373 m 2
 45 407 l 2
 45 581 121 801 410 801 c 0
 699 801 775 581 775 407 c 2
 775 373 l 2
 775 292 758 200 711 126 c 1
 810 49 l 1
 740 -45 l 1
 632 42 l 1
 578 3 506 -21 410 -21 c 0
 121 -21 45 199 45 373 c 2
EndSplineSet
Colour: ff00
EndChar

StartChar: R
Encoding: 82 82 54
GlifName: R_
Width: 760
VWidth: 0
Flags: W
HStem: 0 21G<115 184 597.728 695> 343 51<184 339> 737 52<184.976 493.843>
VStem: 115 69<0 343 394 733> 595 70<474.48 652.638>
LayerCount: 7
Fore
SplineSet
290 302 m 1
 278 302 265 303 253 303 c 1
 253 0 l 1
 85 0 l 1
 85 310 l 1
 85 780 l 1
 85 780 222 789 360 789 c 0
 560 789 695 695 695 545 c 0
 695 425 609 341 472 312 c 1
 725 8 l 1
 725 0 l 1
 533 0 l 1
 290 302 l 1
253 424 m 1
 277 423 308 421 340 421 c 0
 442 421 527 446 527 545 c 0
 527 644 442 669 340 669 c 0
 308 669 277 667 253 666 c 1
 253 424 l 1
EndSplineSet
PickledDataWithLists: "(dp0
Vcom.fontlab.hintData
p1
(dp2
Vhhints
p3
(lp4
(dp5
Vwidth
p6
L10L
sVposition
p7
L-29L
sa(dp8
g6
L10L
sg7
L-24L
sa(dp9
g6
L10L
sg7
L332L
sa(dp10
g6
L10L
sg7
L401L
sa(dp11
g6
L10L
sg7
L430L
sa(dp12
g6
L10L
sg7
L634L
sa(dp13
g6
L10L
sg7
L661L
sa(dp14
g6
L10L
sg7
L745L
sa(dp15
g6
L10L
sg7
L812L
sasVvhints
p16
(lp17
(dp18
g6
L10L
sg7
L26L
sa(dp19
g6
L10L
sg7
L116L
sa(dp20
g6
L10L
sg7
L126L
sa(dp21
g6
L10L
sg7
L228L
sa(dp22
g6
L10L
sg7
L605L
sa(dp23
g6
L10L
sg7
L705L
sa(dp24
g6
L10L
sg7
L734L
sass."
Layer: 2
SplineSet
184 394 m 1
 225 392 289 390 353 390 c 0
 490 390 595 442 595 564 c 0
 595 686 490 737 353 737 c 0
 289 737 225 735 184 733 c 1
 184 394 l 1
339 338 m 1
 283 338 227 341 184 343 c 1
 184 0 l 1
 115 0 l 1
 115 347 l 1
 115 780 l 1
 152 783 256 789 359 789 c 0
 533 789 665 712 665 564 c 0
 665 432 560 356 415 341 c 1
 695 4 l 1
 695 0 l 1
 614 0 l 1
 339 338 l 1
EndSplineSet
Layer: 3
SplineSet
202 402 m 1
 238 400 293 398 350 398 c 0
 478 398 578 443 578 559 c 0
 578 675 478 720 350 720 c 0
 293 720 238 718 202 716 c 1
 202 402 l 1
328 329 m 1
 283 330 239 331 202 333 c 1
 202 0 l 1
 108 0 l 1
 108 338 l 1
 108 780 l 1
 136 782 248 789 360 789 c 0
 540 789 673 707 673 559 c 0
 673 431 573 352 430 333 c 1
 703 5 l 1
 703 0 l 1
 595 0 l 1
 328 329 l 1
EndSplineSet
Layer: 4
SplineSet
314 320 m 1
 281 321 248 322 219 323 c 1
 219 0 l 1
 100 0 l 1
 100 329 l 1
 100 780 l 1
 118 781 239 789 360 789 c 0
 547 789 680 703 680 554 c 0
 680 428 586 348 444 326 c 1
 710 6 l 1
 710 0 l 1
 574 0 l 1
 314 320 l 1
219 410 m 1
 251 408 298 406 346 406 c 0
 465 406 561 443 561 554 c 0
 561 665 465 703 346 703 c 0
 298 703 251 701 219 699 c 1
 219 410 l 1
EndSplineSet
Layer: 5
SplineSet
301 310 m 5
 278 310 256 311 235 312 c 5
 235 0 l 5
 92 0 l 5
 92 319 l 5
 92 780 l 5
 101 781 230 789 359 789 c 4
 553 789 687 700 687 550 c 4
 687 427 597 345 458 319 c 5
 717 7 l 5
 717 0 l 5
 553 0 l 5
 301 310 l 5
235 416 m 5
 263 414 303 413 343 413 c 4
 454 413 544 445 544 550 c 4
 544 655 454 686 343 686 c 4
 303 686 263 685 235 683 c 5
 235 416 l 5
EndSplineSet
Layer: 6
SplineSet
290 302 m 1
 278 302 265 303 253 303 c 1
 253 0 l 1
 85 0 l 1
 85 310 l 1
 85 780 l 1
 85 780 222 789 360 789 c 0
 560 789 695 695 695 545 c 0
 695 425 609 341 472 312 c 1
 725 8 l 1
 725 0 l 1
 533 0 l 1
 290 302 l 1
253 424 m 1
 277 423 308 421 340 421 c 0
 442 421 527 446 527 545 c 0
 527 644 442 669 340 669 c 0
 308 669 277 667 253 666 c 1
 253 424 l 1
EndSplineSet
Colour: ff00
EndChar

StartChar: S
Encoding: 83 83 55
GlifName: S_
Width: 710
VWidth: 0
Flags: W
HStem: -17 53<240.131 487.982> 600 21G<544 620> 744 53<238.56 460.875>
VStem: 70 69<123.993 176.096> 90 69<518.663 673.118> 550 70<607.92 659.159> 572 68<109.731 275.201>
LayerCount: 7
Back
SplineSet
557 587 m 5
 545 653 477 740 346 740 c 4
 216 740 134 673 134 573 c 4
 134 490 204 448 261 427 c 4
 315 407 394 381 446 366 c 4
 504 349 575 303 575 209 c 4
 575 108 494 38 346 38 c 4
 198 38 127 128 115 195 c 1029
EndSplineSet
Fore
SplineSet
40 184 m 1
 208 208 l 1
 217 156 266 101 355 101 c 0
 454 101 505 139 505 207 c 0
 505 270 459 288 428 297 c 0
 372 312 287 340 230 360 c 0
 157 387 57 448 57 569 c 0
 57 701 178 801 355 801 c 0
 544 801 635 678 650 600 c 1
 482 576 l 1
 473 628 426 679 355 679 c 0
 274 679 222 639 222 577 c 0
 222 527 262 512 304 496 c 0
 356 478 439 452 488 437 c 0
 575 410 670 347 670 215 c 0
 670 82 550 -21 355 -21 c 0
 150 -21 55 104 40 184 c 1
EndSplineSet
PickledDataWithLists: "(dp0
Vcom.fontlab.hintData
p1
(dp2
Vhhints
p3
(lp4
(dp5
Vwidth
p6
L10L
sVposition
p7
L-22L
sa(dp8
g6
L10L
sg7
L46L
sa(dp9
g6
L10L
sg7
L192L
sa(dp10
g6
L10L
sg7
L584L
sa(dp11
g6
L10L
sg7
L744L
sa(dp12
g6
L10L
sg7
L812L
sasVvhints
p13
(lp14
(dp15
g6
L10L
sg7
L60L
sa(dp16
g6
L10L
sg7
L68L
sa(dp17
g6
L10L
sg7
L159L
sa(dp18
g6
L10L
sg7
L494L
sa(dp19
g6
L10L
sg7
L555L
sa(dp20
g6
L10L
sg7
L594L
sa(dp21
g6
L10L
sg7
L654L
sass."
Layer: 2
SplineSet
70 175 m 1xf2
 139 184 l 1
 150 119 218 36 356 36 c 0
 498 36 572 99 572 194 c 0xf2
 572 283 505 321 453 336 c 0
 395 352 307 381 247 403 c 0
 179 428 90 482 90 588 c 0
 90 710 196 797 356 797 c 0
 522 797 606 687 620 609 c 1
 550 600 l 1
 538 665 474 744 356 744 c 0
 234 744 159 684 159 591 c 0xec
 159 515 222 481 278 460 c 0
 336 439 421 411 477 395 c 0
 552 373 640 314 640 196 c 0
 640 73 536 -17 356 -17 c 0
 172 -17 85 96 70 175 c 1xf2
EndSplineSet
Layer: 3
SplineSet
62 177 m 1xe4
 156 190 l 1
 166 128 229 52 355 52 c 0
 486 52 554 109 554 197 c 0xe4
 554 279 493 313 446 327 c 0
 388 343 301 370 242 392 c 0
 172 418 81 473 81 583 c 0
 81 707 191 798 355 798 c 0
 527 798 613 685 627 607 c 1
 532 594 l 1
 520 656 461 728 355 728 c 0
 243 728 174 672 174 587 c 0xd8
 174 517 232 489 284 469 c 0
 340 449 426 421 480 405 c 0
 558 381 647 323 647 201 c 0
 647 75 539 -18 355 -18 c 0
 166 -18 77 97 62 177 c 1xe4
EndSplineSet
Layer: 4
SplineSet
55 179 m 1
 174 196 l 1
 184 137 242 68 355 68 c 0
 475 68 538 118 538 200 c 0
 538 276 483 305 441 317 c 0
 384 333 297 360 239 381 c 0
 168 407 73 466 73 579 c 0
 73 706 187 799 355 799 c 0
 533 799 620 683 635 605 c 1
 516 588 l 1
 505 646 449 712 355 712 c 0
 254 712 190 661 190 584 c 0
 190 521 242 497 291 478 c 0
 346 458 431 432 483 416 c 0
 564 391 655 331 655 206 c 0
 655 78 542 -19 355 -19 c 0
 161 -19 70 99 55 179 c 1
EndSplineSet
Layer: 5
SplineSet
47 182 m 5
 190 202 l 5
 200 147 254 85 355 85 c 4
 465 85 521 129 521 204 c 4
 521 274 470 297 434 307 c 4
 378 322 292 351 234 371 c 4
 162 397 65 457 65 574 c 4
 65 704 182 800 355 800 c 4
 538 800 627 680 642 602 c 5
 499 582 l 5
 489 637 438 695 355 695 c 4
 264 695 206 651 206 581 c 4
 206 525 251 504 297 487 c 4
 351 468 434 442 485 427 c 4
 569 401 662 338 662 210 c 4
 662 80 546 -20 355 -20 c 4
 155 -20 62 102 47 182 c 5
EndSplineSet
Layer: 6
SplineSet
40 184 m 1
 208 208 l 1
 217 156 266 101 355 101 c 0
 454 101 505 139 505 207 c 0
 505 270 459 288 428 297 c 0
 372 312 287 340 230 360 c 0
 157 387 57 448 57 569 c 0
 57 701 178 801 355 801 c 0
 544 801 635 678 650 600 c 1
 482 576 l 1
 473 628 426 679 355 679 c 0
 274 679 222 639 222 577 c 0
 222 527 262 512 304 496 c 0
 356 478 439 452 488 437 c 0
 575 410 670 347 670 215 c 0
 670 82 550 -21 355 -21 c 0
 150 -21 55 104 40 184 c 1
EndSplineSet
Colour: ff00
EndChar

StartChar: T
Encoding: 84 84 56
GlifName: T_
Width: 630
VWidth: 0
Flags: W
HStem: 0 21G<280 350> 726 54<50 280 350 580>
VStem: 280 70<0 726>
LayerCount: 7
Fore
SplineSet
20 655 m 5
 20 780 l 5
 610 780 l 5
 610 655 l 5
 400 655 l 5
 400 0 l 5
 230 0 l 5
 230 655 l 5
 20 655 l 5
EndSplineSet
PickledDataWithLists: "(dp0
Vcom.fontlab.hintData
p1
(dp2
Vhhints
p3
(lp4
(dp5
Vwidth
p6
L10L
sVposition
p7
L-19L
sa(dp8
g6
L10L
sg7
L722L
sa(dp9
g6
L10L
sg7
L731L
sa(dp10
g6
L10L
sg7
L790L
sa(dp11
g6
L10L
sg7
L800L
sasVvhints
p12
(lp13
(dp14
g6
L10L
sg7
L25L
sa(dp15
g6
L10L
sg7
L301L
sa(dp16
g6
L10L
sg7
L306L
sa(dp17
g6
L10L
sg7
L407L
sa(dp18
g6
L10L
sg7
L674L
sass."
Layer: 2
SplineSet
50 726 m 1
 50 780 l 1
 580 780 l 1
 580 726 l 1
 350 726 l 1
 350 0 l 1
 280 0 l 1
 280 726 l 1
 50 726 l 1
EndSplineSet
Layer: 3
SplineSet
42 708 m 1
 42 780 l 1
 588 780 l 1
 588 708 l 1
 363 708 l 1
 363 0 l 1
 267 0 l 1
 267 708 l 1
 42 708 l 1
EndSplineSet
Layer: 4
SplineSet
35 691 m 1
 35 780 l 1
 595 780 l 1
 595 691 l 1
 375 691 l 1
 375 0 l 1
 255 0 l 1
 255 691 l 1
 35 691 l 1
EndSplineSet
Layer: 5
SplineSet
27 673 m 1
 27 780 l 1
 603 780 l 1
 603 673 l 1
 388 673 l 1
 388 0 l 5
 242 0 l 1
 242 673 l 1
 27 673 l 1
EndSplineSet
Layer: 6
SplineSet
20 655 m 5
 20 780 l 5
 610 780 l 5
 610 655 l 5
 400 655 l 5
 400 0 l 5
 230 0 l 5
 230 655 l 5
 20 655 l 5
EndSplineSet
Colour: ff00
EndChar

StartChar: U
Encoding: 85 85 57
GlifName: U_
Width: 810
VWidth: 0
Flags: W
HStem: -17 53<284.712 525.288> 760 20G<110 181 629 700>
VStem: 110 71<133.188 780> 629 71<133.188 780>
LayerCount: 7
Back
SplineSet
426 984 m 5
 426 855 329 774 185 774 c 4
 41 774 -56 855 -56 984 c 1029
EndSplineSet
Fore
SplineSet
80 249 m 2
 80 780 l 1
 252 780 l 1
 252 249 l 2
 252 143 318 103 405 103 c 0
 492 103 558 143 558 249 c 2
 558 780 l 1
 730 780 l 1
 730 249 l 2
 730 98 604 -21 405 -21 c 0
 206 -21 80 98 80 249 c 2
EndSplineSet
PickledDataWithLists: "(dp0
Vcom.fontlab.hintData
p1
(dp2
Vhhints
p3
(lp4
(dp5
Vwidth
p6
L10L
sVposition
p7
L-24L
sa(dp8
g6
L10L
sg7
L44L
sa(dp9
g6
L10L
sg7
L789L
sasVvhints
p10
(lp11
(dp12
g6
L10L
sg7
L96L
sa(dp13
g6
L10L
sg7
L107L
sa(dp14
g6
L10L
sg7
L194L
sa(dp15
g6
L10L
sg7
L205L
sa(dp16
g6
L10L
sg7
L603L
sa(dp17
g6
L10L
sg7
L616L
sa(dp18
g6
L10L
sg7
L704L
sa(dp19
g6
L10L
sg7
L714L
sass."
Layer: 2
SplineSet
110 236 m 2
 110 780 l 1
 181 780 l 1
 181 236 l 2
 181 107 274 36 405 36 c 0
 536 36 629 107 629 236 c 2
 629 780 l 1
 700 780 l 1
 700 236 l 2
 700 86 583 -17 405 -17 c 0
 227 -17 110 86 110 236 c 2
EndSplineSet
Layer: 3
SplineSet
103 239 m 2
 103 780 l 1
 199 780 l 1
 199 239 l 2
 199 116 285 53 405 53 c 0
 525 53 611 116 611 239 c 2
 611 780 l 1
 707 780 l 1
 707 239 l 2
 707 89 588 -18 405 -18 c 0
 222 -18 103 89 103 239 c 2
EndSplineSet
Layer: 4
SplineSet
95 242 m 2
 95 780 l 1
 217 780 l 1
 217 242 l 2
 217 125 296 70 405 70 c 0
 514 70 593 125 593 242 c 2
 593 780 l 1
 715 780 l 1
 715 242 l 2
 715 92 593 -19 405 -19 c 0
 217 -19 95 92 95 242 c 2
EndSplineSet
Layer: 5
SplineSet
87 246 m 2
 87 780 l 1
 234 780 l 1
 234 246 l 2
 234 134 307 86 405 86 c 0
 503 86 576 134 576 246 c 2
 576 780 l 1
 723 780 l 1
 723 246 l 2
 723 95 599 -20 405 -20 c 4
 211 -20 87 95 87 246 c 2
EndSplineSet
Layer: 6
SplineSet
80 249 m 2
 80 780 l 1
 252 780 l 1
 252 249 l 2
 252 143 318 103 405 103 c 0
 492 103 558 143 558 249 c 2
 558 780 l 1
 730 780 l 1
 730 249 l 2
 730 98 604 -21 405 -21 c 0
 206 -21 80 98 80 249 c 2
EndSplineSet
Colour: ff00
EndChar

StartChar: V
Encoding: 86 86 58
GlifName: V_
Width: 790
VWidth: 0
Flags: W
HStem: 0 21G<355.562 434.438> 759 20G<40 130.783 659.217 750>
LayerCount: 7
Back
SplineSet
90 780 m 29
 410 0 l 1053
EndSplineSet
Fore
SplineSet
10 754 m 1
 10 765 l 1
 210 780 l 1
 395 214 l 1
 580 780 l 1
 780 765 l 1
 780 754 l 1
 465 0 l 1
 325 0 l 1
 10 754 l 1
EndSplineSet
PickledDataWithLists: "(dp0
Vcom.fontlab.hintData
p1
(dp2
Vhhints
p3
(lp4
(dp5
Vwidth
p6
L10L
sVposition
p7
L-21L
sa(dp8
g6
L10L
sg7
L781L
sa(dp9
g6
L10L
sg7
L794L
sasVvhints
p10
(lp11
(dp12
g6
L10L
sg7
L41L
sa(dp13
g6
L10L
sg7
L759L
sass."
Layer: 2
SplineSet
40 768 m 1
 40 773 l 1
 123 779 l 1
 395 80 l 1
 667 779 l 1
 750 773 l 1
 750 768 l 1
 426 0 l 1
 364 0 l 1
 40 768 l 1
EndSplineSet
Layer: 3
SplineSet
32 764 m 1
 32 771 l 1
 144 780 l 1
 395 110 l 1
 646 780 l 1
 758 771 l 1
 758 764 l 1
 436 0 l 1
 354 0 l 1
 32 764 l 1
EndSplineSet
Layer: 4
SplineSet
25 761 m 1
 25 769 l 1
 166 780 l 1
 395 140 l 1
 624 780 l 1
 765 769 l 1
 765 761 l 1
 445 0 l 1
 345 0 l 1
 25 761 l 1
EndSplineSet
Layer: 5
SplineSet
17 758 m 5
 17 767 l 5
 188 780 l 5
 395 178 l 5
 602 780 l 5
 773 767 l 5
 773 758 l 5
 456 0 l 5
 334 0 l 5
 17 758 l 5
EndSplineSet
Layer: 6
SplineSet
10 754 m 1
 10 765 l 1
 210 780 l 1
 395 214 l 1
 580 780 l 1
 780 765 l 1
 780 754 l 1
 465 0 l 1
 325 0 l 1
 10 754 l 1
EndSplineSet
Colour: ff00
EndChar

StartChar: W
Encoding: 87 87 59
GlifName: W_
Width: 1070
VWidth: 0
Flags: W
HStem: 0 21G<270.966 345.918 724.082 799.034> 760 20G<45 128.556 941.444 1025>
VStem: 45 78<749.76 773> 947 78<749.76 773>
LayerCount: 7
Back
SplineSet
535 760 m 29
 310 0 l 1053
75 780 m 29
 310 0 l 1053
EndSplineSet
Fore
SplineSet
15 754 m 1
 15 764 l 1
 200 780 l 1
 326 247 l 1
 465 760 l 1
 605 760 l 1
 744 247 l 1
 870 780 l 1
 1055 764 l 1
 1055 754 l 1
 830 0 l 1
 685 0 l 1
 535 518 l 1
 385 0 l 1
 240 0 l 1
 15 754 l 1
EndSplineSet
PickledDataWithLists: "(dp0
Vcom.fontlab.hintData
p1
(dp2
Vhhints
p3
(lp4
(dp5
Vwidth
p6
L10L
sVposition
p7
L-10L
sa(dp8
g6
L10L
sg7
L762L
sa(dp9
g6
L10L
sg7
L790L
sasVvhints
p10
(lp11
(dp12
g6
L10L
sg7
L46L
sa(dp13
g6
L10L
sg7
L1045L
sass."
Layer: 2
SplineSet
1025 769 m 1
 793 0 l 1
 730 0 l 1
 535 659 l 1
 340 0 l 1
 277 0 l 1
 45 769 l 1
 45 773 l 1
 123 780 l 1
 313 96 l 1
 505 760 l 1
 565 760 l 1
 757 96 l 1
 947 780 l 1
 1025 773 l 1
 1025 769 l 1
EndSplineSet
Layer: 3
SplineSet
1033 765 m 1
 803 0 l 1
 719 0 l 1
 535 624 l 1
 351 0 l 1
 267 0 l 1
 37 765 l 1
 37 771 l 1
 141 780 l 1
 316 129 l 1
 495 760 l 1
 575 760 l 1
 754 129 l 1
 929 780 l 1
 1033 771 l 1
 1033 765 l 1
EndSplineSet
Layer: 4
SplineSet
1040 761 m 1
 812 0 l 1
 708 0 l 1
 535 590 l 1
 362 0 l 1
 258 0 l 1
 30 761 l 1
 30 769 l 1
 161 780 l 1
 319 168 l 1
 485 760 l 1
 585 760 l 1
 751 168 l 1
 909 780 l 1
 1040 769 l 1
 1040 761 l 1
EndSplineSet
Layer: 5
SplineSet
1048 758 m 1
 821 0 l 1
 697 0 l 5
 535 555 l 1
 373 0 l 1
 249 0 l 1
 22 758 l 1
 22 766 l 1
 180 780 l 1
 322 206 l 1
 475 760 l 1
 595 760 l 1
 748 206 l 1
 890 780 l 1
 1048 766 l 1
 1048 758 l 1
EndSplineSet
Layer: 6
SplineSet
15 754 m 1
 15 764 l 1
 200 780 l 1
 326 247 l 1
 465 760 l 1
 605 760 l 1
 744 247 l 1
 870 780 l 1
 1055 764 l 1
 1055 754 l 1
 830 0 l 1
 685 0 l 1
 535 518 l 1
 385 0 l 1
 240 0 l 1
 15 754 l 1
EndSplineSet
Colour: ff00
EndChar

StartChar: X
Encoding: 88 88 60
GlifName: X_
Width: 780
VWidth: 0
Flags: W
HStem: 0 21G<40 136.848 643.152 740> 760 20G<90 180.894 599.106 690>
LayerCount: 7
Fore
SplineSet
60 754 m 1
 60 764 l 1
 248 780 l 1
 390 526 l 1
 532 780 l 1
 720 764 l 1
 720 754 l 1
 485 414 l 1
 770 8 l 1
 770 0 l 1
 573 0 l 1
 390 274 l 1
 207 0 l 1
 10 0 l 1
 10 8 l 1
 295 414 l 1
 60 754 l 1
EndSplineSet
PickledDataWithLists: "(dp0
Vcom.fontlab.hintData
p1
(dp2
Vhhints
p3
(lp4
(dp5
Vwidth
p6
L10L
sVposition
p7
L-9L
sa(dp8
g6
L10L
sg7
L4L
sa(dp9
g6
L10L
sg7
L789L
sasVvhints
p10
(lp11
(dp12
g6
L10L
sg7
L31L
sa(dp13
g6
L10L
sg7
L91L
sa(dp14
g6
L10L
sg7
L687L
sa(dp15
g6
L10L
sg7
L734L
sass."
Layer: 2
SplineSet
90 768 m 1
 90 773 l 1
 167 780 l 1
 390 459 l 1
 613 780 l 1
 690 773 l 1
 690 768 l 1
 430 415 l 1
 740 5 l 1
 740 0 l 1
 658 0 l 1
 390 361 l 1
 122 0 l 1
 40 0 l 1
 40 5 l 1
 350 415 l 1
 90 768 l 1
EndSplineSet
Layer: 3
SplineSet
83 764 m 1
 83 770 l 1
 188 780 l 1
 391 475 l 1
 593 780 l 1
 698 770 l 1
 698 764 l 1
 444 415 l 1
 748 6 l 1
 748 0 l 1
 637 0 l 1
 391 340 l 1
 144 0 l 1
 33 0 l 1
 33 6 l 1
 337 415 l 1
 83 764 l 1
EndSplineSet
Layer: 4
SplineSet
75 761 m 1
 75 768 l 1
 208 780 l 1
 390 490 l 1
 572 780 l 1
 705 768 l 1
 705 761 l 1
 458 415 l 1
 755 6 l 1
 755 0 l 1
 616 0 l 1
 390 319 l 1
 164 0 l 1
 25 0 l 1
 25 6 l 1
 322 415 l 1
 75 761 l 1
EndSplineSet
Layer: 5
SplineSet
68 758 m 5
 68 766 l 5
 228 780 l 5
 390 507 l 5
 553 780 l 5
 713 766 l 5
 713 758 l 5
 472 414 l 5
 763 7 l 5
 763 0 l 5
 595 0 l 5
 390 297 l 5
 186 0 l 5
 18 0 l 5
 18 7 l 5
 309 414 l 5
 68 758 l 5
EndSplineSet
Layer: 6
SplineSet
60 754 m 1
 60 764 l 1
 248 780 l 1
 390 526 l 1
 532 780 l 1
 720 764 l 1
 720 754 l 1
 485 414 l 1
 770 8 l 1
 770 0 l 1
 573 0 l 1
 390 274 l 1
 207 0 l 1
 10 0 l 1
 10 8 l 1
 295 414 l 1
 60 754 l 1
EndSplineSet
Colour: ff00
EndChar

StartChar: Y
Encoding: 89 89 61
GlifName: Y_
Width: 720
VWidth: 0
Flags: W
HStem: 0 21G<325 395> 760 20G<40 130.843 589.157 680>
VStem: 325 70<0 302>
LayerCount: 7
Back
SplineSet
655 780 m 29
 360 300 l 29
 65 780 l 1053
EndSplineSet
Fore
SplineSet
10 754 m 1
 10 765 l 1
 200 780 l 1
 360 450 l 1
 520 780 l 1
 710 765 l 1
 710 754 l 1
 445 285 l 1
 445 0 l 1
 275 0 l 1
 275 285 l 1
 10 754 l 1
EndSplineSet
PickledDataWithLists: "(dp0
Vcom.fontlab.hintData
p1
(dp2
Vhhints
p3
(lp4
(dp5
Vwidth
p6
L10L
sVposition
p7
L-20L
sa(dp8
g6
L10L
sg7
L789L
sa(dp9
g6
L10L
sg7
L800L
sasVvhints
p10
(lp11
(dp12
g6
L10L
sg7
L35L
sa(dp13
g6
L10L
sg7
L310L
sa(dp14
g6
L10L
sg7
L408L
sa(dp15
g6
L10L
sg7
L414L
sa(dp16
g6
L10L
sg7
L675L
sass."
Layer: 2
SplineSet
40 769 m 1
 40 774 l 1
 119 780 l 1
 360 373 l 1
 601 780 l 1
 680 774 l 1
 680 769 l 1
 395 302 l 1
 395 0 l 1
 325 0 l 1
 325 302 l 1
 40 769 l 1
EndSplineSet
Layer: 3
SplineSet
32 765 m 1
 32 772 l 1
 139 780 l 1
 360 392 l 1
 581 780 l 1
 688 772 l 1
 688 765 l 1
 408 298 l 1
 408 0 l 1
 312 0 l 1
 312 298 l 1
 32 765 l 1
EndSplineSet
Layer: 4
SplineSet
25 761 m 1
 25 769 l 1
 160 780 l 1
 360 412 l 1
 560 780 l 1
 695 769 l 1
 695 761 l 1
 420 292 l 1
 420 0 l 1
 300 0 l 1
 300 292 l 1
 25 761 l 1
EndSplineSet
Layer: 5
SplineSet
18 758 m 1
 18 767 l 1
 180 780 l 1
 360 431 l 1
 540 780 l 1
 702 767 l 1
 702 758 l 1
 432 287 l 1
 432 0 l 5
 288 0 l 1
 288 287 l 1
 18 758 l 1
EndSplineSet
Layer: 6
SplineSet
10 754 m 1
 10 765 l 1
 200 780 l 1
 360 450 l 1
 520 780 l 1
 710 765 l 1
 710 754 l 1
 445 285 l 1
 445 0 l 1
 275 0 l 1
 275 285 l 1
 10 754 l 1
EndSplineSet
EndChar

StartChar: Z
Encoding: 90 90 62
GlifName: Z_
Width: 700
VWidth: 0
Flags: W
HStem: 0 56<160 635> 724 56<87 530>
LayerCount: 7
Back
SplineSet
610 65 m 5
 118 65 l 5
 575 715 l 5
 139 715 l 1029
EndSplineSet
Fore
SplineSet
35 96 m 1
 428 650 l 1
 65 650 l 1
 65 780 l 1
 642 780 l 1
 654 684 l 1
 263 130 l 1
 665 130 l 1
 665 0 l 1
 47 0 l 1
 35 96 l 1
EndSplineSet
PickledDataWithLists: "(dp0
Vcom.fontlab.hintData
p1
(dp2
Vhhints
p3
(lp4
(dp5
Vwidth
p6
L10L
sVposition
p7
L-13L
sa(dp8
g6
L10L
sg7
L64L
sa(dp9
g6
L10L
sg7
L75L
sa(dp10
g6
L10L
sg7
L709L
sa(dp11
g6
L10L
sg7
L779L
sa(dp12
g6
L10L
sg7
L785L
sa(dp13
g6
L10L
sg7
L790L
sasVvhints
p14
(lp15
(dp16
g6
L10L
sg7
L46L
sa(dp17
g6
L10L
sg7
L66L
sa(dp18
g6
L10L
sg7
L679L
sa(dp19
g6
L10L
sg7
L699L
sass."
Layer: 2
SplineSet
65 41 m 1
 530 724 l 1
 87 724 l 1
 87 780 l 1
 619 780 l 1
 625 739 l 1
 160 56 l 1
 635 56 l 1
 635 0 l 1
 70 0 l 1
 65 41 l 1
EndSplineSet
Layer: 3
SplineSet
58 55 m 1
 505 706 l 1
 82 706 l 1
 82 780 l 1
 626 780 l 1
 633 725 l 1
 186 74 l 1
 643 74 l 1
 643 0 l 1
 65 0 l 1
 58 55 l 1
EndSplineSet
Layer: 4
SplineSet
50 69 m 1
 479 687 l 1
 76 687 l 1
 76 780 l 1
 631 780 l 1
 640 711 l 1
 212 93 l 1
 650 93 l 1
 650 0 l 1
 59 0 l 1
 50 69 l 1
EndSplineSet
Layer: 5
SplineSet
43 82 m 5
 454 668 l 5
 71 668 l 5
 71 780 l 5
 637 780 l 5
 647 698 l 5
 238 112 l 5
 658 112 l 5
 658 0 l 5
 53 0 l 5
 43 82 l 5
EndSplineSet
Layer: 6
SplineSet
35 96 m 1
 428 650 l 1
 65 650 l 1
 65 780 l 1
 642 780 l 1
 654 684 l 1
 263 130 l 1
 665 130 l 1
 665 0 l 1
 47 0 l 1
 35 96 l 1
EndSplineSet
Colour: ff00
EndChar

StartChar: bracketleft
Encoding: 91 91 63
GlifName: bracketleft
Width: 435
VWidth: 0
Flags: W
HStem: -120 44<193 328> 856 44<193 330>
VStem: 135 58<-76 856>
LayerCount: 7
Fore
SplineSet
105 -120 m 1xe0
 105 900 l 1xe0
 360 900 l 1
 360 805 l 1
 240 805 l 1
 240 -25 l 1xd0
 358 -25 l 1
 358 -120 l 1
 105 -120 l 1xe0
EndSplineSet
PickledDataWithLists: "(dp0
Vcom.fontlab.hintData
p1
(dp2
Vhhints
p3
(lp4
(dp5
Vwidth
p6
L10L
sVposition
p7
L-91L
sa(dp8
g6
L10L
sg7
L-44L
sa(dp9
g6
L10L
sg7
L830L
sa(dp10
g6
L10L
sg7
L877L
sasVvhints
p11
(lp12
(dp13
g6
L10L
sg7
L71L
sa(dp14
g6
L10L
sg7
L92L
sa(dp15
g6
L10L
sg7
L161L
sa(dp16
g6
L10L
sg7
L289L
sass."
Layer: 2
SplineSet
135 -120 m 1
 135 900 l 1
 330 900 l 1
 330 856 l 1
 193 856 l 1
 193 -76 l 1
 328 -76 l 1
 328 -120 l 1
 135 -120 l 1
EndSplineSet
Layer: 3
SplineSet
127 -120 m 1xe0
 127 900 l 1xe0
 337 900 l 1
 337 844 l 1
 205 844 l 1
 205 -64 l 1xd0
 335 -64 l 1
 335 -120 l 1
 127 -120 l 1xe0
EndSplineSet
Layer: 4
SplineSet
120 -120 m 1xe0
 120 900 l 1xe0
 345 900 l 1
 345 831 l 1
 217 831 l 1
 217 -51 l 1xd0
 343 -51 l 1
 343 -120 l 1
 120 -120 l 1xe0
EndSplineSet
Layer: 5
SplineSet
112 -120 m 5xe0
 112 900 l 5xe0
 352 900 l 5
 352 818 l 5
 228 818 l 5
 228 -38 l 5xd0
 350 -38 l 5
 350 -120 l 5
 112 -120 l 5xe0
EndSplineSet
Layer: 6
SplineSet
105 -120 m 1xe0
 105 900 l 1xe0
 360 900 l 1
 360 805 l 1
 240 805 l 1
 240 -25 l 1xd0
 358 -25 l 1
 358 -120 l 1
 105 -120 l 1xe0
EndSplineSet
EndChar

StartChar: backslash
Encoding: 92 92 64
GlifName: backslash
Width: 510
VWidth: 0
Flags: W
HStem: 0 21G<381.495 450> 760 20G<60 129.479>
LayerCount: 7
Fore
SplineSet
355 0 m 1
 30 772 l 1
 30 780 l 1
 155 780 l 1
 480 8 l 1
 480 0 l 1
 355 0 l 1
EndSplineSet
PickledDataWithLists: "(dp0
Vcom.fontlab.hintData
p1
(dp2
Vhhints
p3
(lp4
(dp5
Vwidth
p6
L10L
sVposition
p7
L-29L
sa(dp8
g6
L10L
sg7
L819L
sasVvhints
p9
(lp10
(dp11
g6
L10L
sg7
L40L
sa(dp12
g6
L10L
sg7
L430L
sass."
Layer: 2
SplineSet
450 0 m 1
 390 0 l 1
 60 776 l 1
 60 780 l 1
 121 780 l 1
 450 4 l 1
 450 0 l 1
EndSplineSet
Layer: 3
SplineSet
460 0 m 1
 378 0 l 1
 50 775 l 1
 50 780 l 1
 131 780 l 1
 460 5 l 1
 460 0 l 1
EndSplineSet
Layer: 4
SplineSet
470 0 m 1
 367 0 l 1
 40 774 l 1
 40 780 l 1
 142 780 l 1
 470 6 l 1
 470 0 l 1
EndSplineSet
Layer: 5
SplineSet
480 0 m 5
 356 0 l 5
 30 773 l 5
 30 780 l 5
 154 780 l 5
 480 7 l 5
 480 0 l 5
EndSplineSet
Layer: 6
SplineSet
355 0 m 1
 30 772 l 1
 30 780 l 1
 155 780 l 1
 480 8 l 1
 480 0 l 1
 355 0 l 1
EndSplineSet
EndChar

StartChar: bracketright
Encoding: 93 93 65
GlifName: bracketright
Width: 435
VWidth: 0
Flags: W
HStem: -120 44<105 242> 856 44<107 242>
VStem: 242 58<-76 856>
LayerCount: 7
Fore
SplineSet
330 -120 m 1xe0
 77 -120 l 1
 77 -25 l 1xe0
 195 -25 l 1
 195 805 l 1xd0
 75 805 l 1
 75 900 l 1
 330 900 l 1
 330 -120 l 1xe0
EndSplineSet
PickledDataWithLists: "(dp0
Vcom.fontlab.hintData
p1
(dp2
Vhhints
p3
(lp4
(dp5
Vwidth
p6
L10L
sVposition
p7
L-90L
sa(dp8
g6
L10L
sg7
L-42L
sa(dp9
g6
L10L
sg7
L829L
sa(dp10
g6
L10L
sg7
L879L
sasVvhints
p11
(lp12
(dp13
g6
L10L
sg7
L61L
sa(dp14
g6
L10L
sg7
L189L
sa(dp15
g6
L10L
sg7
L258L
sa(dp16
g6
L10L
sg7
L279L
sass."
Layer: 2
Refer: 63 91 S -1 0 0 -1 435 780 2
Layer: 3
Refer: 63 91 S -1 0 0 -1 435 780 2
Layer: 4
Refer: 63 91 S -1 0 0 -1 435 780 2
Layer: 5
Refer: 63 91 S -1 0 0 -1 435 780 2
Layer: 6
Refer: 63 91 S -1 0 0 -1 435 780 2
EndChar

StartChar: asciicircum
Encoding: 94 94 66
GlifName: asciicircum
Width: 630
VWidth: 0
Flags: W
LayerCount: 7
Fore
SplineSet
15 595 m 1
 285 900 l 1
 345 900 l 1
 615 595 l 1
 535 540 l 1
 315 732 l 1
 95 540 l 1
 15 595 l 1
EndSplineSet
PickledDataWithLists: "(dp0
Vcom.fontlab.hintData
p1
(dp2
Vhhints
p3
(lp4
(dp5
Vwidth
p6
L10L
sVposition
p7
L532L
sa(dp8
g6
L10L
sg7
L839L
sasVvhints
p9
(lp10
(dp11
g6
L10L
sg7
L23L
sass."
Layer: 2
SplineSet
45 582 m 1
 300 877 l 1
 330 877 l 1
 585 582 l 1
 550 557 l 1
 315 805 l 1
 80 557 l 1
 45 582 l 1
EndSplineSet
Layer: 3
SplineSet
37 586 m 1
 296 883 l 1
 333 883 l 1
 592 586 l 1
 545 553 l 1
 315 786 l 1
 83 553 l 1
 37 586 l 1
EndSplineSet
Layer: 4
SplineSet
30 589 m 1
 293 889 l 1
 337 889 l 1
 600 589 l 1
 542 549 l 1
 315 768 l 1
 88 549 l 1
 30 589 l 1
EndSplineSet
Layer: 5
SplineSet
22 592 m 5
 288 894 l 5
 341 894 l 5
 607 592 l 5
 538 544 l 5
 314 750 l 5
 91 544 l 5
 22 592 l 5
EndSplineSet
Layer: 6
SplineSet
15 595 m 1
 285 900 l 1
 345 900 l 1
 615 595 l 1
 535 540 l 1
 315 732 l 1
 95 540 l 1
 15 595 l 1
EndSplineSet
EndChar

StartChar: underscore
Encoding: 95 95 67
GlifName: underscore
Width: 600
VWidth: 0
Flags: W
HStem: -52 52<0 600>
LayerCount: 7
Fore
SplineSet
0 0 m 25
 600 0 l 25
 600 -120 l 25
 0 -120 l 25
 0 0 l 25
EndSplineSet
PickledDataWithLists: "(dp0
Vcom.fontlab.hintData
p1
(dp2
Vhhints
p3
(lp4
(dp5
Vwidth
p6
L10L
sVposition
p7
L-69L
sa(dp8
g6
L10L
sg7
L-6L
sa(dp9
g6
L10L
sg7
L1L
sasVvhints
p10
(lp11
(dp12
g6
L10L
sg7
L30L
sa(dp13
g6
L10L
sg7
L559L
sass."
Layer: 2
SplineSet
0 0 m 25
 600 0 l 25
 600 -52 l 25
 0 -52 l 25
 0 0 l 25
EndSplineSet
Layer: 3
SplineSet
0 0 m 25
 600 0 l 25
 600 -70 l 25
 0 -70 l 25
 0 0 l 25
EndSplineSet
Layer: 4
SplineSet
0 0 m 25
 600 0 l 25
 600 -86 l 25
 0 -86 l 25
 0 0 l 25
EndSplineSet
Layer: 5
SplineSet
0 0 m 25
 600 0 l 25
 600 -104 l 29
 0 -104 l 29
 0 0 l 25
EndSplineSet
Layer: 6
SplineSet
0 0 m 25
 600 0 l 25
 600 -120 l 25
 0 -120 l 25
 0 0 l 25
EndSplineSet
EndChar

StartChar: grave
Encoding: 96 96 68
GlifName: grave
Width: 390
VWidth: 0
Flags: W
LayerCount: 7
Back
SplineSet
35 855 m 29
 325 570 l 1053
EndSplineSet
Fore
SplineSet
375 595 m 1
 295 540 l 1
 -15 811 l 1
 105 900 l 1
 375 595 l 1
EndSplineSet
PickledDataWithLists: "(dp0
Vcom.fontlab.hintData
p1
(dp2
Vhhints
p3
(lp4
(dp5
Vwidth
p6
L10L
sVposition
p7
L541L
sa(dp8
g6
L10L
sg7
L838L
sasVvhints
p9
(lp10
(dp11
g6
L10L
sg7
L20L
sass."
Layer: 2
SplineSet
15 837 m 1
 67 875 l 1
 345 582 l 1
 310 557 l 1
 15 837 l 1
EndSplineSet
Layer: 3
SplineSet
8 830 m 1
 77 882 l 1
 353 586 l 1
 306 553 l 1
 8 830 l 1
EndSplineSet
Layer: 4
SplineSet
0 824 m 1
 86 888 l 1
 360 589 l 1
 302 549 l 1
 0 824 l 1
EndSplineSet
Layer: 5
SplineSet
-7 818 m 5
 96 894 l 5
 368 592 l 5
 299 544 l 5
 -7 818 l 5
EndSplineSet
Layer: 6
SplineSet
375 595 m 1
 295 540 l 1
 -15 811 l 1
 105 900 l 1
 375 595 l 1
EndSplineSet
EndChar

StartChar: a
Encoding: 97 97 69
GlifName: a
Width: 625
VWidth: 0
Flags: W
HStem: -12 43<197.584 365.151 550.703 586.173> 275 41<179.596 458.075> 567 50<207.705 397.895>
VStem: 70 65<85.4919 239.744 437.417 489.053> 460 65<125.685 262.705 302 511.238>
LayerCount: 7
Back
SplineSet
0 817 m 1
 11 896 70 960 175 960 c 0
 280 960 350 903 350 808 c 1025
435 270 m 4
 394 276 311 285 235 285 c 4
 151 285 100 231 100 165 c 4
 100 67 170 15 265 15 c 4
 393 15 443 123 460 195 c 1028
EndSplineSet
Fore
SplineSet
40 174 m 0
 40 249 103 330 253 330 c 0
 305 330 356 327 400 323 c 1
 400 412 l 2
 400 486 353 507 300 507 c 0
 253 507 214 481 205 415 c 1
 45 427 l 1
 58 519 137 621 300 621 c 0
 457 621 555 528 555 412 c 2
 555 155 l 2
 555 109 563 93 610 87 c 1
 570 -16 l 1
 534 -11 471 2 441 56 c 1
 405 15 351 -16 270 -16 c 0
 124 -16 40 60 40 174 c 0
408 230 m 1
 367 235 313 239 262 239 c 0
 234 239 195 222 195 172 c 0
 195 101 245 79 290 79 c 0
 367 79 398 135 408 203 c 1
 408 230 l 1
EndSplineSet
PickledDataWithLists: "(dp0
Vcom.fontlab.hintData
p1
(dp2
Vhhints
p3
(lp4
(dp5
Vwidth
p6
L10L
sVposition
p7
L-21L
sa(dp8
g6
L10L
sg7
L-11L
sa(dp9
g6
L10L
sg7
L41L
sa(dp10
g6
L10L
sg7
L362L
sa(dp11
g6
L10L
sg7
L432L
sa(dp12
g6
L10L
sg7
L549L
sa(dp13
g6
L10L
sg7
L611L
sasVvhints
p14
(lp15
(dp16
g6
L10L
sg7
L60L
sa(dp17
g6
L10L
sg7
L149L
sa(dp18
g6
L10L
sg7
L441L
sa(dp19
g6
L10L
sg7
L529L
sa(dp20
g6
L10L
sg7
L649L
sass."
Layer: 2
SplineSet
70 171 m 0
 70 249 132 316 250 316 c 0
 331 316 408 309 460 302 c 1
 460 425 l 2
 460 519 394 567 300 567 c 0
 208 567 154 513 142 433 c 1
 75 438 l 1
 88 531 162 617 300 617 c 0
 436 617 525 539 525 425 c 2
 525 132 l 2
 525 67 546 39 600 33 c 1
 583 -12 l 1
 535 -6 477 19 470 103 c 1
 436 43 377 -12 277 -12 c 0
 154 -12 70 56 70 171 c 0
463 259 m 1
 417 265 343 275 253 275 c 0
 184 275 135 236 135 171 c 0
 135 77 202 31 283 31 c 0
 396 31 446 126 463 204 c 1
 463 259 l 1
EndSplineSet
Layer: 3
SplineSet
63 172 m 0
 63 249 125 320 251 320 c 0
 324 320 395 314 446 308 c 1
 446 422 l 2
 446 511 384 552 300 552 c 0
 220 552 169 505 158 429 c 1
 68 435 l 1
 81 528 156 618 300 618 c 0
 442 618 533 536 533 422 c 2
 533 137 l 2
 533 77 551 53 603 47 c 1
 581 -13 l 1
 536 -8 476 14 462 89 c 1
 427 35 369 -13 275 -13 c 0
 146 -13 63 57 63 172 c 0
450 252 m 1
 405 258 336 266 256 266 c 0
 198 266 151 232 151 171 c 0
 151 83 213 43 285 43 c 0
 392 43 436 133 450 210 c 1
 450 252 l 1
EndSplineSet
Layer: 4
SplineSet
55 173 m 0
 55 249 118 323 252 323 c 0
 317 323 381 318 430 313 c 1
 430 419 l 2
 430 503 373 537 300 537 c 0
 231 537 183 497 173 424 c 1
 60 433 l 1
 73 526 149 619 300 619 c 0
 447 619 540 534 540 419 c 2
 540 143 l 2
 540 87 554 66 605 60 c 1
 577 -14 l 1
 536 -9 473 9 453 75 c 1
 418 26 362 -14 273 -14 c 0
 138 -14 55 58 55 173 c 0
436 245 m 1
 392 251 328 257 258 257 c 0
 210 257 165 228 165 171 c 0
 165 88 224 55 287 55 c 0
 385 55 424 135 436 210 c 1
 436 245 l 1
EndSplineSet
Layer: 5
SplineSet
48 173 m 4
 48 249 111 326 253 326 c 4
 311 326 369 322 415 318 c 5
 415 415 l 6
 415 494 364 522 301 522 c 4
 243 522 200 489 190 419 c 5
 53 430 l 5
 66 522 144 620 301 620 c 4
 453 620 548 531 548 415 c 6
 548 149 l 6
 548 98 559 79 608 73 c 5
 574 -15 l 5
 536 -10 472 4 447 64 c 5
 411 20 356 -15 272 -15 c 4
 132 -15 48 59 48 173 c 4
422 237 m 5
 379 242 319 248 260 248 c 4
 222 248 180 226 180 172 c 4
 180 95 235 67 289 67 c 4
 375 67 410 133 422 204 c 5
 422 237 l 5
EndSplineSet
Layer: 6
SplineSet
40 174 m 0
 40 249 103 330 253 330 c 0
 305 330 356 327 400 323 c 1
 400 412 l 2
 400 486 353 507 300 507 c 0
 253 507 214 481 205 415 c 1
 45 427 l 1
 58 519 137 621 300 621 c 0
 457 621 555 528 555 412 c 2
 555 155 l 2
 555 109 563 93 610 87 c 1
 570 -16 l 1
 534 -11 471 2 441 56 c 1
 405 15 351 -16 270 -16 c 0
 124 -16 40 60 40 174 c 0
408 230 m 1
 367 235 313 239 262 239 c 0
 234 239 195 222 195 172 c 0
 195 101 245 79 290 79 c 0
 367 79 398 135 408 203 c 1
 408 230 l 1
EndSplineSet
Colour: ff00
EndChar

StartChar: b
Encoding: 98 98 70
GlifName: b
Width: 675
VWidth: 0
Flags: W
HStem: -12 50<264.217 441.96> 0 21G<100 158.017> 562 50<263.981 441.96> 790 20G<100 165>
VStem: 100 65<0 118 145.566 454.434 489 810> 538 67<147.117 452.883>
LayerCount: 7
Back
SplineSet
141 510 m 5
 171 530 226 566 321 566 c 4
 470 566 530 454 530 330 c 4
 530 182 435 34 292 34 c 4
 222 34 140 79 140 210 c 1029
EndSplineSet
Fore
SplineSet
206 0 m 1x76
 70 0 l 1x76
 70 810 l 1
 225 810 l 1
 225 539 l 1
 262 584 313 616 380 616 c 0
 569 616 635 440 635 310 c 2
 635 290 l 2
 635 160 569 -16 380 -16 c 0xba
 307 -16 254 22 216 73 c 1
 206 0 l 1x76
225 364 m 1xba
 225 236 l 1
 243 157 289 100 360 100 c 0
 425 100 475 153 475 290 c 2
 475 310 l 2
 475 447 425 500 360 500 c 0
 289 500 243 443 225 364 c 1xba
EndSplineSet
PickledDataWithLists: "(dp0
Vcom.fontlab.hintData
p1
(dp2
Vhhints
p3
(lp4
(dp5
Vwidth
p6
L10L
sVposition
p7
L-21L
sa(dp8
g6
L10L
sg7
L41L
sa(dp9
g6
L10L
sg7
L524L
sa(dp10
g6
L10L
sg7
L546L
sa(dp11
g6
L10L
sg7
L607L
sa(dp12
g6
L10L
sg7
L836L
sasVvhints
p13
(lp14
(dp15
g6
L10L
sg7
L81L
sa(dp16
g6
L10L
sg7
L91L
sa(dp17
g6
L10L
sg7
L179L
sa(dp18
g6
L10L
sg7
L211L
sa(dp19
g6
L10L
sg7
L504L
sa(dp20
g6
L10L
sg7
L593L
sass."
Layer: 2
SplineSet
605 313 m 2x7c
 605 287 l 2
 605 142 542 -12 357 -12 c 0xbc
 259 -12 198 50 163 118 c 1
 157 0 l 1
 100 0 l 1
 100 810 l 1
 165 810 l 1
 165 489 l 1
 202 554 263 612 357 612 c 0
 542 612 605 458 605 313 c 2x7c
165 385 m 1
 165 215 l 1
 185 134 242 38 350 38 c 0
 478 38 538 141 538 287 c 2
 538 313 l 2
 538 459 478 562 350 562 c 0
 242 562 185 466 165 385 c 1
EndSplineSet
Layer: 3
SplineSet
613 312 m 2x7a
 613 288 l 2
 613 146 549 -13 363 -13 c 0xba
 273 -13 214 42 177 106 c 1
 170 0 l 1
 93 0 l 1x76
 93 810 l 1
 180 810 l 1
 180 504 l 1
 218 563 278 613 363 613 c 0
 549 613 613 454 613 312 c 2x7a
180 378 m 1
 180 222 l 1
 199 140 253 54 353 54 c 0
 465 54 523 144 523 288 c 2
 523 312 l 2
 523 456 465 546 353 546 c 0
 253 546 199 460 180 378 c 1
EndSplineSet
Layer: 4
SplineSet
620 311 m 2x7a
 620 289 l 2
 620 151 555 -14 368 -14 c 0xba
 284 -14 227 33 190 92 c 1
 181 0 l 1
 85 0 l 1x76
 85 810 l 1
 195 810 l 1
 195 518 l 1
 233 572 289 614 368 614 c 0
 555 614 620 449 620 311 c 2x7a
195 374 m 1
 195 226 l 1
 215 145 265 69 355 69 c 0
 452 69 507 148 507 289 c 2
 507 311 l 2
 507 452 452 531 355 531 c 0
 265 531 215 455 195 374 c 1
EndSplineSet
Layer: 5
SplineSet
627 311 m 6x7a
 627 289 l 6
 627 155 562 -15 374 -15 c 4xba
 296 -15 241 28 203 82 c 5
 193 0 l 5
 77 0 l 5x76
 77 810 l 5
 210 810 l 5
 210 528 l 5
 247 578 301 615 374 615 c 4
 562 615 627 445 627 311 c 6x7a
210 371 m 5
 210 229 l 5
 229 149 277 84 357 84 c 4
 438 84 490 150 490 289 c 6
 490 311 l 6
 490 450 438 516 357 516 c 4
 277 516 229 451 210 371 c 5
EndSplineSet
Layer: 6
SplineSet
206 0 m 1x76
 70 0 l 1x76
 70 810 l 1
 225 810 l 1
 225 539 l 1
 262 584 313 616 380 616 c 0
 569 616 635 440 635 310 c 2
 635 290 l 2
 635 160 569 -16 380 -16 c 0xba
 307 -16 254 22 216 73 c 1
 206 0 l 1x76
225 364 m 1xba
 225 236 l 1
 243 157 289 100 360 100 c 0
 425 100 475 153 475 290 c 2
 475 310 l 2
 475 447 425 500 360 500 c 0
 289 500 243 443 225 364 c 1xba
EndSplineSet
Colour: ff00
EndChar

StartChar: c
Encoding: 99 99 71
GlifName: c
Width: 605
VWidth: 0
Flags: W
HStem: -17 50<237.806 421.201> 567 50<237.806 421.201>
VStem: 70 68<144.967 455.033> 488 67<94.7867 143.752 456.248 505.213>
LayerCount: 7
Back
SplineSet
505 439 m 5
 496 489 442 563 330 563 c 4
 177 563 121 444 121 312 c 6
 121 288 l 6
 121 156 177 37 330 37 c 4
 442 37 496 111 505 161 c 1029
EndSplineSet
Fore
SplineSet
424 168 m 1
 585 154 l 1
 574 90 503 -21 330 -21 c 0
 94 -21 40 158 40 288 c 0
 40 312 l 0
 40 442 94 621 330 621 c 0
 503 621 574 510 585 446 c 1
 424 432 l 1
 417 468 381 505 330 505 c 0
 260 505 204 446 204 312 c 0
 204 288 l 0
 204 154 260 95 330 95 c 0
 381 95 417 132 424 168 c 1
EndSplineSet
PickledDataWithLists: "(dp0
Vcom.fontlab.hintData
p1
(dp2
Vhhints
p3
(lp4
(dp5
Vwidth
p6
L10L
sVposition
p7
L-22L
sa(dp8
g6
L10L
sg7
L44L
sa(dp9
g6
L10L
sg7
L133L
sa(dp10
g6
L10L
sg7
L433L
sa(dp11
g6
L10L
sg7
L548L
sa(dp12
g6
L10L
sg7
L614L
sasVvhints
p13
(lp14
(dp15
g6
L10L
sg7
L58L
sa(dp16
g6
L10L
sg7
L152L
sa(dp17
g6
L10L
sg7
L433L
sa(dp18
g6
L10L
sg7
L527L
sa(dp19
g6
L10L
sg7
L552L
sass."
Layer: 2
SplineSet
70 287 m 2
 70 313 l 2
 70 460 131 617 331 617 c 0
 478 617 545 520 555 457 c 1
 488 451 l 1
 479 500 428 567 331 567 c 0
 198 567 138 459 138 313 c 2
 138 287 l 2
 138 141 198 33 331 33 c 0
 428 33 479 100 488 149 c 1
 555 143 l 1
 545 80 478 -17 331 -17 c 0
 131 -17 70 140 70 287 c 2
EndSplineSet
Layer: 3
SplineSet
63 287 m 2
 63 313 l 2
 63 455 122 618 331 618 c 0
 485 618 553 518 563 455 c 1
 473 447 l 1
 465 493 417 551 331 551 c 0
 214 551 155 456 155 313 c 2
 155 287 l 2
 155 144 214 49 331 49 c 0
 417 49 465 107 473 153 c 1
 563 145 l 1
 553 82 485 -18 331 -18 c 0
 122 -18 63 145 63 287 c 2
EndSplineSet
Layer: 4
SplineSet
55 287 m 2
 55 313 l 2
 55 451 113 619 331 619 c 0
 491 619 559 515 570 452 c 1
 456 442 l 1
 448 484 405 536 331 536 c 0
 230 536 171 453 171 313 c 2
 171 287 l 2
 171 147 230 64 331 64 c 0
 405 64 448 116 456 158 c 1
 570 148 l 1
 559 85 491 -19 331 -19 c 0
 113 -19 55 149 55 287 c 2
EndSplineSet
Layer: 5
SplineSet
48 288 m 6
 48 312 l 6
 48 446 104 620 331 620 c 4
 497 620 567 513 578 449 c 5
 440 437 l 5
 432 476 393 521 331 521 c 4
 245 521 188 449 188 312 c 6
 188 288 l 6
 188 151 245 79 331 79 c 4
 393 79 432 124 440 163 c 5
 578 151 l 5
 567 87 497 -20 331 -20 c 4
 104 -20 48 154 48 288 c 6
EndSplineSet
Layer: 6
SplineSet
424 168 m 1
 585 154 l 1
 574 90 503 -21 330 -21 c 0
 94 -21 40 158 40 288 c 0
 40 312 l 0
 40 442 94 621 330 621 c 0
 503 621 574 510 585 446 c 1
 424 432 l 1
 417 468 381 505 330 505 c 0
 260 505 204 446 204 312 c 0
 204 288 l 0
 204 154 260 95 330 95 c 0
 381 95 417 132 424 168 c 1
EndSplineSet
Colour: ff00
EndChar

StartChar: d
Encoding: 100 100 72
GlifName: d
Width: 680
VWidth: 0
Flags: W
HStem: -12 50<233.04 411.323 591.145 636.173> 562 50<233.04 411.591> 790 20G<510 575>
VStem: 70 67<147.117 452.883> 510 65<145.566 454.434 486 810> 519 56<53.2273 121>
LayerCount: 7
Back
SplineSet
395 631 m 5
 380 529 313 428 195 428 c 0
 70 428 0 547 0 679 c 2
 0 709 l 2
 0 841 65 960 210 960 c 0
 325 960 386 886 395 872 c 1025
EndSplineSet
Fore
SplineSet
40 290 m 2
 40 310 l 2
 40 440 106 616 295 616 c 0
 362 616 413 584 450 539 c 1
 450 810 l 1
 605 810 l 1
 605 155 l 2
 605 109 613 93 660 87 c 1
 620 -16 l 1
 576 -10 490 9 477 100 c 1
 439 36 380 -16 295 -16 c 0
 106 -16 40 160 40 290 c 2
450 364 m 1
 432 443 386 500 315 500 c 0
 250 500 200 447 200 310 c 2
 200 290 l 2
 200 153 250 100 315 100 c 0
 386 100 432 157 450 236 c 1
 450 364 l 1
EndSplineSet
PickledDataWithLists: "(dp0
Vcom.fontlab.hintData
p1
(dp2
Vhhints
p3
(lp4
(dp5
Vwidth
p6
L10L
sVposition
p7
L-21L
sa(dp8
g6
L10L
sg7
L41L
sa(dp9
g6
L10L
sg7
L544L
sa(dp10
g6
L10L
sg7
L606L
sa(dp11
g6
L10L
sg7
L836L
sasVvhints
p12
(lp13
(dp14
g6
L10L
sg7
L61L
sa(dp15
g6
L10L
sg7
L149L
sa(dp16
g6
L10L
sg7
L476L
sa(dp17
g6
L10L
sg7
L564L
sa(dp18
g6
L10L
sg7
L679L
sass."
Layer: 2
SplineSet
70 287 m 2xf4
 70 313 l 2
 70 458 133 612 318 612 c 0
 414 612 474 552 510 486 c 1
 510 810 l 1
 575 810 l 1xf8
 575 132 l 2
 575 67 596 39 650 33 c 1
 633 -12 l 1
 581 -6 519 22 519 121 c 1
 515 120 l 1
 479 51 417 -12 318 -12 c 0
 133 -12 70 142 70 287 c 2xf4
510 385 m 1
 490 466 433 562 325 562 c 0
 197 562 137 459 137 313 c 2
 137 287 l 2
 137 141 197 38 325 38 c 0
 433 38 490 134 510 215 c 1
 510 385 l 1
EndSplineSet
Layer: 3
SplineSet
62 288 m 2xf4
 62 312 l 2
 62 454 126 613 312 613 c 0
 400 613 458 561 495 500 c 1
 495 810 l 1
 582 810 l 1xf8
 582 137 l 2
 582 77 600 53 652 47 c 1
 630 -13 l 1
 581 -7 510 18 506 114 c 1
 468 47 406 -13 312 -13 c 0
 126 -13 62 146 62 288 c 2xf4
495 378 m 1
 476 460 422 546 322 546 c 0
 210 546 152 456 152 312 c 2
 152 288 l 2
 152 144 210 54 322 54 c 0
 422 54 476 140 495 222 c 1
 495 378 l 1
EndSplineSet
Layer: 4
SplineSet
55 289 m 2xbc
 55 311 l 2
 55 449 120 614 307 614 c 0
 387 614 443 570 480 515 c 1
 480 810 l 1
 590 810 l 1
 590 143 l 2
 590 87 604 66 655 60 c 1
 627 -14 l 1x7c
 579 -8 503 15 497 110 c 1
 459 44 399 -14 307 -14 c 0
 120 -14 55 151 55 289 c 2xbc
480 374 m 1
 460 455 410 531 320 531 c 0
 223 531 168 452 168 311 c 2
 168 289 l 2
 168 148 223 69 320 69 c 0xbc
 410 69 460 145 480 226 c 1
 480 374 l 1
EndSplineSet
Layer: 5
SplineSet
48 289 m 6
 48 311 l 6
 48 445 113 615 301 615 c 4
 374 615 428 578 465 528 c 5
 465 810 l 5
 598 810 l 5
 598 149 l 6
 598 98 609 79 658 73 c 5
 624 -15 l 5
 578 -9 497 11 487 105 c 5
 450 40 390 -15 301 -15 c 4
 113 -15 48 155 48 289 c 6
465 371 m 5
 446 451 398 516 318 516 c 4
 237 516 185 450 185 311 c 6
 185 289 l 6
 185 150 237 84 318 84 c 4
 398 84 446 149 465 229 c 5
 465 371 l 5
EndSplineSet
Layer: 6
SplineSet
40 290 m 2
 40 310 l 2
 40 440 106 616 295 616 c 0
 362 616 413 584 450 539 c 1
 450 810 l 1
 605 810 l 1
 605 155 l 2
 605 109 613 93 660 87 c 1
 620 -16 l 1
 576 -10 490 9 477 100 c 1
 439 36 380 -16 295 -16 c 0
 106 -16 40 160 40 290 c 2
450 364 m 1
 432 443 386 500 315 500 c 0
 250 500 200 447 200 310 c 2
 200 290 l 2
 200 153 250 100 315 100 c 0
 386 100 432 157 450 236 c 1
 450 364 l 1
EndSplineSet
Colour: ff00
EndChar

StartChar: e
Encoding: 101 101 73
GlifName: e
Width: 640
VWidth: 0
Flags: W
HStem: -17 49<234.372 417.701> 293 44<136 506.993> 569 48<237.077 420.67>
VStem: 70 65<144.663 293 337 454.644> 486 65<93.5136 142.775> 507 63<337.457 479.505>
LayerCount: 7
Back
SplineSet
518 280 m 4
 553 440 483 565 328 565 c 4
 173 565 118 445 118 313 c 6
 118 287 l 6
 118 155 173 35 328 35 c 4
 443 35 499 109 508 160 c 1029
EndSplineSet
Fore
SplineSet
40 287 m 2
 40 313 l 2
 40 444 100 621 328 621 c 0
 514 621 600 485 600 357 c 0
 600 326 596 295 590 265 c 1
 197 265 l 1
 203 147 255 91 328 91 c 0
 387 91 425 131 431 167 c 1
 585 153 l 1
 573 87 499 -21 328 -21 c 0
 95 -21 40 156 40 287 c 2
199 365 m 1
 450 365 l 1
 448 472 393 509 328 509 c 0
 262 509 212 462 199 365 c 1
EndSplineSet
PickledDataWithLists: "(dp0
Vcom.fontlab.hintData
p1
(dp2
Vhhints
p3
(lp4
(dp5
Vwidth
p6
L10L
sVposition
p7
L-20L
sa(dp8
g6
L10L
sg7
L42L
sa(dp9
g6
L10L
sg7
L131L
sa(dp10
g6
L10L
sg7
L552L
sa(dp11
g6
L10L
sg7
L613L
sasVvhints
p12
(lp13
(dp14
g6
L10L
sg7
L45L
sa(dp15
g6
L10L
sg7
L71L
sa(dp16
g6
L10L
sg7
L159L
sa(dp17
g6
L10L
sg7
L471L
sa(dp18
g6
L10L
sg7
L559L
sa(dp19
g6
L10L
sg7
L570L
sass."
Layer: 2
SplineSet
70 286 m 2xf8
 70 314 l 2
 70 460 132 617 327 617 c 0
 486 617 570 501 570 364 c 0xf4
 570 341 568 316 563 293 c 1
 135 293 l 1
 135 286 l 2
 135 140 193 32 327 32 c 0
 427 32 477 99 486 148 c 1
 551 142 l 1
 540 78 472 -17 327 -17 c 0
 130 -17 70 140 70 286 c 2xf8
136 337 m 1
 506 337 l 1
 507 346 507 355 507 364 c 0
 507 492 436 569 327 569 c 0
 201 569 142 470 136 337 c 1
EndSplineSet
Layer: 3
SplineSet
63 286 m 2xf8
 63 314 l 2
 63 456 124 618 327 618 c 0
 493 618 578 496 578 362 c 0xf4
 578 337 576 311 571 286 c 1
 151 286 l 1
 151 144 207 47 327 47 c 0
 417 47 465 107 473 153 c 1
 560 145 l 1
 549 81 479 -18 327 -18 c 0
 121 -18 63 144 63 286 c 2xf8
152 344 m 1
 493 344 l 1
 493 351 493 357 493 363 c 0
 493 487 425 554 327 554 c 0
 217 554 160 470 152 344 c 1
EndSplineSet
Layer: 4
SplineSet
55 286 m 2xf8
 55 314 l 2
 55 452 116 619 327 619 c 0
 500 619 585 492 585 360 c 0xf4
 585 333 582 306 577 279 c 1
 166 279 l 1
 168 144 224 61 327 61 c 0
 407 61 452 115 459 158 c 1
 568 148 l 1
 557 83 485 -19 327 -19 c 0
 112 -19 55 147 55 286 c 2xf8
167 351 m 1
 479 351 l 2
 479 354 479 358 479 361 c 0
 479 481 415 539 327 539 c 0
 232 539 176 468 167 351 c 1
EndSplineSet
Layer: 5
SplineSet
48 287 m 6
 48 313 l 6
 48 448 108 620 328 620 c 4
 507 620 593 489 593 359 c 4
 593 330 590 301 584 273 c 5
 585 272 l 5
 584 272 l 5
 181 272 l 5
 185 145 240 76 328 76 c 4
 397 76 438 123 445 162 c 5
 577 150 l 5
 565 84 492 -20 328 -20 c 4
 104 -20 48 152 48 287 c 6
183 358 m 5
 465 358 l 6
 465 359 l 4
 465 475 405 524 328 524 c 4
 248 524 194 465 183 358 c 5
EndSplineSet
Layer: 6
SplineSet
40 287 m 2
 40 313 l 2
 40 444 100 621 328 621 c 0
 514 621 600 485 600 357 c 0
 600 326 596 295 590 265 c 1
 197 265 l 1
 203 147 255 91 328 91 c 0
 387 91 425 131 431 167 c 1
 585 153 l 1
 573 87 499 -21 328 -21 c 0
 95 -21 40 156 40 287 c 2
199 365 m 1
 450 365 l 1
 448 472 393 509 328 509 c 0
 262 509 212 462 199 365 c 1
EndSplineSet
Colour: ff00
EndChar

StartChar: f
Encoding: 102 102 74
GlifName: f
Width: 415
VWidth: 0
Flags: W
HStem: 0 21G<145 212> 556 44<45 145 212 375> 779 48<234.526 377.359>
VStem: 145 67<0 556 600 758.348>
LayerCount: 7
Back
SplineSet
145 0 m 9
 145 667 l 6
 145 721 176 776 249 776 c 4
 310 776 342 753 355 744 c 1029
EndSplineSet
Fore
SplineSet
25 500 m 1
 25 600 l 1
 105 600 l 1
 105 667 l 2
 105 725 142 831 288 831 c 0
 372 831 426 791 440 780 c 1
 374 695 l 1
 362 703 333 721 300 721 c 0
 276 721 260 701 260 667 c 2
 260 600 l 1
 395 600 l 1
 395 500 l 1
 265 500 l 1
 265 0 l 1
 105 0 l 1
 105 500 l 1
 25 500 l 1
EndSplineSet
PickledDataWithLists: "(dp0
Vcom.fontlab.hintData
p1
(dp2
Vhhints
p3
(lp4
(dp5
Vwidth
p6
L10L
sVposition
p7
L-20L
sa(dp8
g6
L10L
sg7
L521L
sa(dp9
g6
L10L
sg7
L586L
sa(dp10
g6
L10L
sg7
L591L
sa(dp11
g6
L10L
sg7
L759L
sa(dp12
g6
L10L
sg7
L803L
sa(dp13
g6
L10L
sg7
L864L
sasVvhints
p14
(lp15
(dp16
g6
L10L
sg7
L20L
sa(dp17
g6
L10L
sg7
L132L
sa(dp18
g6
L10L
sg7
L166L
sa(dp19
g6
L9L
sg7
L219L
sa(dp20
g6
L10L
sg7
L255L
sa(dp21
g6
L10L
sg7
L399L
sa(dp22
g6
L10L
sg7
L469L
sass."
Layer: 2
SplineSet
45 556 m 5
 45 600 l 5
 145 600 l 5
 145 688 l 6
 145 748 181 827 288 827 c 4
 363 827 406 795 420 785 c 5
 389 748 l 5
 376 757 345 779 292 779 c 4
 236 779 210 737 210 688 c 6
 210 600 l 5
 375 600 l 5
 375 556 l 5
 212 556 l 5
 212 0 l 5
 145 0 l 5
 145 556 l 5
 45 556 l 5
EndSplineSet
Layer: 3
SplineSet
40 542 m 5
 40 600 l 5
 135 600 l 5
 135 683 l 6
 135 743 172 828 288 828 c 4
 365 828 411 794 425 784 c 5
 386 735 l 5
 373 744 342 765 294 765 c 4
 246 765 222 729 222 683 c 6
 222 600 l 5
 380 600 l 5
 380 542 l 5
 225 542 l 5
 225 0 l 5
 135 0 l 5
 135 542 l 5
 40 542 l 5
EndSplineSet
Layer: 4
SplineSet
35 528 m 5
 35 600 l 5
 125 600 l 5
 125 677 l 6
 125 736 162 829 288 829 c 4
 367 829 416 794 430 783 c 5
 382 722 l 5
 369 731 339 750 296 750 c 4
 256 750 235 719 235 677 c 6
 235 600 l 5
 385 600 l 5
 385 528 l 5
 238 528 l 5
 238 0 l 5
 125 0 l 5
 125 528 l 5
 35 528 l 5
EndSplineSet
Layer: 5
SplineSet
30 514 m 5
 30 600 l 5
 115 600 l 5
 115 672 l 6
 115 730 152 830 288 830 c 4
 370 830 421 792 435 781 c 5
 378 708 l 5
 366 716 336 735 298 735 c 4
 266 735 248 710 248 672 c 6
 248 600 l 5
 390 600 l 5
 390 514 l 5
 252 514 l 5
 252 0 l 5
 115 0 l 5
 115 514 l 5
 30 514 l 5
EndSplineSet
Layer: 6
SplineSet
25 500 m 5
 25 600 l 5
 105 600 l 5
 105 667 l 6
 105 725 142 831 288 831 c 4
 372 831 426 791 440 780 c 5
 374 695 l 5
 362 703 333 721 300 721 c 4
 276 721 260 701 260 667 c 6
 260 600 l 5
 395 600 l 5
 395 500 l 5
 265 500 l 5
 265 0 l 5
 105 0 l 5
 105 500 l 5
 25 500 l 5
EndSplineSet
Colour: ff00
EndChar

StartChar: g
Encoding: 103 103 75
GlifName: g
Width: 670
VWidth: 0
Flags: W
HStem: -227 48<244.305 446.819> 4 50<233.04 410.783> 566 50<233.04 408.95> 580 20G<516.974 575>
VStem: 70 67<160.874 454.64> 125 62<-132.165 -109.697> 512 63<-122.081 133 163.707 451.768 483 600>
LayerCount: 7
Back
SplineSet
150 960 m 0
 237 960 300 906.428710938 300 810 c 0
 300 713.571289062 237 660 150 660 c 0
 63 660 0 713.571289062 0 810 c 0
 0 906.428710938 63 960 150 960 c 0
315 290 m 24
 247 270 185 219 185 160 c 0
 185 118 214 85 260 85 c 0
 291 85 336 95 370 95 c 0
 447 95 500 43 500 -26 c 0
 500 -126 407 -175 310 -175 c 1024
EndSplineSet
Fore
Refer: 249 609 N 1 0 0 1 0 0 2
PickledDataWithLists: "(dp0
Vcom.fontlab.hintData
p1
(dp2
Vhhints
p3
(lp4
(dp5
Vwidth
p6
L10L
sVposition
p7
L-266L
sa(dp8
g6
L10L
sg7
L-204L
sa(dp9
g6
L10L
sg7
L-144L
sa(dp10
g6
L10L
sg7
L-21L
sa(dp11
g6
L10L
sg7
L41L
sa(dp12
g6
L10L
sg7
L366L
sa(dp13
g6
L10L
sg7
L432L
sa(dp14
g6
L10L
sg7
L549L
sa(dp15
g6
L10L
sg7
L611L
sasVvhints
p16
(lp17
(dp18
g6
L10L
sg7
L60L
sa(dp19
g6
L10L
sg7
L150L
sa(dp20
g6
L10L
sg7
L441L
sa(dp21
g6
L10L
sg7
L493L
sa(dp22
g6
L10L
sg7
L529L
sa(dp23
g6
L10L
sg7
L572L
sass."
Layer: 2
Refer: 249 609 S 1 0 0 1 0 0 2
Layer: 3
Refer: 249 609 S 1 0 0 1 0 0 2
Layer: 4
Refer: 249 609 S 1 0 0 1 0 0 2
Layer: 5
Refer: 249 609 S 1 0 0 1 0 0 2
Layer: 6
Refer: 249 609 N 1 0 0 1 0 0 2
Colour: ff00ff
EndChar

StartChar: h
Encoding: 104 104 76
GlifName: h
Width: 665
VWidth: 0
Flags: W
HStem: 0 21G<100 167 513 580> 558 54<306.529 471.502> 790 20G<100 165>
VStem: 100 65<0 386.753 414 810> 513 67<0 515.224>
LayerCount: 7
Fore
SplineSet
70 0 m 1
 70 810 l 1
 225 810 l 1
 225 482 l 1
 267 555 334 616 435 616 c 0
 557 616 610 510 610 406 c 2
 610 0 l 1
 450 0 l 1
 450 400 l 2
 450 479 413 490 390 490 c 0
 323 490 250 403 230 303 c 1
 230 0 l 1
 70 0 l 1
EndSplineSet
PickledDataWithLists: "(dp0
Vcom.fontlab.hintData
p1
(dp2
Vhhints
p3
(lp4
(dp5
Vwidth
p6
L10L
sVposition
p7
L-14L
sa(dp8
g6
L10L
sg7
L549L
sa(dp9
g6
L10L
sg7
L611L
sa(dp10
g6
L10L
sg7
L836L
sasVvhints
p11
(lp12
(dp13
g6
L10L
sg7
L65L
sa(dp14
g6
L10L
sg7
L106L
sa(dp15
g6
L10L
sg7
L187L
sa(dp16
g6
L10L
sg7
L491L
sa(dp17
g6
L10L
sg7
L496L
sa(dp18
g6
L10L
sg7
L579L
sa(dp19
g6
L10L
sg7
L584L
sass."
Layer: 2
SplineSet
100 0 m 1
 100 810 l 1
 165 810 l 1
 165 414 l 1
 205 512 283 612 408 612 c 0
 524 612 580 530 580 426 c 2
 580 0 l 1
 513 0 l 1
 513 424 l 2
 513 516 465 558 393 558 c 0
 271 558 185 418 167 305 c 1
 167 0 l 1
 100 0 l 1
EndSplineSet
Layer: 3
SplineSet
93 0 m 1
 93 810 l 1
 181 810 l 1
 181 433 l 1
 223 524 298 613 416 613 c 0
 534 613 588 525 588 421 c 2
 588 0 l 1
 498 0 l 1
 498 418 l 2
 498 506 453 541 393 541 c 0
 284 541 200 412 183 301 c 1
 183 0 l 1
 93 0 l 1
EndSplineSet
Layer: 4
SplineSet
85 0 m 1
 85 810 l 1
 195 810 l 1
 195 448 l 1
 237 534 309 614 422 614 c 0
 541 614 595 520 595 416 c 2
 595 0 l 1
 482 0 l 1
 482 412 l 2
 482 497 439 524 392 524 c 0
 296 524 215 407 198 298 c 1
 198 0 l 1
 85 0 l 1
EndSplineSet
Layer: 5
SplineSet
77 0 m 5
 77 810 l 5
 209 810 l 5
 209 465 l 5
 251 545 321 615 428 615 c 4
 548 615 602 515 602 411 c 6
 602 0 l 5
 465 0 l 5
 465 406 l 6
 465 488 425 507 390 507 c 4
 310 507 234 409 214 306 c 5
 214 0 l 5
 77 0 l 5
EndSplineSet
Layer: 6
SplineSet
70 0 m 1
 70 810 l 1
 225 810 l 1
 225 482 l 1
 267 555 334 616 435 616 c 0
 557 616 610 510 610 406 c 2
 610 0 l 1
 450 0 l 1
 450 400 l 2
 450 479 413 490 390 490 c 0
 323 490 250 403 230 303 c 1
 230 0 l 1
 70 0 l 1
EndSplineSet
Colour: ff00
EndChar

StartChar: i
Encoding: 105 105 77
GlifName: i
Width: 320
VWidth: 0
Flags: W
HStem: 0 21G<126 194> 580 20G<126 194> 719 122<105.811 214.189>
VStem: 95 130<730.145 829.855> 126 68<0 600>
LayerCount: 7
Fore
SplineSet
65 780 m 0xf0
 65 834 106 868 160 868 c 0
 214 868 255 834 255 780 c 0
 255 726 214 692 160 692 c 0
 106 692 65 726 65 780 c 0xf0
80 0 m 1xe8
 80 600 l 1
 240 600 l 1
 240 0 l 1
 80 0 l 1xe8
EndSplineSet
PickledDataWithLists: "(dp0
Vcom.fontlab.hintData
p1
(dp2
Vhhints
p3
(lp4
(dp5
Vwidth
p6
L10L
sVposition
p7
L-21L
sa(dp8
g6
L10L
sg7
L595L
sa(dp9
g6
L10L
sg7
L725L
sa(dp10
g6
L20L
sg7
L826L
sa(dp11
g6
L10L
sg7
L852L
sasVvhints
p12
(lp13
(dp14
g6
L10L
sg7
L86L
sa(dp15
g6
L10L
sg7
L116L
sa(dp16
g6
L10L
sg7
L204L
sa(dp17
g6
L10L
sg7
L234L
sa(dp18
g6
L10L
sg7
L244L
sass."
Layer: 2
SplineSet
126 0 m 1xe8
 126 600 l 1
 194 600 l 1
 194 0 l 1
 126 0 l 1xe8
160 841 m 0
 197 841 225 817 225 780 c 0
 225 743 197 719 160 719 c 0
 123 719 95 743 95 780 c 0xf0
 95 817 123 841 160 841 c 0
EndSplineSet
Layer: 3
SplineSet
115 0 m 1xe8
 115 600 l 1
 205 600 l 1
 205 0 l 1
 115 0 l 1xe8
160 848 m 0
 201 848 232 822 232 780 c 0
 232 738 201 712 160 712 c 0
 119 712 88 738 88 780 c 0xf0
 88 822 119 848 160 848 c 0
EndSplineSet
Layer: 4
SplineSet
103 0 m 1xe8
 103 600 l 1
 217 600 l 1
 217 0 l 1
 103 0 l 1xe8
160 854 m 0
 205 854 240 826 240 780 c 0
 240 734 205 706 160 706 c 0
 115 706 80 734 80 780 c 0xf0
 80 826 115 854 160 854 c 0
EndSplineSet
Layer: 5
SplineSet
91 0 m 5xe8
 91 600 l 5
 229 600 l 5
 229 0 l 5
 91 0 l 5xe8
160 861 m 4
 210 861 248 830 248 780 c 4
 248 730 210 699 160 699 c 4
 110 699 72 730 72 780 c 4xf0
 72 830 110 861 160 861 c 4
EndSplineSet
Layer: 6
SplineSet
65 780 m 0xf0
 65 834 106 868 160 868 c 0
 214 868 255 834 255 780 c 0
 255 726 214 692 160 692 c 0
 106 692 65 726 65 780 c 0xf0
80 0 m 1xe8
 80 600 l 1
 240 600 l 1
 240 0 l 1
 80 0 l 1xe8
EndSplineSet
Colour: ff00
EndChar

StartChar: j
Encoding: 106 106 78
GlifName: j
Width: 335
VWidth: 0
Flags: W
HStem: -222 21G<31.4545 86> 580 20G<142 208> 719 122<120.811 229.189>
VStem: 110 130<730.145 829.855> 142 66<-108.824 600>
LayerCount: 7
Back
SplineSet
165 600 m 5
 165 0 l 6
 165 -94 111 -146 40 -180 c 1029
EndSplineSet
Fore
SplineSet
80 780 m 0xf0
 80 834 121 868 175 868 c 0
 229 868 270 834 270 780 c 0
 270 726 227 692 173 692 c 0
 119 692 80 726 80 780 c 0xf0
50 -226 m 1
 0 -125 l 1
 65 -109 95 -82 95 -5 c 0
 95 600 l 1
 255 600 l 1
 255 -15 l 0xe8
 255 -136 154 -204 50 -226 c 1
EndSplineSet
PickledDataWithLists: "(dp0
Vcom.fontlab.hintData
p1
(dp2
Vhhints
p3
(lp4
(dp5
Vwidth
p6
L10L
sVposition
p7
L-246L
sa(dp8
g6
L10L
sg7
L596L
sa(dp9
g6
L10L
sg7
L725L
sa(dp10
g6
L20L
sg7
L826L
sa(dp11
g6
L10L
sg7
L852L
sasVvhints
p12
(lp13
(dp14
g6
L10L
sg7
L31L
sa(dp15
g6
L10L
sg7
L86L
sa(dp16
g6
L10L
sg7
L126L
sa(dp17
g6
L10L
sg7
L146L
sa(dp18
g6
L10L
sg7
L234L
sa(dp19
g6
L10L
sg7
L244L
sass."
Layer: 2
SplineSet
20 -178 m 1xe8
 90 -151 142 -109 142 -24 c 2
 142 600 l 1
 208 600 l 1
 208 -27 l 2
 208 -132 131 -191 41 -222 c 1
 20 -178 l 1xe8
175 841 m 0
 212 841 240 817 240 780 c 0
 240 743 212 719 175 719 c 0
 138 719 110 743 110 780 c 0xf0
 110 817 138 841 175 841 c 0
EndSplineSet
Layer: 3
SplineSet
15 -164 m 1xe8
 84 -140 130 -102 130 -19 c 2
 130 600 l 1
 220 600 l 1
 220 -24 l 2
 220 -133 137 -195 43 -223 c 1
 15 -164 l 1xe8
175 848 m 0
 216 848 247 822 247 780 c 0
 247 738 216 712 175 712 c 0
 134 712 103 738 103 780 c 0xf0
 103 822 134 848 175 848 c 0
EndSplineSet
Layer: 4
SplineSet
10 -151 m 1xe8
 78 -129 118 -95 118 -14 c 2
 118 600 l 1
 232 600 l 1
 232 -21 l 2
 232 -134 143 -198 46 -224 c 1
 10 -151 l 1xe8
175 854 m 0
 220 854 255 826 255 780 c 0
 255 734 220 706 175 706 c 0
 130 706 95 734 95 780 c 0xf0
 95 826 130 854 175 854 c 0
EndSplineSet
Layer: 5
SplineSet
5 -138 m 5xe8
 71 -119 107 -89 107 -10 c 6
 107 600 l 5
 243 600 l 5
 243 -18 l 6
 243 -135 148 -201 48 -225 c 5
 5 -138 l 5xe8
175 861 m 4
 225 861 263 830 263 780 c 4
 263 730 225 699 175 699 c 4
 125 699 87 730 87 780 c 4xf0
 87 830 125 861 175 861 c 4
EndSplineSet
Layer: 6
SplineSet
80 780 m 0xf0
 80 834 121 868 175 868 c 0
 229 868 270 834 270 780 c 0
 270 726 227 692 173 692 c 0
 119 692 80 726 80 780 c 0xf0
50 -226 m 1
 0 -125 l 1
 65 -109 95 -82 95 -5 c 0
 95 600 l 1
 255 600 l 1
 255 -15 l 0xe8
 255 -136 154 -204 50 -226 c 1
EndSplineSet
Colour: ff00
EndChar

StartChar: k
Encoding: 107 107 79
GlifName: k
Width: 610
VWidth: 0
Flags: W
HStem: 0 21G<110 174 492.079 585> 580 20G<454.312 545> 790 20G<110 174>
VStem: 110 64<0 208 280 810>
LayerCount: 7
Back
SplineSet
565 0 m 29
 285 345 l 1053
520 600 m 29
 145 210 l 1053
EndSplineSet
Fore
SplineSet
80 0 m 1
 80 810 l 1
 232 810 l 1
 232 382 l 1
 420 600 l 1
 595 590 l 1
 595 584 l 1
 357 341 l 1
 615 6 l 1
 615 0 l 1
 433 0 l 1
 256 238 l 1
 232 213 l 1
 232 0 l 1
 80 0 l 1
EndSplineSet
PickledDataWithLists: "(dp0
Vcom.fontlab.hintData
p1
(dp2
Vhhints
p3
(lp4
(dp5
Vwidth
p6
L10L
sVposition
p7
L-11L
sa(dp8
g6
L10L
sg7
L596L
sa(dp9
g6
L10L
sg7
L836L
sasVvhints
p10
(lp11
(dp12
g6
L10L
sg7
L75L
sa(dp13
g6
L10L
sg7
L105L
sa(dp14
g6
L10L
sg7
L194L
sa(dp15
g6
L10L
sg7
L539L
sa(dp16
g6
L10L
sg7
L580L
sass."
Layer: 2
SplineSet
110 0 m 1
 110 810 l 1
 174 810 l 1
 174 280 l 1
 473 600 l 1
 545 595 l 1
 545 592 l 1
 308 347 l 1
 585 3 l 1
 585 0 l 1
 508 0 l 1
 266 304 l 1
 174 208 l 1
 174 0 l 1
 110 0 l 1
EndSplineSet
Layer: 3
SplineSet
102 0 m 1
 102 810 l 1
 188 810 l 1
 188 305 l 1
 459 600 l 1
 557 594 l 1
 557 590 l 1
 320 345 l 1
 592 4 l 1
 592 0 l 1
 488 0 l 1
 263 287 l 1
 188 209 l 1
 188 0 l 1
 102 0 l 1
EndSplineSet
Layer: 4
SplineSet
95 0 m 1
 95 810 l 1
 203 810 l 1
 203 329 l 1
 446 600 l 1
 570 593 l 1
 570 588 l 1
 333 344 l 1
 600 5 l 1
 600 0 l 1
 470 0 l 1
 262 271 l 1
 203 211 l 1
 203 0 l 1
 95 0 l 1
EndSplineSet
Layer: 5
SplineSet
88 0 m 5
 88 810 l 5
 218 810 l 5
 218 355 l 5
 434 600 l 5
 583 591 l 5
 583 586 l 5
 346 343 l 5
 608 5 l 5
 608 0 l 5
 452 0 l 5
 260 254 l 5
 218 212 l 5
 218 0 l 5
 88 0 l 5
EndSplineSet
Layer: 6
SplineSet
80 0 m 1
 80 810 l 1
 232 810 l 1
 232 382 l 1
 420 600 l 1
 595 590 l 1
 595 584 l 1
 357 341 l 1
 615 6 l 1
 615 0 l 1
 433 0 l 1
 256 238 l 1
 232 213 l 1
 232 0 l 1
 80 0 l 1
EndSplineSet
Colour: ff00
EndChar

StartChar: l
Encoding: 108 108 80
GlifName: l
Width: 335
VWidth: 0
Flags: W
HStem: -12 46<211.272 283.557> 790 20G<110 177>
VStem: 110 67<61.5669 810>
LayerCount: 7
Back
SplineSet
140 810 m 29
 140 810 140 391 140 105 c 4
 140 24 210 6 280 0 c 1028
EndSplineSet
Fore
SplineSet
80 140 m 0
 80 810 l 1
 240 810 l 1
 240 155 l 0
 240 109 263 93 325 87 c 1
 295 -16 l 1
 208 -10 80 14 80 140 c 0
EndSplineSet
PickledDataWithLists: "(dp0
Vcom.fontlab.hintData
p1
(dp2
Vhhints
p3
(lp4
(dp5
Vwidth
p6
L10L
sVposition
p7
L-23L
sa(dp8
g6
L10L
sg7
L830L
sasVvhints
p9
(lp10
(dp11
g6
L10L
sg7
L106L
sa(dp12
g6
L10L
sg7
L111L
sa(dp13
g6
L10L
sg7
L194L
sa(dp14
g6
L10L
sg7
L199L
sa(dp15
g6
L10L
sg7
L315L
sass."
Layer: 2
SplineSet
110 117 m 2
 110 810 l 1
 177 810 l 1
 177 122 l 2
 177 58 225 40 295 34 c 1
 281 -12 l 1
 205 -6 110 16 110 117 c 2
EndSplineSet
Layer: 3
SplineSet
102 122 m 2
 102 810 l 1
 192 810 l 1
 192 130 l 2
 192 70 234 53 302 47 c 1
 284 -13 l 1
 206 -7 102 15 102 122 c 2
EndSplineSet
Layer: 4
SplineSet
95 128 m 2
 95 810 l 1
 208 810 l 1
 208 138 l 2
 208 83 244 66 310 60 c 1
 288 -14 l 1
 207 -8 95 15 95 128 c 2
EndSplineSet
Layer: 5
SplineSet
88 134 m 2
 88 810 l 1
 225 810 l 1
 225 147 l 2
 225 97 254 80 318 74 c 1
 292 -15 l 1
 208 -9 88 14 88 134 c 2
EndSplineSet
Layer: 6
SplineSet
80 140 m 0
 80 810 l 1
 240 810 l 1
 240 155 l 0
 240 109 263 93 325 87 c 1
 295 -16 l 1
 208 -10 80 14 80 140 c 0
EndSplineSet
Colour: ff00
EndChar

StartChar: m
Encoding: 109 109 81
GlifName: m
Width: 945
VWidth: 0
Flags: W
HStem: 0 21G<100 167 447 513 793 860> 551 53<264.41 410.865 611.46 757.988>
VStem: 90 60<509.4 597.84> 100 67<0 425.556> 447 66<0 425.556> 793 67<0 514.209>
LayerCount: 7
Back
SplineSet
155 300 m 4
 160 401 212 590 365 590 c 4
 457 590 510 531 510 435 c 4
 510 242 510 0 510 0 c 1053
EndSplineSet
Fore
SplineSet
60 591 m 1xdc
 205 603 l 1xbc
 218 506 l 1
 252 568 306 616 390 616 c 0
 474 616 523 566 545 501 c 1
 579 565 633 616 720 616 c 0
 842 616 890 510 890 406 c 2
 890 0 l 1
 730 0 l 1
 730 400 l 2
 730 479 698 490 675 490 c 0
 621 490 577 415 560 323 c 1
 560 0 l 1
 400 0 l 1
 400 400 l 2
 400 479 368 490 345 490 c 0
 291 490 247 415 230 323 c 1
 230 0 l 1
 70 0 l 1
 70 420 l 1
 60 591 l 1xdc
EndSplineSet
PickledDataWithLists: "(dp0
Vcom.fontlab.hintData
p1
(dp2
Vhhints
p3
(lp4
(dp5
Vwidth
p6
L10L
sVposition
p7
L-19L
sa(dp8
g6
L10L
sg7
L-10L
sa(dp9
g6
L10L
sg7
L549L
sa(dp10
g6
L10L
sg7
L606L
sa(dp11
g6
L10L
sg7
L611L
sasVvhints
p12
(lp13
(dp14
g6
L10L
sg7
L76L
sa(dp15
g6
L10L
sg7
L96L
sa(dp16
g6
L10L
sg7
L167L
sa(dp17
g6
L10L
sg7
L436L
sa(dp18
g6
L10L
sg7
L441L
sa(dp19
g6
L10L
sg7
L776L
sa(dp20
g6
L10L
sg7
L781L
sa(dp21
g6
L10L
sg7
L864L
sa(dp22
g6
L10L
sg7
L869L
sass."
Layer: 2
SplineSet
90 597 m 1xec
 150 603 l 1xec
 164 447 l 1
 195 528 252 604 353 604 c 0
 451 604 504 538 512 449 c 1
 543 530 599 604 700 604 c 0
 807 604 860 525 860 425 c 2
 860 0 l 1
 793 0 l 1
 793 423 l 2
 793 512 749 551 685 551 c 0
 580 551 526 425 513 322 c 1
 513 0 l 1
 447 0 l 1
 447 423 l 2
 447 512 402 551 338 551 c 0
 233 551 180 425 167 322 c 1
 167 0 l 1
 100 0 l 1
 100 420 l 1xdc
 90 597 l 1xec
EndSplineSet
Layer: 3
SplineSet
82 595 m 1xec
 164 603 l 1xec
 178 464 l 1
 210 540 265 607 362 607 c 0
 454 607 507 546 521 467 c 1
 553 542 609 607 704 607 c 0
 814 607 867 521 867 420 c 2
 867 0 l 1
 777 0 l 1
 777 418 l 2
 777 504 736 536 682 536 c 0
 592 536 541 428 525 328 c 1
 525 0 l 1
 435 0 l 1
 435 418 l 2
 435 504 393 536 339 536 c 0
 247 536 197 423 182 322 c 1
 182 0 l 1
 92 0 l 1
 92 420 l 1xdc
 82 595 l 1xec
EndSplineSet
Layer: 4
SplineSet
75 594 m 1xec
 178 603 l 1xec
 192 479 l 1
 225 550 280 610 372 610 c 0
 461 610 512 554 530 480 c 1
 563 551 618 610 710 610 c 0
 824 610 875 518 875 416 c 2
 875 0 l 1
 762 0 l 1
 762 412 l 2
 762 496 724 521 680 521 c 0
 601 521 553 421 537 322 c 1
 537 0 l 1
 423 0 l 1
 423 412 l 2
 423 496 386 521 342 521 c 0
 263 521 214 420 198 321 c 1
 198 0 l 1
 85 0 l 1
 85 420 l 1xdc
 75 594 l 1xec
EndSplineSet
Layer: 5
SplineSet
67 593 m 5xd6
 191 603 l 5xb6
 205 495 l 5
 239 561 292 613 380 613 c 4
 467 613 517 559 537 490 c 5
 570 558 625 613 715 613 c 4
 833 613 882 514 882 411 c 6
 882 0 l 5
 745 0 l 5
 745 406 l 6
 745 488 710 505 677 505 c 4
 610 505 564 419 548 323 c 5
 548 0 l 5
 411 0 l 5
 411 406 l 6
 411 488 376 505 343 505 c 4
 276 505 230 419 214 323 c 5
 214 0 l 5
 77 0 l 5
 77 420 l 5xce
 67 593 l 5xd6
EndSplineSet
Layer: 6
SplineSet
60 591 m 1xdc
 205 603 l 1xbc
 218 506 l 1
 252 568 306 616 390 616 c 0
 474 616 523 566 545 501 c 1
 579 565 633 616 720 616 c 0
 842 616 890 510 890 406 c 2
 890 0 l 1
 730 0 l 1
 730 400 l 2
 730 479 698 490 675 490 c 0
 621 490 577 415 560 323 c 1
 560 0 l 1
 400 0 l 1
 400 400 l 2
 400 479 368 490 345 490 c 0
 291 490 247 415 230 323 c 1
 230 0 l 1
 70 0 l 1
 70 420 l 1
 60 591 l 1xdc
EndSplineSet
Colour: ff00
EndChar

StartChar: n
Encoding: 110 110 82
GlifName: n
Width: 655
VWidth: 0
Flags: W
HStem: 0 21G<100 167 503 570> 558 54<303.817 463.063> 583 20G<90 151.868>
VStem: 100 67<0 392.203> 503 67<0 515.224>
LayerCount: 7
Back
SplineSet
155 300 m 4
 160 401 212 590 365 590 c 4
 457 590 510 531 510 435 c 4
 510 242 510 0 510 0 c 1053
EndSplineSet
Fore
SplineSet
70 0 m 1xd8
 70 420 l 1
 60 591 l 1
 205 603 l 1xb8
 221 484 l 1
 261 556 325 616 425 616 c 0
 547 616 600 510 600 406 c 2
 600 0 l 1
 440 0 l 1
 440 400 l 2
 440 479 403 490 380 490 c 0
 313 490 249 405 230 305 c 1
 230 0 l 1
 70 0 l 1xd8
EndSplineSet
PickledDataWithLists: "(dp0
Vcom.fontlab.hintData
p1
(dp2
Vhhints
p3
(lp4
(dp5
Vwidth
p6
L10L
sVposition
p7
L-15L
sa(dp8
g6
L10L
sg7
L-10L
sa(dp9
g6
L10L
sg7
L549L
sa(dp10
g6
L10L
sg7
L606L
sa(dp11
g6
L10L
sg7
L611L
sasVvhints
p12
(lp13
(dp14
g6
L10L
sg7
L55L
sa(dp15
g6
L10L
sg7
L96L
sa(dp16
g6
L10L
sg7
L481L
sa(dp17
g6
L10L
sg7
L486L
sa(dp18
g6
L10L
sg7
L569L
sa(dp19
g6
L10L
sg7
L574L
sass."
Layer: 2
SplineSet
100 0 m 1xd8
 100 420 l 1
 90 597 l 1
 150 603 l 1xb8
 167 421 l 1
 207 517 283 612 402 612 c 0
 515 612 570 530 570 426 c 2
 570 0 l 1
 503 0 l 1
 503 424 l 2
 503 516 455 558 387 558 c 0
 268 558 184 418 167 305 c 1
 167 0 l 1
 100 0 l 1xd8
EndSplineSet
Layer: 3
SplineSet
92 0 m 1xcc
 92 420 l 1xcc
 82 595 l 1
 164 603 l 1xb4
 180 438 l 1
 220 527 292 613 407 613 c 0
 522 613 577 525 577 421 c 2
 577 0 l 1
 487 0 l 1
 487 418 l 2
 487 506 442 541 385 541 c 0
 278 541 199 413 182 302 c 1
 182 0 l 1
 92 0 l 1xcc
EndSplineSet
Layer: 4
SplineSet
85 0 m 1xcc
 85 420 l 1xcc
 75 594 l 1
 178 603 l 1xb4
 194 453 l 1
 234 537 303 614 413 614 c 0
 530 614 585 520 585 416 c 2
 585 0 l 1
 472 0 l 1
 472 412 l 2
 472 497 429 524 383 524 c 0
 289 524 214 408 198 299 c 1
 198 0 l 1
 85 0 l 1xcc
EndSplineSet
Layer: 5
SplineSet
77 0 m 5xcc
 77 420 l 5xcc
 67 593 l 5
 191 603 l 5xb4
 208 470 l 5
 248 548 315 615 419 615 c 4
 539 615 592 515 592 411 c 6
 592 0 l 5
 455 0 l 5
 455 406 l 6
 455 488 415 507 381 507 c 4
 303 507 233 410 214 307 c 5
 214 0 l 5
 77 0 l 5xcc
EndSplineSet
Layer: 6
SplineSet
70 0 m 1xd8
 70 420 l 1
 60 591 l 1
 205 603 l 1xb8
 221 484 l 1
 261 556 325 616 425 616 c 0
 547 616 600 510 600 406 c 2
 600 0 l 1
 440 0 l 1
 440 400 l 2
 440 479 403 490 380 490 c 0
 313 490 249 405 230 305 c 1
 230 0 l 1
 70 0 l 1xd8
EndSplineSet
Colour: ff00
EndChar

StartChar: o
Encoding: 111 111 83
GlifName: o
Width: 660
VWidth: 0
Flags: W
HStem: -17 50<236.628 423.372> 567 50<236.628 423.372>
VStem: 70 67<144.663 455.337> 523 67<144.663 455.337>
LayerCount: 7
Back
SplineSet
330 564 m 4
 485 564 540 445 540 313 c 6
 540 287 l 6
 540 155 485 36 330 36 c 4
 175 36 120 155 120 287 c 6
 120 313 l 6
 120 445 175 564 330 564 c 4
EndSplineSet
Fore
SplineSet
40 287 m 2
 40 313 l 2
 40 443 95 621 330 621 c 0
 565 621 620 443 620 313 c 2
 620 287 l 2
 620 157 565 -21 330 -21 c 0
 95 -21 40 157 40 287 c 2
330 93 m 0
 405 93 460 153 460 287 c 2
 460 313 l 2
 460 447 405 507 330 507 c 0
 255 507 200 447 200 313 c 2
 200 287 l 2
 200 153 255 93 330 93 c 0
EndSplineSet
PickledDataWithLists: "(dp0
Vcom.fontlab.hintData
p1
(dp2
Vhhints
p3
(lp4
(dp5
Vwidth
p6
L10L
sVposition
p7
L-21L
sa(dp8
g6
L9L
sg7
L42L
sa(dp9
g6
L10L
sg7
L552L
sa(dp10
g6
L10L
sg7
L614L
sasVvhints
p11
(lp12
(dp13
g6
L10L
sg7
L61L
sa(dp14
g6
L10L
sg7
L149L
sa(dp15
g6
L10L
sg7
L441L
sa(dp16
g6
L10L
sg7
L506L
sa(dp17
g6
L10L
sg7
L594L
sass."
Layer: 2
SplineSet
70 286 m 2
 70 314 l 2
 70 460 130 617 330 617 c 0
 530 617 590 460 590 314 c 2
 590 286 l 2
 590 140 530 -17 330 -17 c 0
 130 -17 70 140 70 286 c 2
330 33 m 0
 464 33 523 140 523 286 c 2
 523 314 l 2
 523 460 464 567 330 567 c 0
 196 567 137 460 137 314 c 2
 137 286 l 2
 137 140 196 33 330 33 c 0
EndSplineSet
Layer: 3
SplineSet
62 286 m 2
 62 314 l 2
 62 456 122 618 330 618 c 0
 538 618 598 456 598 314 c 2
 598 286 l 2
 598 144 538 -18 330 -18 c 0
 122 -18 62 144 62 286 c 2
330 48 m 0
 450 48 508 143 508 286 c 2
 508 314 l 2
 508 457 450 552 330 552 c 0
 210 552 152 457 152 314 c 2
 152 286 l 2
 152 143 210 48 330 48 c 0
EndSplineSet
Layer: 4
SplineSet
55 286 m 2
 55 314 l 2
 55 452 113 619 330 619 c 0
 547 619 605 452 605 314 c 2
 605 286 l 2
 605 148 547 -19 330 -19 c 0
 113 -19 55 148 55 286 c 2
330 63 m 0
 435 63 492 146 492 286 c 2
 492 314 l 2
 492 454 435 537 330 537 c 0
 225 537 168 454 168 314 c 2
 168 286 l 2
 168 146 225 63 330 63 c 0
EndSplineSet
Layer: 5
SplineSet
48 287 m 6
 48 313 l 6
 48 447 104 620 330 620 c 4
 556 620 612 447 612 313 c 6
 612 287 l 6
 612 153 556 -20 330 -20 c 4
 104 -20 48 153 48 287 c 6
330 78 m 4
 420 78 475 150 475 287 c 6
 475 313 l 6
 475 450 420 522 330 522 c 4
 240 522 185 450 185 313 c 6
 185 287 l 6
 185 150 240 78 330 78 c 4
EndSplineSet
Layer: 6
SplineSet
40 287 m 2
 40 313 l 2
 40 443 95 621 330 621 c 0
 565 621 620 443 620 313 c 2
 620 287 l 2
 620 157 565 -21 330 -21 c 0
 95 -21 40 157 40 287 c 2
330 93 m 0
 405 93 460 153 460 287 c 2
 460 313 l 2
 460 447 405 507 330 507 c 0
 255 507 200 447 200 313 c 2
 200 287 l 2
 200 153 255 93 330 93 c 0
EndSplineSet
Colour: ff00
EndChar

StartChar: p
Encoding: 112 112 84
GlifName: p
Width: 675
VWidth: 0
Flags: W
HStem: -210 21G<100 167> -12 50<265.263 441.96> 562 50<265.365 441.96> 583 20G<90 151.818>
VStem: 90 60<510.6 597.84> 100 67<-210 111 143.182 456.818> 538 67<147.117 452.883>
LayerCount: 7
Fore
SplineSet
635 290 m 2xec
 635 160 569 -16 380 -16 c 0
 316 -16 266 13 230 55 c 1
 230 -210 l 1
 70 -210 l 1
 70 420 l 1
 60 591 l 1
 205 603 l 1xdc
 215 526 l 1
 253 577 307 616 380 616 c 0
 569 616 635 440 635 310 c 2
 635 290 l 2xec
230 217 m 1
 251 148 294 100 360 100 c 0
 425 100 475 153 475 290 c 2
 475 310 l 2
 475 447 425 500 360 500 c 0xec
 294 500 251 452 230 383 c 1
 230 217 l 1
EndSplineSet
PickledDataWithLists: "(dp0
Vcom.fontlab.hintData
p1
(dp2
Vhhints
p3
(lp4
(dp5
Vwidth
p6
L10L
sVposition
p7
L-246L
sa(dp8
g6
L10L
sg7
L-16L
sa(dp9
g6
L10L
sg7
L46L
sa(dp10
g6
L10L
sg7
L549L
sa(dp11
g6
L10L
sg7
L610L
sasVvhints
p12
(lp13
(dp14
g6
L10L
sg7
L41L
sa(dp15
g6
L10L
sg7
L101L
sa(dp16
g6
L10L
sg7
L108L
sa(dp17
g6
L10L
sg7
L193L
sa(dp18
g6
L10L
sg7
L523L
sa(dp19
g6
L10L
sg7
L612L
sass."
Layer: 2
SplineSet
605 313 m 2xea
 605 287 l 2
 605 142 542 -12 357 -12 c 0
 263 -12 203 46 167 111 c 1
 167 -210 l 1
 100 -210 l 1
 100 420 l 1xe6
 90 597 l 1
 150 603 l 1xda
 161 482 l 1
 197 550 260 612 357 612 c 0
 542 612 605 458 605 313 c 2xea
167 207 m 1
 189 127 245 38 350 38 c 0
 478 38 538 141 538 287 c 2
 538 313 l 2
 538 459 478 562 350 562 c 0
 245 562 189 473 167 393 c 1
 167 207 l 1
EndSplineSet
Layer: 3
SplineSet
613 312 m 2xea
 613 288 l 2
 613 146 549 -13 363 -13 c 0
 278 -13 220 37 183 96 c 1
 183 -210 l 1
 93 -210 l 1
 93 420 l 1xe6
 83 595 l 1
 165 603 l 1xda
 175 497 l 1
 213 559 274 613 363 613 c 0
 549 613 613 454 613 312 c 2xea
183 210 m 1
 204 132 258 54 353 54 c 0
 465 54 523 144 523 288 c 2
 523 312 l 2
 523 456 465 546 353 546 c 0
 258 546 204 468 183 390 c 1
 183 210 l 1
EndSplineSet
Layer: 4
SplineSet
620 311 m 2xea
 620 289 l 2
 620 151 555 -14 368 -14 c 0
 290 -14 235 27 198 80 c 1
 198 -210 l 1
 85 -210 l 1
 85 420 l 1xe6
 75 594 l 1
 178 603 l 1xda
 188 508 l 1
 226 566 285 614 368 614 c 0
 555 614 620 449 620 311 c 2xea
198 215 m 1
 219 138 269 69 355 69 c 0
 452 69 507 148 507 289 c 2
 507 311 l 2
 507 452 452 531 355 531 c 0
 269 531 219 462 198 385 c 1
 198 215 l 1
EndSplineSet
Layer: 5
SplineSet
627 311 m 6xea
 627 289 l 6
 627 155 562 -15 374 -15 c 4
 303 -15 251 20 214 67 c 5
 214 -210 l 5
 77 -210 l 5
 77 420 l 5xe6
 67 593 l 5
 191 603 l 5xda
 202 517 l 5
 240 572 295 615 374 615 c 4
 562 615 627 445 627 311 c 6xea
214 214 m 5
 235 141 282 84 357 84 c 4
 438 84 490 150 490 289 c 6
 490 311 l 6
 490 450 438 516 357 516 c 4
 282 516 235 459 214 386 c 5
 214 214 l 5
EndSplineSet
Layer: 6
SplineSet
635 290 m 2xec
 635 160 569 -16 380 -16 c 0
 316 -16 266 13 230 55 c 1
 230 -210 l 1
 70 -210 l 1
 70 420 l 1
 60 591 l 1
 205 603 l 1xdc
 215 526 l 1
 253 577 307 616 380 616 c 0
 569 616 635 440 635 310 c 2
 635 290 l 2xec
230 217 m 1
 251 148 294 100 360 100 c 0
 425 100 475 153 475 290 c 2
 475 310 l 2
 475 447 425 500 360 500 c 0xec
 294 500 251 452 230 383 c 1
 230 217 l 1
EndSplineSet
Colour: ff00
EndChar

StartChar: q
Encoding: 113 113 85
GlifName: q
Width: 675
VWidth: 0
Flags: W
HStem: -210 21G<510 575> -12 50<233.04 411.019> 562 50<233.04 410.783> 580 20G<516.983 575>
VStem: 70 67<147.117 452.883> 510 65<-210 111 145.566 454.434 482 600>
LayerCount: 7
Fore
SplineSet
469 600 m 1xda
 605 600 l 1xda
 605 -210 l 1
 450 -210 l 1
 450 61 l 1
 413 16 362 -16 295 -16 c 0
 106 -16 40 160 40 290 c 2
 40 310 l 2
 40 440 106 616 295 616 c 0xec
 368 616 421 578 459 527 c 1
 469 600 l 1xda
450 236 m 1xec
 450 364 l 1
 432 443 386 500 315 500 c 0
 250 500 200 447 200 310 c 2
 200 290 l 2
 200 153 250 100 315 100 c 0
 386 100 432 157 450 236 c 1xec
EndSplineSet
PickledDataWithLists: "(dp0
Vcom.fontlab.hintData
p1
(dp2
Vhhints
p3
(lp4
(dp5
Vwidth
p6
L10L
sVposition
p7
L-261L
sa(dp8
g6
L10L
sg7
L-184L
sa(dp9
g6
L10L
sg7
L-17L
sa(dp10
g6
L10L
sg7
L44L
sa(dp11
g6
L10L
sg7
L66L
sa(dp12
g6
L10L
sg7
L549L
sa(dp13
g6
L10L
sg7
L611L
sasVvhints
p14
(lp15
(dp16
g6
L10L
sg7
L59L
sa(dp17
g6
L10L
sg7
L149L
sa(dp18
g6
L10L
sg7
L444L
sa(dp19
g6
L10L
sg7
L459L
sa(dp20
g6
L10L
sg7
L471L
sa(dp21
g6
L10L
sg7
L547L
sa(dp22
g6
L10L
sg7
L559L
sa(dp23
g6
L10L
sg7
L649L
sass."
Layer: 2
SplineSet
70 287 m 2xdc
 70 313 l 2
 70 458 133 612 318 612 c 0xec
 416 612 477 550 512 482 c 1
 518 600 l 1
 575 600 l 1
 575 -210 l 1
 510 -210 l 1
 510 111 l 1
 473 46 412 -12 318 -12 c 0
 133 -12 70 142 70 287 c 2xdc
510 215 m 1
 510 385 l 1
 490 466 433 562 325 562 c 0
 197 562 137 459 137 313 c 2
 137 287 l 2
 137 141 197 38 325 38 c 0
 433 38 490 134 510 215 c 1
EndSplineSet
Layer: 3
SplineSet
62 288 m 2xdc
 62 312 l 2
 62 454 126 613 312 613 c 0xec
 402 613 461 558 498 494 c 1
 505 600 l 1
 582 600 l 1xda
 582 -210 l 1
 495 -210 l 1
 495 96 l 1
 457 37 397 -13 312 -13 c 0
 126 -13 62 146 62 288 c 2xdc
495 222 m 1
 495 378 l 1
 476 460 422 546 322 546 c 0
 210 546 152 456 152 312 c 2
 152 288 l 2
 152 144 210 54 322 54 c 0
 422 54 476 140 495 222 c 1
EndSplineSet
Layer: 4
SplineSet
55 289 m 2xdc
 55 311 l 2
 55 449 120 614 307 614 c 0xec
 391 614 448 567 485 508 c 1
 494 600 l 1
 590 600 l 1xda
 590 -210 l 1
 480 -210 l 1
 480 82 l 1
 442 28 386 -14 307 -14 c 0
 120 -14 55 151 55 289 c 2xdc
480 226 m 1
 480 374 l 1
 460 455 410 531 320 531 c 0
 223 531 168 452 168 311 c 2
 168 289 l 2
 168 148 223 69 320 69 c 0
 410 69 460 145 480 226 c 1
EndSplineSet
Layer: 5
SplineSet
48 289 m 6xdc
 48 311 l 6
 48 445 113 615 301 615 c 4xec
 379 615 434 572 472 518 c 5
 482 600 l 5
 598 600 l 5xda
 598 -210 l 5
 465 -210 l 5
 465 72 l 5
 428 22 374 -15 301 -15 c 4
 113 -15 48 155 48 289 c 6xdc
465 229 m 5
 465 371 l 5
 446 451 398 516 318 516 c 4
 237 516 185 450 185 311 c 6
 185 289 l 6
 185 150 237 84 318 84 c 4
 398 84 446 149 465 229 c 5
EndSplineSet
Layer: 6
SplineSet
469 600 m 1xda
 605 600 l 1xda
 605 -210 l 1
 450 -210 l 1
 450 61 l 1
 413 16 362 -16 295 -16 c 0
 106 -16 40 160 40 290 c 2
 40 310 l 2
 40 440 106 616 295 616 c 0xec
 368 616 421 578 459 527 c 1
 469 600 l 1xda
450 236 m 1xec
 450 364 l 1
 432 443 386 500 315 500 c 0
 250 500 200 447 200 310 c 2
 200 290 l 2
 200 153 250 100 315 100 c 0
 386 100 432 157 450 236 c 1xec
EndSplineSet
Colour: ff00
EndChar

StartChar: r
Encoding: 114 114 86
GlifName: r
Width: 450
VWidth: 0
Flags: W
HStem: 0 21G<125 192> 553 59<274.12 407.015> 583 20G<90 151.099>
VStem: 90 57<562.018 597.032> 125 67<0 446.033>
LayerCount: 7
Back
SplineSet
0 695 m 5
 5 787 42 960 187 960 c 4
 229 960 256 947 278 925 c 1028
EndSplineSet
Fore
SplineSet
60 588 m 1xd0
 194 603 l 1xb0
 227 483 l 1
 253 555 299 616 384 616 c 0
 412 616 435 609 455 599 c 1
 395 469 l 1
 384 476 372 480 356 480 c 0
 307 480 269 407 255 314 c 1
 255 0 l 1
 95 0 l 1
 95 450 l 1
 60 588 l 1xd0
EndSplineSet
PickledDataWithLists: "(dp0
Vcom.fontlab.hintData
p1
(dp2
Vhhints
p3
(lp4
(dp5
Vwidth
p6
L10L
sVposition
p7
L-13L
sa(dp8
g6
L10L
sg7
L524L
sa(dp9
g6
L10L
sg7
L549L
sa(dp10
g6
L10L
sg7
L596L
sa(dp11
g6
L10L
sg7
L611L
sasVvhints
p12
(lp13
(dp14
g6
L10L
sg7
L20L
sa(dp15
g6
L10L
sg7
L171L
sa(dp16
g6
L10L
sg7
L261L
sa(dp17
g6
L10L
sg7
L479L
sass."
Layer: 2
SplineSet
90 596 m 1xd0
 147 603 l 1xb0
 180 442 l 1
 203 528 253 612 355 612 c 0
 382 612 406 607 425 598 c 1
 399 542 l 1
 384 549 366 553 345 553 c 0
 246 553 204 439 192 338 c 1
 192 0 l 1
 125 0 l 1
 125 420 l 1xc8
 90 596 l 1xd0
EndSplineSet
Layer: 3
SplineSet
82 594 m 1xd0
 158 603 l 1xb0
 192 453 l 1
 216 535 265 613 362 613 c 0
 390 613 412 607 432 598 c 1
 398 524 l 1
 384 531 368 535 348 535 c 0
 260 535 219 428 207 327 c 1
 207 0 l 1
 117 0 l 1
 117 427 l 1xc8
 82 594 l 1xd0
EndSplineSet
Layer: 4
SplineSet
75 592 m 1xd0
 170 603 l 1xb0
 204 465 l 1
 229 543 276 614 369 614 c 0
 397 614 420 608 440 599 c 1
 397 505 l 1
 384 512 370 517 351 517 c 0
 276 517 235 418 223 318 c 1
 223 0 l 1
 110 0 l 1
 110 435 l 1
 75 592 l 1xd0
EndSplineSet
Layer: 5
SplineSet
67 590 m 5xd0
 182 603 l 5xb0
 215 475 l 5
 240 550 287 615 376 615 c 4
 404 615 427 609 447 599 c 5
 395 487 l 5
 383 494 370 498 353 498 c 4
 292 498 253 417 239 323 c 5
 239 0 l 5
 102 0 l 5
 102 443 l 5
 67 590 l 5xd0
EndSplineSet
Layer: 6
SplineSet
60 588 m 1xd0
 194 603 l 1xb0
 227 483 l 1
 253 555 299 616 384 616 c 0
 412 616 435 609 455 599 c 1
 395 469 l 1
 384 476 372 480 356 480 c 0
 307 480 269 407 255 314 c 1
 255 0 l 1
 95 0 l 1
 95 450 l 1
 60 588 l 1xd0
EndSplineSet
Colour: ff00
EndChar

StartChar: s
Encoding: 115 115 87
GlifName: s
Width: 570
VWidth: 0
Flags: W
HStem: -17 49<189.681 390.497> 568 49<188.997 372.615>
VStem: 60 65<87.4682 135.034> 76 64<392.326 525.228> 429 65<467.966 515.133> 446 64<79.2713 216.961>
LayerCount: 7
Back
SplineSet
445 450 m 5
 436 500 385 566 285 566 c 4
 186 566 125 515 125 440 c 4
 125 377 178 344 221 329 c 4
 261 315 322 295 362 283 c 4
 406 270 460 234 460 163 c 4
 460 87 397 34 285 34 c 4
 173 34 119 102 110 153 c 1029
EndSplineSet
Fore
SplineSet
30 143 m 1
 185 163 l 1
 191 124 228 91 291 91 c 0
 352 91 388 118 388 162 c 0
 388 204 353 219 333 225 c 0
 289 238 228 254 185 270 c 0
 125 292 45 332 45 435 c 0
 45 539 140 621 285 621 c 0
 443 621 513 524 525 460 c 1
 370 440 l 1
 364 479 338 509 285 509 c 0
 233 509 197 483 197 441 c 0
 197 408 230 393 255 385 c 0
 296 372 360 354 393 344 c 0
 465 322 540 281 540 168 c 0
 540 62 442 -21 285 -21 c 0
 116 -21 42 77 30 143 c 1
EndSplineSet
PickledDataWithLists: "(dp0
Vcom.fontlab.hintData
p1
(dp2
Vhhints
p3
(lp4
(dp5
Vwidth
p6
L10L
sVposition
p7
L-20L
sa(dp8
g6
L10L
sg7
L42L
sa(dp9
g6
L10L
sg7
L151L
sa(dp10
g6
L10L
sg7
L434L
sa(dp11
g6
L10L
sg7
L554L
sa(dp12
g6
L10L
sg7
L616L
sasVvhints
p13
(lp14
(dp15
g6
L10L
sg7
L60L
sa(dp16
g6
L10L
sg7
L139L
sa(dp17
g6
L10L
sg7
L381L
sa(dp18
g6
L10L
sg7
L431L
sa(dp19
g6
L10L
sg7
L470L
sa(dp20
g6
L10L
sg7
L516L
sass."
Layer: 2
SplineSet
60 134 m 1xe4
 125 142 l 1
 133 92 184 32 287 32 c 0
 390 32 446 78 446 149 c 0xe4
 446 214 395 245 357 256 c 0
 312 270 246 291 201 307 c 0
 147 326 76 366 76 452 c 0
 76 547 158 617 285 617 c 0
 418 617 483 531 494 469 c 1
 429 461 l 1
 420 510 375 568 285 568 c 0
 195 568 140 524 140 454 c 0xd8
 140 398 188 369 228 356 c 0
 272 341 340 320 382 307 c 0
 442 289 510 246 510 151 c 0
 510 54 425 -17 285 -17 c 0
 139 -17 71 71 60 134 c 1xe4
EndSplineSet
Layer: 3
SplineSet
52 137 m 1xe4
 140 147 l 1
 148 100 195 47 288 47 c 0
 380 47 431 89 431 153 c 0xe4
 431 213 384 239 350 249 c 0
 305 263 240 281 196 297 c 0
 140 317 68 358 68 448 c 0
 68 546 152 618 284 618 c 0
 424 618 490 529 501 467 c 1
 414 455 l 1
 406 501 364 553 284 553 c 0
 204 553 154 514 154 451 c 0xd8
 154 401 198 375 234 363 c 0
 278 349 344 329 384 317 c 0
 447 298 517 255 517 155 c 0
 517 56 428 -18 284 -18 c 0
 132 -18 64 73 52 137 c 1xe4
EndSplineSet
Layer: 4
SplineSet
45 139 m 1
 155 153 l 1
 162 109 206 61 289 61 c 0
 371 61 417 99 417 156 c 0
 417 210 374 232 345 241 c 0
 300 254 237 272 193 288 c 0
 136 309 61 350 61 444 c 0
 61 544 149 619 285 619 c 0
 431 619 498 528 509 465 c 1
 399 450 l 1
 392 494 356 539 285 539 c 0
 214 539 169 504 169 448 c 0
 169 403 210 381 242 370 c 0
 285 356 350 337 387 326 c 0
 453 306 525 264 525 160 c 0
 525 59 434 -19 285 -19 c 0
 128 -19 57 74 45 139 c 1
EndSplineSet
Layer: 5
SplineSet
37 141 m 5
 169 158 l 5
 175 116 216 76 289 76 c 4
 361 76 402 108 402 159 c 4
 402 207 363 226 339 233 c 4
 295 246 233 263 189 279 c 4
 131 300 52 340 52 439 c 4
 52 541 145 620 285 620 c 4
 437 620 505 526 517 462 c 5
 384 445 l 5
 377 487 347 524 285 524 c 4
 223 524 182 493 182 444 c 4
 182 405 219 387 248 378 c 4
 290 364 355 346 390 335 c 4
 459 314 532 272 532 164 c 4
 532 60 438 -20 285 -20 c 4
 122 -20 49 76 37 141 c 5
EndSplineSet
Layer: 6
SplineSet
30 143 m 1
 185 163 l 1
 191 124 228 91 291 91 c 0
 352 91 388 118 388 162 c 0
 388 204 353 219 333 225 c 0
 289 238 228 254 185 270 c 0
 125 292 45 332 45 435 c 0
 45 539 140 621 285 621 c 0
 443 621 513 524 525 460 c 1
 370 440 l 1
 364 479 338 509 285 509 c 0
 233 509 197 483 197 441 c 0
 197 408 230 393 255 385 c 0
 296 372 360 354 393 344 c 0
 465 322 540 281 540 168 c 0
 540 62 442 -21 285 -21 c 0
 116 -21 42 77 30 143 c 1
EndSplineSet
Colour: ff00
EndChar

StartChar: t
Encoding: 116 116 88
GlifName: t
Width: 435
VWidth: 0
Flags: W
HStem: -12 49<225.61 382.302> 556 44<45 145 212 375>
VStem: 145 67<47.9982 556 600 730>
LayerCount: 7
Back
SplineSet
160 720 m 25
 160 720 160 435 160 149 c 4
 160 68 198 39 260 39 c 4
 317 39 369 58 390 74 c 1028
EndSplineSet
Fore
SplineSet
25 500 m 1
 25 600 l 1
 111 600 l 1
 111 723 l 1
 262 735 l 1
 262 600 l 1
 395 600 l 1
 395 500 l 1
 265 500 l 1
 265 164 l 2
 265 111 275 98 304 98 c 0
 339 98 375 111 388 119 c 1
 425 15 l 1
 393 -1 347 -16 283 -16 c 0
 178 -16 105 27 105 140 c 2
 105 500 l 1
 25 500 l 1
EndSplineSet
PickledDataWithLists: "(dp0
Vcom.fontlab.hintData
p1
(dp2
Vhhints
p3
(lp4
(dp5
Vwidth
p6
L10L
sVposition
p7
L-18L
sa(dp8
g6
L10L
sg7
L41L
sa(dp9
g6
L10L
sg7
L86L
sa(dp10
g6
L10L
sg7
L524L
sa(dp11
g6
L10L
sg7
L586L
sa(dp12
g6
L10L
sg7
L741L
sasVvhints
p13
(lp14
(dp15
g6
L10L
sg7
L20L
sa(dp16
g6
L10L
sg7
L131L
sa(dp17
g6
L10L
sg7
L136L
sa(dp18
g6
L10L
sg7
L141L
sa(dp19
g6
L10L
sg7
L219L
sa(dp20
g6
L10L
sg7
L225L
sa(dp21
g6
L10L
sg7
L399L
sa(dp22
g6
L10L
sg7
L439L
sass."
Layer: 2
SplineSet
45 556 m 5
 45 600 l 5
 147 600 l 5
 147 730 l 5
 211 735 l 5
 211 600 l 5
 375 600 l 5
 375 556 l 5
 212 556 l 5
 212 123 l 6
 212 55 235 37 281 37 c 4
 328 37 373 54 389 65 c 5
 405 20 l 5
 380 4 330 -12 274 -12 c 4
 196 -12 145 24 145 115 c 6
 145 556 l 5
 45 556 l 5
EndSplineSet
Layer: 3
SplineSet
40 542 m 5
 40 600 l 5
 138 600 l 5
 138 728 l 5
 224 735 l 5
 224 600 l 5
 380 600 l 5
 380 542 l 5
 225 542 l 5
 225 133 l 6
 225 69 245 52 287 52 c 4
 331 52 372 69 388 79 c 5
 410 19 l 5
 383 3 334 -13 276 -13 c 4
 191 -13 135 25 135 121 c 6
 135 542 l 5
 40 542 l 5
EndSplineSet
Layer: 4
SplineSet
35 528 m 5
 35 600 l 5
 129 600 l 5
 129 726 l 5
 236 735 l 5
 236 600 l 5
 385 600 l 5
 385 528 l 5
 238 528 l 5
 238 144 l 6
 238 83 256 67 293 67 c 4
 334 67 373 82 388 92 c 5
 415 18 l 5
 386 2 339 -14 279 -14 c 4
 187 -14 125 26 125 128 c 6
 125 528 l 5
 35 528 l 5
EndSplineSet
Layer: 5
SplineSet
30 514 m 5
 30 600 l 5
 120 600 l 5
 120 725 l 5
 249 735 l 5
 249 600 l 5
 390 600 l 5
 390 514 l 5
 252 514 l 5
 252 154 l 6
 252 97 265 83 298 83 c 4
 336 83 374 96 388 105 c 5
 420 16 l 5
 390 0 343 -15 281 -15 c 4
 183 -15 115 26 115 134 c 6
 115 514 l 5
 30 514 l 5
EndSplineSet
Layer: 6
SplineSet
25 500 m 1
 25 600 l 1
 111 600 l 1
 111 723 l 1
 262 735 l 1
 262 600 l 1
 395 600 l 1
 395 500 l 1
 265 500 l 1
 265 164 l 2
 265 111 275 98 304 98 c 0
 339 98 375 111 388 119 c 1
 425 15 l 1
 393 -1 347 -16 283 -16 c 0
 178 -16 105 27 105 140 c 2
 105 500 l 1
 25 500 l 1
EndSplineSet
Colour: ff00
EndChar

StartChar: u
Encoding: 117 117 89
GlifName: u
Width: 640
VWidth: 0
Flags: W
HStem: -17 50<221.497 418.503> 580 20G<85 152 488 555>
VStem: 85 67<99.1026 600> 488 67<99.1026 600>
LayerCount: 7
Back
SplineSet
505 198 m 5
 505 99 431 36 320 36 c 4
 209 36 135 99 135 198 c 1029
EndSplineSet
Fore
SplineSet
55 198 m 2
 55 600 l 1
 215 600 l 1
 215 198 l 2
 215 119 263 93 320 93 c 0
 377 93 425 119 425 198 c 2
 425 600 l 1
 585 600 l 1
 585 198 l 2
 585 79 485 -21 320 -21 c 0
 155 -21 55 79 55 198 c 2
EndSplineSet
PickledDataWithLists: "(dp0
Vcom.fontlab.hintData
p1
(dp2
Vhhints
p3
(lp4
(dp5
Vwidth
p6
L10L
sVposition
p7
L-21L
sa(dp8
g6
L10L
sg7
L-16L
sa(dp9
g6
L10L
sg7
L41L
sa(dp10
g6
L10L
sg7
L601L
sasVvhints
p11
(lp12
(dp13
g6
L10L
sg7
L81L
sa(dp14
g6
L10L
sg7
L86L
sa(dp15
g6
L10L
sg7
L174L
sa(dp16
g6
L10L
sg7
L471L
sa(dp17
g6
L10L
sg7
L649L
sass."
Layer: 2
SplineSet
85 185 m 2
 85 600 l 1
 152 600 l 1
 152 185 l 2
 152 87 221 33 320 33 c 0
 419 33 488 87 488 185 c 2
 488 600 l 1
 555 600 l 1
 555 185 l 2
 555 67 463 -17 320 -17 c 0
 177 -17 85 67 85 185 c 2
EndSplineSet
Layer: 3
SplineSet
320 48 m 0
 408 48 472 94 472 188 c 2
 472 600 l 1
 562 600 l 1
 562 188 l 2
 562 70 468 -18 320 -18 c 0
 172 -18 78 70 78 188 c 2
 78 600 l 1
 168 600 l 1
 168 188 l 2
 168 94 232 48 320 48 c 0
EndSplineSet
Layer: 4
SplineSet
70 191 m 2
 70 600 l 1
 183 600 l 1
 183 191 l 2
 183 102 242 63 320 63 c 0
 398 63 457 102 457 191 c 2
 457 600 l 1
 570 600 l 1
 570 191 l 2
 570 73 474 -19 320 -19 c 0
 166 -19 70 73 70 191 c 2
EndSplineSet
Layer: 5
SplineSet
63 195 m 2
 63 600 l 1
 200 600 l 1
 200 195 l 2
 200 111 253 78 321 78 c 0
 389 78 441 111 441 195 c 2
 441 600 l 5
 578 600 l 1
 578 195 l 2
 578 76 481 -20 321 -20 c 0
 161 -20 63 76 63 195 c 2
EndSplineSet
Layer: 6
SplineSet
55 198 m 2
 55 600 l 1
 215 600 l 1
 215 198 l 2
 215 119 263 93 320 93 c 0
 377 93 425 119 425 198 c 2
 425 600 l 1
 585 600 l 1
 585 198 l 2
 585 79 485 -21 320 -21 c 0
 155 -21 55 79 55 198 c 2
EndSplineSet
Colour: ff00
EndChar

StartChar: v
Encoding: 118 118 90
GlifName: v
Width: 630
VWidth: 0
Flags: W
HStem: 0 21G<278.472 351.528> 580 20G<35 114.864 515.136 595>
LayerCount: 7
Back
SplineSet
70 600 m 29
 315 0 l 1053
EndSplineSet
Fore
SplineSet
5 580 m 1
 5 588 l 1
 180 600 l 1
 315 195 l 1
 450 600 l 1
 625 588 l 1
 625 580 l 1
 380 0 l 1
 250 0 l 1
 5 580 l 1
EndSplineSet
PickledDataWithLists: "(dp0
Vcom.fontlab.hintData
p1
(dp2
Vhhints
p3
(lp4
(dp5
Vwidth
p6
L10L
sVposition
p7
L-18L
sa(dp8
g6
L10L
sg7
L581L
sa(dp9
g6
L10L
sg7
L591L
sasVvhints
p10
(lp11
(dp12
g6
L10L
sg7
L35L
sa(dp13
g6
L10L
sg7
L584L
sass."
Layer: 2
SplineSet
35 591 m 1
 35 595 l 1
 107 600 l 1
 315 71 l 1
 523 600 l 1
 595 595 l 1
 595 591 l 1
 343 0 l 1
 287 0 l 1
 35 591 l 1
EndSplineSet
Layer: 3
SplineSet
27 588 m 1
 27 593 l 1
 125 600 l 1
 315 96 l 1
 505 600 l 1
 603 593 l 1
 603 588 l 1
 351 0 l 1
 279 0 l 1
 27 588 l 1
EndSplineSet
Layer: 4
SplineSet
20 585 m 1
 20 591 l 1
 143 600 l 1
 315 127 l 1
 487 600 l 1
 610 591 l 1
 610 585 l 1
 361 0 l 1
 269 0 l 1
 20 585 l 1
EndSplineSet
Layer: 5
SplineSet
12 583 m 5
 12 590 l 5
 161 600 l 5
 315 160 l 5
 469 600 l 5
 618 590 l 5
 618 583 l 5
 371 0 l 5
 259 0 l 5
 12 583 l 5
EndSplineSet
Layer: 6
SplineSet
5 580 m 1
 5 588 l 1
 180 600 l 1
 315 195 l 1
 450 600 l 1
 625 588 l 1
 625 580 l 1
 380 0 l 1
 250 0 l 1
 5 580 l 1
EndSplineSet
Colour: ff00
EndChar

StartChar: w
Encoding: 119 119 91
GlifName: w
Width: 840
VWidth: 0
Flags: W
HStem: 0 21G<211.966 281.878 558.122 628.034> 580 20G<40 116.523 723.477 800>
VStem: 40 71<569.58 594> 729 71<569.58 594>
LayerCount: 7
Back
SplineSet
420 585 m 29
 245 0 l 1053
65 600 m 29
 245 0 l 1053
EndSplineSet
Fore
SplineSet
830 580 m 1
 657 0 l 1
 522 0 l 1
 420 362 l 1
 318 0 l 1
 183 0 l 1
 10 580 l 1
 10 588 l 1
 180 600 l 1
 264 236 l 1
 357 585 l 1
 483 585 l 1
 576 236 l 1
 660 600 l 1
 830 588 l 1
 830 580 l 1
EndSplineSet
PickledDataWithLists: "(dp0
Vcom.fontlab.hintData
p1
(dp2
Vhhints
p3
(lp4
(dp5
Vwidth
p6
L10L
sVposition
p7
L-11L
sa(dp8
g6
L10L
sg7
L568L
sa(dp9
g6
L10L
sg7
L590L
sasVvhints
p10
(lp11
(dp12
g6
L10L
sg7
L41L
sa(dp13
g6
L10L
sg7
L790L
sass."
Layer: 2
SplineSet
800 590 m 1
 622 0 l 1
 564 0 l 1
 420 490 l 1
 276 0 l 1
 218 0 l 1
 40 590 l 1
 40 594 l 1
 111 600 l 1
 251 93 l 1
 392 585 l 1
 448 585 l 1
 589 93 l 1
 729 600 l 1
 800 594 l 1
 800 590 l 1
EndSplineSet
Layer: 3
SplineSet
808 588 m 1
 632 0 l 1
 554 0 l 1
 420 461 l 1
 286 0 l 1
 208 0 l 1
 32 588 l 1
 32 592 l 1
 128 600 l 1
 253 125 l 1
 384 585 l 1
 456 585 l 1
 587 125 l 1
 712 600 l 1
 808 592 l 1
 808 588 l 1
EndSplineSet
Layer: 4
SplineSet
815 585 m 1
 640 0 l 1
 543 0 l 1
 420 428 l 1
 297 0 l 1
 200 0 l 1
 25 585 l 1
 25 591 l 1
 146 600 l 1
 257 159 l 1
 375 585 l 1
 465 585 l 1
 583 159 l 1
 694 600 l 1
 815 591 l 1
 815 585 l 1
EndSplineSet
Layer: 5
SplineSet
823 582 m 5
 649 0 l 5
 533 0 l 5
 532 0 l 5
 419 394 l 5
 307 0 l 5
 191 0 l 5
 17 582 l 5
 17 590 l 5
 162 600 l 5
 260 196 l 5
 365 585 l 5
 474 585 l 5
 580 194 l 5
 678 600 l 5
 823 590 l 5
 823 582 l 5
EndSplineSet
Layer: 6
SplineSet
830 580 m 1
 657 0 l 1
 522 0 l 1
 420 362 l 1
 318 0 l 1
 183 0 l 1
 10 580 l 1
 10 588 l 1
 180 600 l 1
 264 236 l 1
 357 585 l 1
 483 585 l 1
 576 236 l 1
 660 600 l 1
 830 588 l 1
 830 580 l 1
EndSplineSet
Colour: ff00
EndChar

StartChar: x
Encoding: 120 120 92
GlifName: x
Width: 610
VWidth: 0
Flags: W
HStem: 0 21G<30 118.672 491.328 580> 580 20G<70 155.017 454.983 540>
LayerCount: 7
Back
SplineSet
100 600 m 29
 535 0 l 1053
EndSplineSet
Fore
SplineSet
40 580 m 1
 40 588 l 1
 209 600 l 1
 305 428 l 1
 401 600 l 1
 570 588 l 1
 570 580 l 1
 392 323 l 1
 610 6 l 1
 610 0 l 1
 431 0 l 1
 305 193 l 1
 179 0 l 1
 0 0 l 1
 0 6 l 1
 218 323 l 1
 40 580 l 1
EndSplineSet
PickledDataWithLists: "(dp0
Vcom.fontlab.hintData
p1
(dp2
Vhhints
p3
(lp4
(dp5
Vwidth
p6
L10L
sVposition
p7
L-6L
sa(dp8
g6
L10L
sg7
L5L
sa(dp9
g6
L10L
sg7
L591L
sasVvhints
p10
(lp11
(dp12
g6
L10L
sg7
L26L
sa(dp13
g6
L10L
sg7
L71L
sa(dp14
g6
L10L
sg7
L524L
sa(dp15
g6
L10L
sg7
L559L
sass."
Layer: 2
SplineSet
70 591 m 1
 70 595 l 1
 141 600 l 1
 305 366 l 1
 469 600 l 1
 540 595 l 1
 540 591 l 1
 342 325 l 1
 580 3 l 1
 580 0 l 1
 506 0 l 1
 305 274 l 1
 104 0 l 1
 30 0 l 1
 30 3 l 1
 268 325 l 1
 70 591 l 1
EndSplineSet
Layer: 3
SplineSet
63 588 m 1
 63 593 l 1
 159 600 l 1
 305 380 l 1
 452 600 l 1
 548 593 l 1
 548 588 l 1
 355 324 l 1
 588 4 l 1
 588 0 l 1
 487 0 l 1
 305 255 l 1
 124 0 l 1
 23 0 l 1
 23 4 l 1
 256 324 l 1
 63 588 l 1
EndSplineSet
Layer: 4
SplineSet
55 585 m 1
 55 591 l 1
 175 600 l 1
 305 394 l 1
 435 600 l 1
 555 591 l 1
 555 585 l 1
 367 323 l 1
 595 5 l 1
 595 0 l 1
 468 0 l 1
 305 234 l 1
 142 0 l 1
 15 0 l 1
 15 5 l 1
 243 323 l 1
 55 585 l 1
EndSplineSet
Layer: 5
SplineSet
48 583 m 5
 48 590 l 5
 193 600 l 5
 306 410 l 5
 418 600 l 5
 563 590 l 5
 563 583 l 5
 381 323 l 5
 603 5 l 5
 603 0 l 5
 451 0 l 5
 306 214 l 5
 160 0 l 5
 8 0 l 5
 8 5 l 5
 230 323 l 5
 48 583 l 5
EndSplineSet
Layer: 6
SplineSet
40 580 m 1
 40 588 l 1
 209 600 l 1
 305 428 l 1
 401 600 l 1
 570 588 l 1
 570 580 l 1
 392 323 l 1
 610 6 l 1
 610 0 l 1
 431 0 l 1
 305 193 l 1
 179 0 l 1
 0 0 l 1
 0 6 l 1
 218 323 l 1
 40 580 l 1
EndSplineSet
Colour: ff00
EndChar

